<?xml version="1.0" encoding="UTF-8" standalone="no"?><!DOCTYPE svg PUBLIC "-//W3C//DTD SVG 1.1//EN" "http://www.w3.org/Graphics/SVG/1.1/DTD/svg11.dtd"><svg width="16px" height="18px" viewBox="0 0 4 5" version="1.1" xmlns="http://www.w3.org/2000/svg" xmlns:xlink="http://www.w3.org/1999/xlink" xml:space="preserve" xmlns:serif="http://www.serif.com/" style="fill-rule:evenodd;clip-rule:evenodd;stroke-linecap:round;stroke-linejoin:round;stroke-miterlimit:10;"><path d="M2.551,0.496l0.976,0.993l-0,2.478c-0,0.053 -0.021,0.103 -0.058,0.14c-0.037,0.037 -0.087,0.057 -0.139,0.057c-0.579,0 -2.272,0 -2.833,0c-0.049,0 -0.096,-0.019 -0.13,-0.053c-0.035,-0.035 -0.054,-0.081 -0.054,-0.13c0,-0.626 0,-2.675 0,-3.302c0,-0.048 0.019,-0.095 0.054,-0.13c0.034,-0.034 0.081,-0.053 0.13,-0.053c0.534,-0 2.054,-0 2.054,-0Z" style="fill:none;stroke:#6f84a7;stroke-width:0.26px;"/><path d="M3.527,1.489l-0.976,-0.993l0,0.827c0,0.048 0.02,0.095 0.054,0.129c0.035,0.034 0.082,0.053 0.131,0.052c0.282,-0.005 0.791,-0.015 0.791,-0.015Z" style="fill:none;stroke:#6f84a7;stroke-width:0.26px;"/><path id="date" d="M2.459,3.756c-0.127,-0.012 -0.248,-0.071 -0.342,-0.164c-0.223,-0.223 -0.223,-0.579 0,-0.802c0.192,-0.191 0.488,-0.221 0.714,-0.073c0.055,0.036 0.125,0.106 0.161,0.161c0.148,0.226 0.118,0.522 -0.073,0.714c-0.097,0.096 -0.215,0.152 -0.352,0.164c-0.028,0.003 -0.055,0.005 -0.058,0.005c-0.004,-0.001 -0.026,-0.003 -0.05,-0.005Zm0.135,-0.19c0.072,-0.015 0.136,-0.049 0.19,-0.101c0.075,-0.073 0.116,-0.169 0.116,-0.274c-0,-0.102 -0.037,-0.191 -0.108,-0.265c-0.073,-0.076 -0.169,-0.116 -0.274,-0.116c-0.105,-0 -0.201,0.04 -0.274,0.116c-0.071,0.074 -0.108,0.163 -0.108,0.265c0,0.102 0.037,0.192 0.108,0.266c0.053,0.054 0.122,0.093 0.196,0.109c0.038,0.008 0.115,0.008 0.154,-0l0,-0Zm-0.088,-0.283c-0.002,-0.001 -0.01,-0.003 -0.017,-0.004c-0.016,-0.004 -0.044,-0.028 -0.055,-0.047c-0.007,-0.013 -0.008,-0.031 -0.008,-0.133c0,-0.065 0.002,-0.123 0.004,-0.131c0.004,-0.016 0.029,-0.044 0.047,-0.054c0.018,-0.009 0.062,-0.01 0.079,-0.001c0.006,0.003 0.018,0.011 0.025,0.018c0.024,0.023 0.028,0.036 0.03,0.103l0.002,0.062l0.035,0.002c0.037,0.003 0.055,0.01 0.073,0.03c0.019,0.021 0.025,0.035 0.025,0.063c-0,0.028 -0.006,0.042 -0.025,0.063c-0.024,0.027 -0.033,0.029 -0.125,0.03c-0.047,0.001 -0.087,0 -0.09,-0.001l0,0Z" style="fill:#6f84a7;fill-rule:nonzero;"/><circle cx="0.847" cy="2.029" r="0.129" style="fill:#6f84a7;"/><circle cx="1.506" cy="2.029" r="0.129" style="fill:#6f84a7;"/><circle cx="2.165" cy="2.029" r="0.129" style="fill:#6f84a7;"/><circle cx="2.824" cy="2.029" r="0.129" style="fill:#6f84a7;"/><circle cx="0.847" cy="2.83" r="0.129" style="fill:#6f84a7;"/><circle cx="1.506" cy="2.83" r="0.129" style="fill:#6f84a7;"/><circle cx="0.847" cy="3.632" r="0.129" style="fill:#6f84a7;"/><circle cx="1.506" cy="3.632" r="0.129" style="fill:#6f84a7;"/><path d="M0.847,0.156l-0,0.701" style="fill:none;stroke:#6f84a7;stroke-width:0.26px;"/><path d="M1.449,0.156l-0,0.701" style="fill:none;stroke:#6f84a7;stroke-width:0.26px;"/><path d="M2.043,0.156l0,0.701" style="fill:none;stroke:#6f84a7;stroke-width:0.26px;"/></svg>
