<?xml version="1.0" encoding="UTF-8" standalone="no"?><!DOCTYPE svg PUBLIC "-//W3C//DTD SVG 1.1//EN" "http://www.w3.org/Graphics/SVG/1.1/DTD/svg11.dtd"><svg width="100%" height="100%" viewBox="0 0 68 68" version="1.1" xmlns="http://www.w3.org/2000/svg" xmlns:xlink="http://www.w3.org/1999/xlink" xml:space="preserve" xmlns:serif="http://www.serif.com/" style="fill-rule:evenodd;clip-rule:evenodd;stroke-linejoin:round;stroke-miterlimit:2;"><path d="M59.516,8.848l0,41.683c0,0.423 -0.178,0.826 -0.492,1.11c-0.313,0.285 -0.732,0.423 -1.153,0.382c-7.521,-0.73 -13.667,1.898 -20.507,7.983c-0.442,0.392 -1.073,0.489 -1.612,0.247c-0.539,-0.242 -0.885,-0.777 -0.885,-1.368l-0,-41.682c-0,-0.469 0.219,-0.912 0.593,-1.195c7.467,-5.664 14.263,-8.215 22.475,-8.657c0.412,-0.023 0.814,0.125 1.113,0.409c0.299,0.283 0.468,0.677 0.468,1.088Zm-1.213,45.53c0.904,0.043 1.787,-0.286 2.442,-0.91c0.655,-0.625 1.026,-1.491 1.026,-2.396c0.006,-9.311 0.006,-32.691 0.006,-32.691c-0,-1.38 1.12,-2.5 2.5,-2.5c1.379,-0 2.5,1.12 2.5,2.5l-0,40.504c-0,1.381 -1.12,2.5 -2.5,2.5l-23.765,-0c-1.38,-0 6.107,-7.86 17.431,-7.03c0.122,0.009 0.242,0.017 0.36,0.023Z" style="fill:#5589a7;"/><path d="M8.217,8.848l0,41.683c0,0.423 0.179,0.826 0.492,1.11c0.313,0.285 0.732,0.423 1.153,0.382c7.522,-0.73 13.668,1.898 20.508,7.983c0.441,0.392 1.072,0.489 1.611,0.247c0.539,-0.242 0.886,-0.777 0.886,-1.368l-0,-41.682c-0,-0.469 -0.22,-0.912 -0.594,-1.195c-7.467,-5.664 -14.263,-8.215 -22.475,-8.657c-0.411,-0.023 -0.814,0.125 -1.113,0.409c-0.299,0.283 -0.468,0.677 -0.468,1.088Zm1.213,45.53c-0.904,0.043 -1.787,-0.286 -2.442,-0.91c-0.655,-0.625 -1.026,-1.491 -1.026,-2.396c-0.005,-9.311 -0.005,-32.691 -0.005,-32.691c-0,-1.38 -1.12,-2.5 -2.5,-2.5c-1.38,-0 -2.5,1.12 -2.5,2.5l-0,40.504c-0,1.381 1.119,2.5 2.5,2.5l23.764,-0c1.38,-0 -6.107,-7.86 -17.431,-7.03c-0.122,0.009 -0.242,0.017 -0.36,0.023Z" style="fill:#5589a7;"/></svg>