<?xml version="1.0" encoding="UTF-8" standalone="no"?><!DOCTYPE svg PUBLIC "-//W3C//DTD SVG 1.1//EN" "http://www.w3.org/Graphics/SVG/1.1/DTD/svg11.dtd"><svg width="100%" height="100%" viewBox="0 0 68 68" version="1.1" xmlns="http://www.w3.org/2000/svg" xmlns:xlink="http://www.w3.org/1999/xlink" xml:space="preserve" xmlns:serif="http://www.serif.com/" style="fill-rule:evenodd;clip-rule:evenodd;stroke-linecap:round;stroke-linejoin:round;stroke-miterlimit:10;"><path d="M47.04,54.178c-1.891,1.861 -2.985,4.302 -7.153,3.991c-3.128,-0.233 -5.031,-1.942 -6.062,-3.293c-1.163,1.453 -3.283,3.364 -6.387,3.364c-4.022,0 -5.916,-2.628 -6.551,-3.776c-0.93,-0.306 -2.801,-1.084 -3.812,-2.63c-0.946,-1.447 -1.151,-3.901 -1.191,-5.13c-1.068,-0.607 -2.984,-2.053 -3.449,-4.783c-0.41,-2.41 0.259,-4.019 0.832,-4.899c-0.554,-0.892 -1.239,-2.459 -0.899,-4.426c0.391,-2.26 1.235,-3.467 1.909,-4.094c-0.387,-1.301 -0.682,-3.73 1.329,-6.07c1.33,-1.548 2.686,-2.143 3.683,-2.357c-0.161,-1.407 -0.097,-3.614 1.395,-5.363c1.252,-1.467 2.681,-1.695 3.541,-1.67c0.788,-0.887 2.565,-2.545 4.96,-2.721c1.696,-0.124 2.889,0.175 3.769,0.717c0.324,0.201 0.611,0.436 0.864,0.704c0.266,-0.296 0.595,-0.579 1.001,-0.812c1.021,-0.586 2.576,-0.91 4.923,-0.072c5.12,1.829 6.722,2.795 7.836,4.331c0.393,0.541 0.671,1.382 0.824,2.308c0.168,1.023 0.201,2.154 0.197,2.949c1.166,0.274 2.986,1 4.241,2.916c1.442,2.201 1.132,4.245 0.759,5.371c0.834,0.835 2.017,2.539 1.794,5.364c-0.112,1.409 -0.629,2.5 -1.052,3.176c0.658,1.007 1.576,2.896 1.018,5.017c-0.528,2.004 -2.118,3.359 -3.148,4.053c0.374,1.297 0.559,3.598 -1.717,5.703c-1.496,1.384 -2.328,1.025 -3.454,2.132Zm-26.562,-31.939c-0.01,-0.001 -0.021,-0.003 -0.032,-0.004c0,-0 -1.547,-0.164 -3.124,1.671c-1.879,2.186 -0.676,4.484 -0.676,4.484c0.189,0.35 0.18,0.775 -0.024,1.117c-0.125,0.209 -0.311,0.369 -0.529,0.461c0,0 -1.107,0.764 -1.496,3.014c-0.296,1.713 0.625,2.949 0.86,3.232c0.056,0.05 0.107,0.106 0.154,0.169c1.241,1.673 3.854,1.508 3.854,1.508c0.624,-0.026 1.151,0.46 1.177,1.083c0.026,0.624 -0.459,1.152 -1.083,1.178c0,-0 -2.681,0.073 -4.664,-1.348c-0.246,0.602 -0.438,1.51 -0.229,2.737c0.43,2.529 2.734,3.398 2.734,3.398c0.458,0.17 0.755,0.616 0.736,1.104c-0,0 -0.171,3.019 0.832,4.553c0.924,1.412 2.951,1.817 2.951,1.817c0.369,0.08 0.674,0.338 0.813,0.689c-0,-0 1.182,2.876 4.706,2.876c3.129,-0 4.864,-2.695 5.305,-3.483l0.001,-23.919c-0.001,-0.018 -0.001,-0.037 -0.001,-0.055c-0,-0.053 0,-0.105 0.001,-0.157l0,-4.196c-0.244,-1.817 -2.251,-1.902 -2.251,-1.902c-0.624,-0.034 -1.102,-0.567 -1.068,-1.191c0.034,-0.623 0.568,-1.102 1.191,-1.068c-0,0 1.052,0.064 2.128,0.63l0.001,-6.442c-0.229,-0.516 -0.52,-0.948 -0.979,-1.231c-0.561,-0.346 -1.334,-0.465 -2.416,-0.386c-1.226,0.089 -2.21,0.754 -2.857,1.346c0.285,0.212 0.557,0.45 0.81,0.699c0.909,0.899 1.558,1.901 1.558,1.901c0.34,0.524 0.191,1.225 -0.333,1.565c-0.524,0.34 -1.225,0.19 -1.565,-0.333c0,-0 -0.521,-0.803 -1.25,-1.523c-0.397,-0.392 -0.847,-0.785 -1.318,-0.906c-0.127,-0.022 -1.128,-0.157 -1.99,0.853c-1.116,1.308 -1.02,3.001 -0.855,3.92c1.685,0.272 2.903,0.912 3.791,1.677c2.421,2.083 2.415,5.186 2.415,5.186c0,0.624 -0.506,1.131 -1.131,1.131c-0.624,0 -1.131,-0.507 -1.131,-1.131c0,-0 -0.006,-2.075 -1.628,-3.471c-0.723,-0.622 -1.763,-1.093 -3.238,-1.229c-0.051,-0.004 -0.101,-0.012 -0.15,-0.024Zm21.069,-8.303c-0.722,-0.281 -1.568,-0.591 -2.566,-0.947c-1.448,-0.517 -2.406,-0.458 -3.036,-0.096c-0.636,0.364 -0.872,0.99 -0.938,1.213l-0,9.755c1.224,-0.703 2.476,-0.6 2.476,-0.6c0.623,0.048 1.089,0.592 1.041,1.214c-0.047,0.623 -0.592,1.089 -1.214,1.041c-0,0 -0.809,-0.053 -1.458,0.506c-0.481,0.414 -0.822,1.146 -0.846,2.362l-0.001,16.617c1.76,-1.527 3.903,-1.88 3.903,-1.88c0.617,-0.1 1.198,0.319 1.299,0.935c0.1,0.616 -0.319,1.198 -0.935,1.298c-0,0 -4.426,0.708 -4.26,5.073c0.002,0.059 -0,0.117 -0.007,0.174l0,1.928c0.336,0.679 1.772,3.14 5.05,3.384c3.711,0.277 2.465,-0.647 5.11,-2.91c0.826,-0.707 1.075,-0.672 1.075,-0.672c-0,-0 1.116,-0.465 2.718,-1.946c2.012,-1.861 0.87,-3.96 0.87,-3.96c-0.157,-0.275 -0.192,-0.604 -0.096,-0.905c0.097,-0.302 0.315,-0.55 0.602,-0.683c0,0 2.285,-1.027 2.837,-3.123c0.283,-1.074 -0.044,-2.051 -0.406,-2.726c-2.292,1.848 -4.48,1.195 -4.48,1.195c-0.604,-0.16 -0.964,-0.78 -0.804,-1.383c0.16,-0.604 0.779,-0.964 1.383,-0.804c-0,-0 1.675,0.346 3.247,-1.53c0.046,-0.056 0.097,-0.106 0.151,-0.15c0.26,-0.356 0.781,-1.206 0.875,-2.397c0.217,-2.745 -1.499,-3.894 -1.499,-3.894c-0.525,-0.324 -0.693,-1.009 -0.378,-1.539c-0,-0 1.034,-1.828 -0.312,-3.884c-1.309,-1.997 -3.529,-2.061 -3.529,-2.061c-0.118,-0.002 -0.233,-0.023 -0.342,-0.06c-0.84,-0.104 -1.53,-0.027 -2.093,0.191c-0.95,0.367 -1.507,1.13 -1.856,1.893c-0.587,1.285 -0.603,2.612 -0.603,2.612c-0.007,0.625 -0.519,1.127 -1.143,1.12c-0.624,-0.006 -1.126,-0.518 -1.12,-1.142c0,-0 0.015,-1.795 0.809,-3.531c0.572,-1.252 1.536,-2.459 3.097,-3.062c0.618,-0.24 1.336,-0.386 2.17,-0.389c-0.003,-0.479 -0.023,-1.057 -0.081,-1.636c-0.078,-0.78 -0.189,-1.576 -0.511,-2.02c-0.072,-0.1 -0.147,-0.195 -0.226,-0.288c-0.049,-0.019 -0.096,-0.042 -0.143,-0.068c-2.757,-1.554 -4.356,1.269 -4.356,1.269c-0.31,0.542 -1.002,0.731 -1.544,0.421c-0.542,-0.31 -0.73,-1.001 -0.421,-1.543c0,-0 0.878,-1.527 2.491,-2.372Zm-1.297,19.469c-1.128,-0.237 -2.413,-0.763 -3.87,-1.696c-0.526,-0.336 -0.679,-1.036 -0.343,-1.562c0.337,-0.526 1.037,-0.68 1.563,-0.343c2.158,1.381 3.764,1.713 4.989,1.374c1.048,-0.289 1.751,-1.067 2.243,-1.866c0.826,-1.344 1.068,-2.803 1.068,-2.803c0.101,-0.616 0.684,-1.034 1.3,-0.933c0.616,0.101 1.034,0.683 0.932,1.299c0,0 -0.307,1.887 -1.373,3.622c-0.77,1.252 -1.925,2.408 -3.567,2.862c-0.204,0.056 -0.416,0.102 -0.638,0.136c0.107,0.509 0.295,0.9 0.544,1.194c0.86,1.02 2.301,0.837 2.301,0.837c0.62,-0.07 1.181,0.377 1.251,0.997c0.07,0.621 -0.377,1.181 -0.997,1.251c-0,0 -2.675,0.282 -4.285,-1.626c-0.533,-0.632 -0.969,-1.509 -1.118,-2.743Zm4.128,12.357c-0.263,-1.786 -0.982,-2.915 -1.826,-3.612c-1.387,-1.144 -3.028,-1.117 -3.028,-1.117c-0.625,0.015 -1.143,-0.48 -1.158,-1.104c-0.015,-0.624 0.48,-1.143 1.104,-1.158c-0,0 2.456,-0.07 4.522,1.634c1.145,0.945 2.202,2.435 2.594,4.828c0.473,-0.042 0.769,-0.024 0.769,-0.024c0.623,0.037 1.099,0.574 1.061,1.197c-0.037,0.623 -0.574,1.098 -1.197,1.061c0,-0 -0.523,-0.031 -1.225,0.132c-0.075,0.029 -0.155,0.049 -0.237,0.061c-0.69,0.196 -1.503,0.585 -2.156,1.352c-0.644,0.758 -1.112,1.875 -1.214,3.494c-0.039,0.623 -0.577,1.097 -1.2,1.058c-0.623,-0.04 -1.097,-0.577 -1.058,-1.201c0.142,-2.242 0.856,-3.767 1.749,-4.816c0.755,-0.888 1.653,-1.441 2.5,-1.785Zm-20.803,-12.314c-0.254,-0.034 -0.497,-0.086 -0.727,-0.153c-1.604,-0.463 -2.723,-1.652 -3.458,-2.948c-1.003,-1.772 -1.269,-3.703 -1.269,-3.703c-0.086,-0.618 0.346,-1.19 0.964,-1.276c0.619,-0.086 1.191,0.347 1.277,0.965c-0,0 0.211,1.511 0.997,2.899c0.458,0.809 1.115,1.6 2.116,1.889c0.345,0.1 0.722,0.139 1.136,0.109c0.119,-0.035 0.245,-0.051 0.374,-0.045c0.919,-0.151 2.008,-0.622 3.311,-1.502c0.517,-0.349 1.221,-0.212 1.57,0.305c0.349,0.518 0.213,1.222 -0.305,1.571c-1.346,0.908 -2.54,1.448 -3.596,1.719c-0.757,4.459 -5.301,4.436 -5.301,4.436c-0.625,-0 -1.131,-0.507 -1.131,-1.131c-0,-0.625 0.506,-1.132 1.131,-1.132c-0,0 2.184,-0.019 2.911,-2.003Zm-0.263,13.344c-0.779,-0.227 -1.386,-0.205 -1.386,-0.205c-0.624,0.024 -1.15,-0.463 -1.173,-1.087c-0.024,-0.624 0.463,-1.15 1.087,-1.173c0,-0 0.297,-0.012 0.769,0.041c0.018,-1.523 0.444,-2.697 1.049,-3.605c1.876,-2.811 5.675,-3.074 5.675,-3.074c0.623,-0.038 1.16,0.436 1.199,1.059c0.038,0.623 -0.436,1.161 -1.059,1.199c-0,0 -2.641,0.136 -3.933,2.072c-0.477,0.716 -0.744,1.679 -0.648,2.963c0.754,0.336 1.54,0.844 2.219,1.61c0.882,0.995 1.602,2.429 1.792,4.521c0.057,0.622 -0.402,1.172 -1.024,1.229c-0.621,0.056 -1.172,-0.402 -1.229,-1.024c-0.135,-1.485 -0.606,-2.519 -1.232,-3.225c-0.531,-0.599 -1.16,-0.961 -1.738,-1.178c-0.13,-0.02 -0.254,-0.062 -0.368,-0.123Z" style="fill:#6f84a7;"/><path d="M44.593,2.691l16.591,16.88l-0,42.123c-0,0.9 -0.357,1.75 -0.986,2.379c-0.629,0.629 -1.479,0.969 -2.363,0.969l-48.157,0c-0.833,0 -1.632,-0.323 -2.21,-0.901c-0.595,-0.595 -0.918,-1.377 -0.918,-2.209l-0,-56.13c-0,-0.816 0.323,-1.615 0.918,-2.21c0.578,-0.578 1.377,-0.901 2.21,-0.901l34.915,0Z" style="fill:none;stroke:#6f84a7;stroke-width:4.42px;"/></svg>