<?xml version="1.0" encoding="UTF-8" standalone="no"?><!DOCTYPE svg PUBLIC "-//W3C//DTD SVG 1.1//EN" "http://www.w3.org/Graphics/SVG/1.1/DTD/svg11.dtd"><svg width="100%" height="100%" viewBox="0 0 68 68" version="1.1" xmlns="http://www.w3.org/2000/svg" xmlns:xlink="http://www.w3.org/1999/xlink" xml:space="preserve" xmlns:serif="http://www.serif.com/" style="fill-rule:evenodd;clip-rule:evenodd;stroke-linejoin:round;stroke-miterlimit:2;"><path d="M51.323,60.67c-2.508,2.468 -3.959,5.705 -9.486,5.293c-4.147,-0.31 -6.67,-2.576 -8.037,-4.368c-1.543,1.927 -4.354,4.462 -8.47,4.462c-5.333,-0 -7.845,-3.485 -8.688,-5.008c-1.232,-0.405 -3.714,-1.437 -5.054,-3.487c-1.255,-1.919 -1.526,-5.173 -1.58,-6.803c-1.416,-0.805 -3.956,-2.722 -4.572,-6.342c-0.544,-3.196 0.342,-5.33 1.102,-6.496c-0.735,-1.183 -1.642,-3.262 -1.192,-5.869c0.518,-2.997 1.637,-4.598 2.532,-5.429c-0.514,-1.726 -0.905,-4.947 1.761,-8.05c1.765,-2.053 3.563,-2.842 4.884,-3.126c-0.213,-1.865 -0.127,-4.792 1.85,-7.11c1.66,-1.947 3.556,-2.248 4.696,-2.215c1.045,-1.176 3.402,-3.376 6.577,-3.608c2.249,-0.165 3.831,0.231 4.998,0.951c0.43,0.265 0.81,0.577 1.146,0.932c0.352,-0.392 0.789,-0.767 1.327,-1.076c1.354,-0.777 3.416,-1.206 6.528,-0.095c6.79,2.425 8.914,3.705 10.391,5.742c0.521,0.719 0.891,1.833 1.093,3.061c0.223,1.357 0.266,2.857 0.261,3.911c1.547,0.363 3.959,1.326 5.624,3.867c1.912,2.919 1.5,5.629 1.006,7.122c1.107,1.107 2.675,3.367 2.379,7.113c-0.148,1.868 -0.834,3.315 -1.394,4.211c0.872,1.335 2.089,3.84 1.349,6.653c-0.699,2.657 -2.808,4.454 -4.174,5.375c0.496,1.719 0.741,4.77 -2.277,7.562c-1.984,1.835 -3.087,1.359 -4.58,2.827Zm-35.222,-42.352c-0.014,-0.002 -0.029,-0.004 -0.043,-0.007c0,0 -2.051,-0.217 -4.143,2.218c-2.491,2.898 -0.896,5.945 -0.896,5.945c0.251,0.465 0.239,1.027 -0.032,1.481c-0.165,0.278 -0.413,0.489 -0.701,0.612c0,-0 -1.468,1.013 -1.983,3.996c-0.393,2.271 0.828,3.911 1.14,4.286c0.073,0.066 0.142,0.141 0.203,0.224c1.646,2.218 5.111,2 5.111,2c0.827,-0.035 1.527,0.609 1.561,1.436c0.035,0.827 -0.609,1.527 -1.436,1.561c-0,0 -3.555,0.098 -6.185,-1.786c-0.326,0.798 -0.581,2.002 -0.304,3.629c0.571,3.353 3.626,4.505 3.626,4.505c0.607,0.227 1.001,0.817 0.976,1.465c-0,0 -0.226,4.003 1.104,6.037c1.224,1.873 3.912,2.41 3.912,2.41c0.489,0.105 0.893,0.448 1.078,0.913c-0,0 1.568,3.814 6.241,3.814c4.148,-0 6.449,-3.573 7.034,-4.619l0.002,-31.718c-0.002,-0.024 -0.002,-0.048 -0.002,-0.072c-0,-0.071 0,-0.14 0.002,-0.209l-0,-5.563c-0.325,-2.41 -2.986,-2.522 -2.986,-2.522c-0.826,-0.045 -1.461,-0.753 -1.416,-1.58c0.045,-0.826 0.753,-1.461 1.58,-1.416c-0,0 1.394,0.085 2.822,0.835l0.001,-8.542c-0.304,-0.685 -0.689,-1.257 -1.298,-1.633c-0.744,-0.459 -1.77,-0.617 -3.204,-0.512c-1.626,0.119 -2.931,1 -3.788,1.785c0.377,0.281 0.739,0.597 1.073,0.928c1.206,1.192 2.067,2.521 2.067,2.521c0.451,0.694 0.253,1.624 -0.442,2.074c-0.695,0.451 -1.624,0.253 -2.075,-0.442c0,0 -0.691,-1.064 -1.658,-2.019c-0.526,-0.519 -1.122,-1.041 -1.747,-1.202c-0.169,-0.029 -1.497,-0.207 -2.639,1.133c-1.48,1.734 -1.353,3.978 -1.134,5.198c2.234,0.36 3.849,1.208 5.028,2.223c3.21,2.762 3.202,6.877 3.202,6.877c-0,0.827 -0.672,1.5 -1.5,1.5c-0.828,-0 -1.5,-0.673 -1.5,-1.5c-0,-0 -0.008,-2.752 -2.159,-4.603c-0.958,-0.825 -2.338,-1.449 -4.294,-1.629c-0.068,-0.007 -0.134,-0.017 -0.198,-0.032Zm27.938,-11.011c-0.958,-0.373 -2.08,-0.783 -3.403,-1.256c-1.92,-0.685 -3.19,-0.607 -4.026,-0.128c-0.843,0.484 -1.155,1.313 -1.243,1.609l-0.001,12.936c1.623,-0.932 3.284,-0.796 3.284,-0.796c0.826,0.064 1.444,0.786 1.381,1.611c-0.064,0.825 -0.785,1.444 -1.611,1.38c0,0 -1.072,-0.071 -1.933,0.67c-0.638,0.549 -1.09,1.52 -1.121,3.133l-0.002,22.035c2.333,-2.025 5.176,-2.493 5.176,-2.493c0.817,-0.133 1.589,0.423 1.721,1.24c0.133,0.817 -0.422,1.588 -1.239,1.721c-0,0 -5.869,0.939 -5.649,6.727c0.003,0.079 -0,0.156 -0.009,0.231l-0,2.556c0.445,0.901 2.349,4.164 6.696,4.488c4.921,0.367 3.269,-0.858 6.776,-3.859c1.096,-0.938 1.426,-0.892 1.426,-0.892c-0,0 1.48,-0.615 3.604,-2.58c2.668,-2.468 1.154,-5.251 1.154,-5.251c-0.209,-0.365 -0.255,-0.8 -0.127,-1.2c0.128,-0.4 0.417,-0.729 0.798,-0.905c0,-0 3.03,-1.362 3.762,-4.142c0.375,-1.424 -0.058,-2.72 -0.539,-3.615c-3.039,2.45 -5.94,1.584 -5.94,1.584c-0.801,-0.211 -1.278,-1.033 -1.067,-1.833c0.212,-0.801 1.034,-1.278 1.834,-1.067c0,0 2.221,0.46 4.306,-2.028c0.062,-0.074 0.129,-0.14 0.201,-0.199c0.344,-0.472 1.035,-1.599 1.16,-3.178c0.288,-3.64 -1.988,-5.164 -1.988,-5.164c-0.696,-0.43 -0.919,-1.338 -0.501,-2.041c-0,-0 1.371,-2.424 -0.415,-5.15c-1.734,-2.648 -4.679,-2.733 -4.679,-2.733c-0.156,-0.003 -0.308,-0.031 -0.453,-0.08c-1.115,-0.138 -2.028,-0.036 -2.776,0.253c-1.26,0.487 -1.998,1.5 -2.46,2.51c-0.779,1.705 -0.801,3.465 -0.801,3.465c-0.008,0.828 -0.687,1.493 -1.515,1.485c-0.828,-0.008 -1.493,-0.687 -1.485,-1.515c0,0 0.02,-2.379 1.072,-4.682c0.759,-1.66 2.037,-3.26 4.107,-4.061c0.82,-0.317 1.772,-0.511 2.878,-0.516c-0.004,-0.635 -0.03,-1.401 -0.108,-2.169c-0.103,-1.033 -0.25,-2.09 -0.677,-2.678c-0.095,-0.132 -0.195,-0.259 -0.3,-0.382c-0.064,-0.026 -0.128,-0.056 -0.19,-0.091c-3.655,-2.06 -5.776,1.684 -5.776,1.684c-0.411,0.719 -1.328,0.969 -2.047,0.558c-0.718,-0.411 -0.969,-1.328 -0.558,-2.047c0,0 1.163,-2.025 3.303,-3.145Zm-1.72,25.817c-1.496,-0.314 -3.199,-1.012 -5.131,-2.248c-0.698,-0.447 -0.902,-1.375 -0.455,-2.072c0.446,-0.698 1.374,-0.902 2.072,-0.455c2.862,1.831 4.992,2.271 6.615,1.822c1.39,-0.384 2.323,-1.415 2.974,-2.475c1.096,-1.782 1.417,-3.717 1.417,-3.717c0.134,-0.817 0.907,-1.371 1.723,-1.237c0.817,0.134 1.372,0.906 1.237,1.723c0,0 -0.407,2.502 -1.821,4.802c-1.021,1.662 -2.553,3.194 -4.73,3.796c-0.271,0.075 -0.552,0.135 -0.845,0.18c0.141,0.675 0.39,1.194 0.72,1.584c1.141,1.352 3.052,1.11 3.052,1.11c0.822,-0.093 1.566,0.5 1.659,1.322c0.092,0.823 -0.5,1.566 -1.323,1.659c0,0 -3.547,0.374 -5.681,-2.156c-0.707,-0.838 -1.285,-2.001 -1.483,-3.638Zm5.474,16.386c-0.349,-2.368 -1.302,-3.866 -2.421,-4.789c-1.84,-1.518 -4.016,-1.482 -4.016,-1.482c-0.828,0.02 -1.516,-0.636 -1.536,-1.464c-0.019,-0.828 0.637,-1.515 1.464,-1.535c0,-0 3.257,-0.094 5.997,2.166c1.518,1.253 2.919,3.229 3.44,6.403c0.627,-0.057 1.02,-0.033 1.02,-0.033c0.826,0.05 1.457,0.761 1.407,1.588c-0.05,0.826 -0.761,1.457 -1.588,1.407c0,-0 -0.693,-0.042 -1.624,0.175c-0.1,0.038 -0.205,0.065 -0.315,0.081c-0.915,0.26 -1.993,0.776 -2.858,1.793c-0.854,1.005 -1.475,2.486 -1.61,4.633c-0.053,0.826 -0.766,1.455 -1.592,1.402c-0.826,-0.052 -1.455,-0.765 -1.402,-1.591c0.187,-2.974 1.135,-4.996 2.319,-6.387c1.001,-1.178 2.191,-1.911 3.315,-2.367Zm-27.585,-16.329c-0.338,-0.046 -0.659,-0.115 -0.965,-0.203c-2.127,-0.613 -3.611,-2.19 -4.585,-3.91c-1.33,-2.349 -1.684,-4.909 -1.684,-4.909c-0.113,-0.82 0.46,-1.578 1.28,-1.692c0.82,-0.114 1.578,0.459 1.692,1.279c-0,0 0.281,2.004 1.323,3.844c0.608,1.073 1.478,2.123 2.805,2.506c0.458,0.132 0.958,0.184 1.507,0.144c0.157,-0.047 0.324,-0.068 0.496,-0.06c1.219,-0.2 2.663,-0.825 4.39,-1.991c0.686,-0.463 1.619,-0.282 2.083,0.404c0.463,0.687 0.281,1.62 -0.405,2.083c-1.784,1.204 -3.369,1.92 -4.769,2.279c-1.004,5.913 -7.029,5.883 -7.029,5.883c-0.828,-0 -1.5,-0.672 -1.5,-1.5c-0,-0.828 0.672,-1.5 1.5,-1.5c-0,-0 2.896,-0.026 3.861,-2.657Zm-0.349,17.695c-1.033,-0.301 -1.838,-0.271 -1.838,-0.271c-0.828,0.031 -1.525,-0.615 -1.556,-1.442c-0.032,-0.828 0.614,-1.525 1.442,-1.556c-0,-0 0.393,-0.016 1.02,0.055c0.023,-2.021 0.587,-3.577 1.391,-4.781c2.487,-3.728 7.524,-4.076 7.524,-4.076c0.827,-0.051 1.539,0.578 1.59,1.404c0.051,0.827 -0.578,1.539 -1.404,1.59c-0,0 -3.502,0.18 -5.215,2.747c-0.633,0.95 -0.986,2.227 -0.86,3.93c1,0.445 2.043,1.119 2.944,2.135c1.169,1.319 2.124,3.221 2.376,5.995c0.075,0.824 -0.534,1.554 -1.358,1.629c-0.825,0.075 -1.555,-0.533 -1.63,-1.358c-0.179,-1.969 -0.803,-3.34 -1.634,-4.276c-0.704,-0.795 -1.539,-1.274 -2.304,-1.562c-0.173,-0.026 -0.338,-0.082 -0.488,-0.163Z" style="fill:#5589a7;"/></svg>