<?xml version="1.0" encoding="UTF-8" standalone="no"?><!DOCTYPE svg PUBLIC "-//W3C//DTD SVG 1.1//EN" "http://www.w3.org/Graphics/SVG/1.1/DTD/svg11.dtd"><svg width="100%" height="100%" viewBox="0 0 7467 3850" version="1.1" xmlns="http://www.w3.org/2000/svg" xmlns:xlink="http://www.w3.org/1999/xlink" xml:space="preserve" xmlns:serif="http://www.serif.com/" style="fill-rule:evenodd;clip-rule:evenodd;stroke-linejoin:round;stroke-miterlimit:2;"><g><path d="M4964.58,3845.42c-13.75,-1.667 -32.083,-6.25 -40.416,-9.584c-20,-8.75 -45,-30.416 -45,-39.583c-0,-9.583 20.833,-41.25 37.083,-56.25c15.417,-15 16.25,-20.417 2.5,-29.167c-21.667,-14.166 -16.667,-36.666 13.75,-66.25l16.667,-16.25l-20,-19.166c-46.667,-45.417 -34.584,-111.667 27.083,-143.75c22.917,-12.084 72.917,-12.5 93.75,-0.834c10.417,5.834 25.833,8.75 52.083,10.417c34.167,2.083 37.5,2.917 37.5,10.417c0,7.5 -3.333,8.333 -26.25,9.583l-25.833,1.25l6.25,12.083c16.25,31.25 11.667,67.917 -11.667,94.167c-21.666,25 -41.25,32.5 -84.583,32.917c-40.833,-0 -49.167,3.333 -56.25,22.5c-3.333,7.916 -2.5,12.083 3.333,17.916c6.25,6.25 18.75,7.917 77.084,11.25c77.5,4.167 88.75,7.5 106.666,34.167c19.584,28.333 3.334,69.583 -38.333,98.333c-32.5,22.5 -77.083,31.667 -125.417,25.834Zm105,-35c23.334,-7.084 51.25,-33.334 51.25,-48.334c0,-25.416 -14.583,-30.833 -93.75,-35c-29.583,-1.25 -60.833,-3.333 -69.166,-4.583c-14.167,-2.083 -15.834,-1.25 -28.334,17.5c-24.583,37.5 -12.916,60.417 35.834,72.083c25.416,6.25 81.25,5 104.166,-1.666Zm-32.916,-195.834c32.083,-27.083 25.833,-110.833 -10,-139.166c-16.667,-13.334 -43.75,-12.084 -60,2.916c-29.584,26.25 -27.084,99.584 4.166,131.25c13.334,13.334 18.334,15.417 34.584,15.417c14.166,0 22.083,-2.5 31.25,-10.417Z" style="fill-rule:nonzero;"/><path d="M3407.08,3722.92c-27.083,-10 -47.5,-29.584 -62.083,-59.584c-12.917,-25.833 -13.75,-30.416 -13.75,-69.583c0.417,-36.667 1.667,-44.583 12.5,-67.917c27.917,-61.666 95.417,-87.916 151.25,-59.583c29.167,15 50.833,47.917 50.833,77.5l0,14.583l-180.416,0l2.5,25c1.666,13.75 6.666,33.334 11.666,43.334c15.834,33.75 53.75,60.833 85,60.833c28.75,0 56.667,-19.167 71.25,-49.167c6.667,-13.333 7.917,-14.166 9.167,-6.25c2.083,15 -19.167,53.75 -39.583,72.084c-28.334,24.583 -63.334,31.25 -98.334,18.75Zm82.917,-196.667c-4.167,-32.5 -21.25,-50 -52.083,-54.167c-31.667,-4.166 -62.084,22.084 -69.584,60.834l-2.5,12.916l127.084,0l-2.917,-19.583Z" style="fill-rule:nonzero;"/><path d="M3931.67,3722.5c-17.084,-4.167 -26.25,-4.583 -29.167,-1.667c-9.167,9.167 -10.833,2.5 -10.833,-39.583c-0,-26.25 1.666,-43.75 4.166,-43.75c2.5,0 4.167,2.917 4.167,6.25c0,3.75 4.583,15.833 10.417,27.083c18.333,36.667 62.916,55.417 92.916,40c16.667,-8.333 21.667,-18.333 21.667,-40.416c0,-22.5 -14.167,-36.25 -65.417,-63.334c-20.833,-11.25 -44.166,-26.666 -51.666,-34.583c-13.334,-13.75 -14.167,-16.25 -14.167,-43.333c0,-31.667 6.667,-44.584 30.833,-61.25c20,-13.334 42.084,-15.834 76.25,-7.084c27.5,6.667 30,6.667 34.584,0c2.916,-3.75 6.25,-6.666 7.916,-6.666c1.25,-0 2.5,20 2.5,44.583c0,45.417 -2.916,50.417 -12.5,20.833c-7.083,-22.916 -27.083,-43.75 -46.25,-48.75c-49.583,-13.333 -85.416,26.667 -55.416,62.084c6.25,7.5 30.833,23.333 56.25,36.25c65.833,33.75 85.833,60.416 74.583,101.25c-5.833,22.5 -17.5,35.416 -42.5,47.916c-25,12.5 -49.583,13.75 -88.333,4.167Z" style="fill-rule:nonzero;"/><path d="M4189.17,3723.33c-9.167,-2.916 -25.417,-9.583 -36.25,-15l-19.167,-9.583l-1.25,-168.333c-1.25,-162.5 -1.667,-168.75 -9.583,-174.584c-5,-3.75 -12.5,-5 -19.584,-3.333c-24.166,5 -10,-5 27.5,-20c21.25,-8.75 40,-15.833 41.25,-15.833c1.667,-0 2.917,43.333 2.917,95.833c-0,52.917 0.833,95.833 2.083,95.833c0.834,0 10,-8.75 19.584,-19.166c40.833,-44.584 84.583,-45.834 125.833,-4.584c28.75,28.75 37.5,55.834 35,106.25c-2.5,44.584 -12.917,69.167 -42.917,99.167c-34.166,34.583 -81.25,47.083 -125.416,33.333Zm85,-23.333c6.666,-5 17.916,-18.75 24.583,-30.833c10.833,-20 11.667,-24.167 11.667,-69.167c-0,-44.583 -0.834,-49.167 -11.667,-67.5c-16.667,-28.333 -32.917,-38.75 -61.667,-38.75c-20,0 -25.833,2.083 -42.5,14.583l-19.166,14.584l-0.417,80l0,80l14.167,10.833c27.5,20.833 61.666,23.333 85,6.25Z" style="fill-rule:nonzero;"/><path d="M4467.08,3721.67c-17.916,-8.75 -29.166,-23.75 -33.75,-45c-2.083,-8.75 -4.166,-54.167 -4.166,-100c-0,-78.334 -0.417,-84.584 -8.75,-95c-6.25,-7.917 -12.5,-10.834 -22.917,-10.834c-7.917,0 -14.167,-1.666 -14.167,-4.166c0,-2.5 17.5,-4.167 43.75,-4.167l43.75,0l0,90.833c0.417,102.5 2.917,123.75 17.084,134.584c20.416,15.416 52.5,10.833 78.333,-11.667l17.083,-14.583l0,-87.084c0,-81.666 -0.416,-87.5 -8.333,-95.416c-4.583,-4.584 -13.75,-8.334 -20.833,-8.334c-6.667,0 -12.5,-1.666 -12.5,-4.166c-0,-2.5 17.5,-4.167 43.75,-4.167l43.75,0l-0,107.5c-0,92.5 0.833,108.75 6.666,117.083c5.834,7.917 9.584,9.167 20.834,7.5c7.916,-1.25 14.166,-0.833 14.166,0.834c0,3.333 -73.75,33.75 -82.5,33.75c-3.333,-0 -5,-8.334 -5,-27.5l0,-27.5l-23.75,22.083c-37.083,33.333 -62.916,40.833 -92.5,25.417Z" style="fill-rule:nonzero;"/><path d="M2400,3716.67c0,-2.084 2.917,-4.167 6.25,-4.167c15,0 30.417,-12.917 42.5,-36.25c7.083,-13.333 43.333,-95.417 80.417,-182.5c37.083,-87.083 69.166,-160 71.25,-162.083c2.083,-2.084 4.583,-2.917 6.25,-1.667c1.25,1.25 32.916,75.833 70.416,165.417c37.5,89.583 73.334,172.5 80,184.166c11.25,21.25 26.667,32.917 42.917,32.917c4.583,0 8.333,2.083 8.333,4.167c0,2.5 -27.916,4.166 -75,4.166c-47.083,0 -75,-1.666 -75,-4.166c0,-2.084 5.834,-4.167 12.5,-4.167c12.917,0 29.167,-12.5 29.167,-22.083c0,-7.917 -13.333,-45.834 -26.25,-74.584l-10.833,-24.166l-153.75,-0l-17.084,41.25c-9.166,22.916 -17.083,47.083 -17.083,54.166c0,14.584 12.917,25.417 30,25.417c6.667,0 11.667,2.083 11.667,4.167c-0,2.5 -22.084,4.166 -58.334,4.166c-36.25,0 -58.333,-1.666 -58.333,-4.166Zm254.167,-144.584c0.416,-7.916 -65,-158.75 -67.5,-156.25c-4.167,4.584 -65.834,148.75 -65.834,154.167c0,5.833 133.334,7.5 133.334,2.083Z" style="fill-rule:nonzero;"/><path d="M2825,3718.75c0,-0.833 7.5,-3.75 16.667,-6.25c9.166,-2.5 18.333,-8.333 20.833,-12.5c2.917,-5.417 4.167,-63.75 3.333,-173.333c-1.25,-158.75 -1.666,-165 -9.583,-170.834c-5,-3.75 -12.5,-5 -19.583,-3.333c-6.667,1.25 -11.667,0.833 -11.667,-1.25c0,-2.917 77.083,-35 84.583,-34.583c1.667,-0 2.917,43.333 2.917,96.25l0,96.25l22.917,-20.834c39.583,-36.25 74.166,-42.5 102.5,-18.75c23.75,20 25.833,31.25 28.333,135c2.5,100.417 4.167,107.917 23.75,107.917c5,0 10.833,2.083 12.083,4.167c1.667,2.916 -19.583,4.166 -61.25,3.75c-54.166,-0.417 -61.666,-1.25 -48.75,-5.417c30.417,-9.583 29.167,-5.417 27.917,-112.083l-1.25,-95.417l-11.667,-10c-20.416,-17.5 -52.083,-12.917 -79.583,10.833l-15,13.334l0,88.333c0,80.833 0.833,89.167 7.5,95.417c4.167,4.166 11.25,7.083 15.833,7.083c4.167,0 10.834,2.083 14.167,4.167c4.167,2.5 -15.417,4.166 -59.167,4.166c-36.25,0 -65.833,-0.833 -65.833,-2.083Z" style="fill-rule:nonzero;"/><path d="M3122.92,3716.67c1.25,-2.084 6.666,-4.167 12.083,-4.167c5.417,0 12.917,-3.75 17.5,-8.75c7.5,-8.333 7.917,-15.833 7.5,-105c-0.417,-93.75 -0.417,-96.25 -9.583,-103.333c-6.667,-5.417 -13.334,-7.084 -22.5,-5c-22.084,4.166 -8.334,-5 32.083,-21.25c20.833,-8.334 39.167,-15 40.833,-15c1.667,-0 3.334,13.75 3.75,30.416c0,29.584 0,30 7.084,19.584c27.5,-40.417 57.5,-57.5 77.916,-44.167c16.667,10.833 21.25,25 12.917,37.917c-8.333,12.5 -20.417,13.333 -39.583,1.666c-19.167,-11.666 -28.75,-8.75 -45,12.084l-13.75,18.333l-0,76.25c-0,42.083 1.666,81.25 4.166,87.083c2.084,6.25 8.334,12.5 13.334,14.584c31.666,12.083 30.833,12.5 -35.417,12.5c-42.917,0.416 -65,-0.834 -63.333,-3.75Z" style="fill-rule:nonzero;"/><path d="M3590.42,3714.17c12.916,-5 18.333,-9.584 21.666,-19.167c5.834,-16.667 5.834,-167.083 0,-187.5c-4.166,-15.833 -7.5,-17.5 -27.5,-15.833c-19.166,1.25 -8.333,-6.667 29.167,-22.084c20.833,-8.333 39.583,-15.416 41.667,-15.416c1.666,-0 2.916,12.083 2.916,27.083c0,15 1.25,27.083 2.917,27.083c1.25,0 12.083,-9.166 23.75,-20c47.917,-45.416 95,-43.75 120,4.584c8.333,16.25 9.167,25 10.833,109.166c1.667,99.167 4.167,110.417 23.75,110.417c5.417,0 11.25,2.083 12.5,4.167c1.667,2.916 -19.583,4.166 -61.25,3.75c-56.25,-0.417 -61.666,-1.25 -47.5,-5.417c26.667,-8.333 27.5,-10.833 27.5,-105.417c0,-108.75 -4.583,-122.083 -43.75,-122.083c-17.916,0 -37.083,9.167 -55,26.25l-13.75,12.917l0,77.916c0,93.75 3.75,107.5 27.917,107.917c5,0 10.417,2.083 11.667,4.167c1.666,2.916 -19.584,4.166 -61.25,3.75c-61.667,-0.417 -63.334,-0.417 -46.25,-6.25Z" style="fill-rule:nonzero;"/><path d="M4683.33,3718.75c0,-0.833 7.5,-3.75 16.667,-6.25c9.167,-2.5 18.333,-8.333 20.833,-12.917c6.667,-12.083 3.75,-197.5 -2.916,-204.166c-2.917,-2.917 -11.667,-5 -20,-4.584c-7.917,0.417 -14.584,-0.833 -14.584,-2.5c0,-2.5 74.167,-34.166 80.417,-34.166c1.667,-0 2.917,13.333 2.917,29.166c-0,16.25 1.25,29.167 3.333,29.167c1.667,-0.417 10,-10.417 18.333,-22.5c23.75,-34.167 53.75,-43.75 75.417,-24.583c8.75,8.333 9.167,27.5 0.417,36.25c-8.75,9.166 -23.334,8.333 -36.25,-1.667c-18.75,-15 -31.25,-10.833 -48.75,17.083l-13.334,20.417l1.667,76.667c1.25,74.583 1.667,77.083 11.25,87.5c5.833,5.833 14.583,10.833 19.583,10.833c5.417,0 10.834,2.083 12.084,4.167c1.666,2.916 -20,4.166 -62.084,4.166c-35.833,0 -65,-0.833 -65,-2.083Z" style="fill-rule:nonzero;"/><path d="M3770.83,3133.33c-12.083,-6.666 -29.166,-9.166 -87.5,-12.5c-97.083,-5.833 -115,-9.583 -132.083,-27.916c-7.5,-7.917 -13.75,-16.25 -13.75,-18.334c0,-2.083 -1.667,-3.75 -4.167,-3.75c-2.083,0 -4.166,10.834 -5,24.167c-0.833,18.75 -2.5,23.333 -7.5,22.083c-3.333,-0.833 -15.416,-4.166 -27.083,-7.5c-11.25,-3.333 -55.417,-7.5 -97.917,-10c-42.5,-2.5 -79.583,-5 -82.5,-5.833c-3.75,-1.667 -4.583,-7.5 -2.5,-22.5c2.5,-19.583 2.084,-20.833 -7.083,-22.917c-36.667,-6.666 -43.333,-9.166 -44.583,-16.25c-1.667,-8.333 60,-129.583 100.416,-196.666c15,-25 38.334,-60.417 51.667,-77.917c30.417,-40 60.417,-95.833 58.75,-108.333c-3.333,-23.334 -44.167,-5.834 -78.75,33.333c-24.167,27.917 -103.75,162.917 -150.833,257.083c-22.084,44.167 -29.167,51.667 -66.667,68.334c-22.917,10.416 -29.167,15.416 -34.167,27.083c-3.333,7.5 -9.166,15.417 -13.333,17.083c-4.167,1.667 -39.583,4.584 -78.75,6.25c-39.167,2.084 -82.917,5.834 -97.083,8.75c-25.417,5.417 -26.667,5.417 -46.667,-5.833c-16.667,-9.583 -25.833,-11.667 -52.5,-12.5c-28.75,-0.833 -32.5,-1.667 -33.75,-9.167c-3.75,-17.916 -7.5,-19.166 -60.833,-16.25c-35.834,1.667 -54.167,1.25 -62.917,-2.5c-6.667,-2.916 -34.167,-6.666 -60.833,-7.916c-49.167,-2.917 -63.75,-7.5 -59.167,-19.584c1.25,-3.333 7.917,-7.5 15,-9.166c7.083,-1.667 13.333,-5.417 14.583,-8.334c2.5,-7.5 -25.416,-6.25 -65,3.334c-36.666,8.75 -63.333,10.833 -63.333,4.583c-0,-3.75 31.667,-33.75 54.167,-51.25c14.166,-10.833 14.166,-11.25 4.166,-11.667c-5.833,0 -26.25,2.917 -45.416,6.25c-55,9.584 -117.084,15 -124.584,10.834c-5.833,-3.334 -5,-5.417 6.667,-15.417c7.5,-6.667 13.333,-13.333 13.333,-15c0,-6.667 -91.666,-2.083 -147.083,7.083c-9.167,1.667 -4.583,-3.75 25,-30c20.417,-17.083 37.083,-32.916 37.917,-34.583c0.416,-1.25 -29.584,-1.667 -67.084,-0.833c-47.5,1.25 -72.916,0.416 -83.75,-3.334c-19.583,-6.25 -18.333,-15.416 2.917,-27.083c8.333,-5 14.167,-10 12.917,-11.667c-1.25,-1.25 -25.417,-1.25 -53.334,0l-50.833,2.5l-11.25,-18.75c-12.917,-22.5 -41.667,-49.583 -65,-61.25c-11.667,-6.25 -24.583,-8.75 -42.083,-8.75c-22.5,0 -25.417,-0.833 -23.334,-7.083c14.167,-47.083 11.25,-68.75 -12.916,-87.083c-16.667,-12.5 -36.25,-50.417 -42.917,-82.917c-7.083,-32.917 -10,-201.25 -4.583,-272.917c4.583,-67.5 7.5,-83.333 22.083,-120c15.417,-40 67.917,-77.5 136.667,-98.75c45.833,-14.166 148.333,-48.75 157.083,-52.916c5.417,-2.5 14.167,-14.167 20,-25.834c12.5,-25.416 13.75,-57.916 3.75,-120.416c-7.083,-45.834 -4.167,-99.584 9.167,-165.417c8.333,-39.583 15.416,-53.333 30,-56.667c31.25,-6.666 30.416,-4.583 13.333,-43.333c-6.667,-15.833 -12.5,-32.917 -12.5,-38.75c-0,-5.833 7.917,-29.583 17.5,-53.333l17.5,-43.334l2.5,-104.166c1.667,-62.084 4.583,-108.75 7.5,-115.417c2.5,-6.25 9.167,-14.167 15,-17.917c11.667,-7.916 20,-5 42.917,14.584l12.916,11.666l-12.5,17.917c-31.25,46.25 -35.416,69.167 -15.833,83.75c15.833,11.667 71.667,17.083 141.667,14.167c105.833,-4.584 172.916,-13.334 185,-23.75c2.083,-1.667 -5,-13.334 -15.834,-25.834l-19.166,-22.5l22.083,-5c12.083,-2.5 27.917,-8.333 35.417,-12.916c11.666,-7.084 12.916,-9.584 9.166,-16.667c-2.5,-4.583 -14.583,-15.833 -27.083,-25c-48.75,-35.833 -44.167,-64.583 12.917,-81.25c12.5,-3.333 22.5,-7.083 22.5,-7.917c-0,-0.833 -14.584,-10.833 -32.084,-21.666c-17.916,-11.25 -41.25,-28.334 -52.083,-38.334c-19.167,-17.916 -20,-19.583 -20,-42.083c0,-23.75 -5.833,-36.667 -27.917,-66.25l-9.583,-12.5l22.083,-15c23.75,-16.25 52.084,-27.5 69.167,-27.5c15.417,0 27.917,-10 30.833,-24.583c3.75,-18.334 44.167,-60.417 51.25,-53.334c0.834,0.834 -2.916,10 -8.333,20c-5.833,10 -15.833,37.917 -22.917,61.25c-12.5,44.167 -16.666,52.917 -20,43.334c-5.833,-16.25 -47.916,-22.917 -63.75,-10c-12.083,9.583 -8.333,24.583 7.084,28.333c10.416,2.917 10.416,2.917 7.916,35.417c-2.916,31.25 -2.5,33.333 7.5,43.333c5.834,5.833 14.167,10.417 18.75,10.417c11.667,-0 31.25,-17.917 44.167,-40.834c15.417,-26.666 35,-46.666 45.833,-46.666c17.5,-0 68.334,45.416 75,66.666c1.667,5 0.417,14.584 -2.083,20.834c-6.667,16.25 2.917,32.916 32.917,57.5c35.833,29.166 44.166,19.166 22.916,-27.917c-15,-33.75 -13.75,-39.583 11.25,-50l21.25,-8.75l-42.083,-44.583l-41.667,-45l19.584,-2.084c28.333,-2.916 54.583,-20 73.75,-47.916l16.25,-23.75l8.333,28.333c6.667,23.333 12.083,31.667 28.75,47.083c22.083,20.834 62.917,79.167 82.5,117.5c10.833,21.667 11.25,24.584 5.417,30.417c-12.5,12.917 -36.25,5.833 -40.834,-11.667c-3.333,-13.333 -17.916,-18.333 -26.666,-9.166c-4.584,4.583 -7.5,16.666 -8.334,36.25l-1.666,29.583l32.5,-2.5c18.333,-1.667 76.25,-4.583 128.75,-6.667c52.916,-2.5 104.583,-5.416 115,-6.666l19.583,-2.5l2.917,-22.5c1.25,-12.084 4.166,-23.334 6.25,-24.584c1.666,-1.25 15.416,3.334 30,10.417c30.416,14.583 40.833,15.417 50.416,5c9.584,-10.833 8.75,-18.75 -3.333,-33.333l-10.417,-12.084l15.834,-2.916c8.333,-1.25 23.333,-2.5 33.333,-2.5c21.25,-0 41.667,-7.917 52.5,-20.417c9.583,-10.417 17.5,-11.25 20.833,-2.083c1.25,3.75 4.584,24.583 7.084,46.666c7.916,72.917 16.666,89.167 35.416,65l10,-12.083l24.167,24.167c12.917,12.916 26.25,23.75 29.167,23.75c17.083,-0 5.416,-29.584 -35.834,-92.5c-30,-45 -46.666,-74.584 -46.666,-82.084c-0,-2.083 5.833,-9.583 12.5,-16.25c12.916,-13.333 15.833,-28.333 8.333,-42.916c-2.5,-4.167 -7.083,-7.917 -10.417,-7.917c-3.333,0 -9.166,-4.583 -12.916,-10.417c-5.417,-8.75 -6.25,-12.916 -2.5,-20.833c4.166,-9.167 6.666,-10 22.5,-7.917c24.583,3.334 38.75,-7.916 47.083,-37.5c7.917,-27.5 22.917,-37.083 33.333,-22.083c3.334,5 6.25,13.75 6.25,20c0,17.083 -20.833,51.667 -41.666,68.75l-18.75,15.417l20.833,-2.917c11.667,-1.25 34.583,-3.75 50.833,-5l30.417,-2.917l5.833,14.167c6.667,15.833 20.417,30 49.167,48.75c22.083,15 33.333,31.25 45,65.833c18.333,52.917 38.333,67.917 104.583,78.75c41.667,6.667 147.084,9.167 167.5,4.167c16.667,-4.167 14.167,-15.417 -9.583,-41.667c-11.25,-12.5 -21.667,-27.916 -23.333,-34.166c-5.417,-25.834 -12.084,-42.084 -27.084,-71.25c-19.583,-37.084 -21.25,-58.75 -6.25,-73.75c5.417,-5.417 15.417,-11.25 22.084,-12.5c21.25,-4.584 38.333,-15.417 55.833,-36.667c17.917,-21.25 37.083,-32.083 56.25,-32.083c10.417,-0 10.417,0.416 -8.333,21.25c-37.084,41.25 -34.584,75.833 7.5,95.833c15.833,7.5 25.416,21.25 35.833,50.417c13.333,37.916 17.5,89.583 10.417,129.583c-3.334,18.75 -5,34.583 -4.167,35.417c3.333,3.75 19.167,-34.167 25.417,-60.417c8.333,-35.417 9.166,-95.417 2.083,-112.5c-2.917,-7.083 -9.167,-14.167 -14.167,-15.417c-8.75,-2.083 -8.333,-3.333 6.667,-17.083c18.75,-17.083 31.667,-44.167 32.083,-65.417c0,-8.75 2.5,-17.5 5.417,-20c2.5,-2.083 9.167,-7.5 14.583,-11.666c5.834,-4.167 10.417,-13.75 12.5,-25l2.917,-17.917l33.75,21.25c40,24.583 67.917,53.75 87.083,91.25l13.334,27.083l-15,31.25c-13.75,29.167 -15,34.584 -15,69.167c-0,20.833 1.25,43.333 2.916,50.833l2.917,13.334l-30.833,6.666c-20,4.584 -43.75,6.667 -65.834,5.834l-34.166,-1.667l-1.25,11.667c-2.084,18.333 20.833,37.083 62.5,51.25c25.416,8.333 37.916,15 49.583,27.083c12.917,13.333 18.75,16.25 31.667,16.25c25,0.417 45.833,6.667 59.583,17.917c7.083,6.25 19.583,12.083 28.333,13.333c8.334,1.25 21.667,3.333 29.167,4.583c31.667,5 62.5,52.084 57.5,88.75c-3.75,30 -19.583,70.417 -33.75,86.667c-10.833,12.5 -15,14.583 -23.75,12.5c-15.833,-4.167 -16.667,-12.917 -3.333,-30c13.75,-17.5 19.166,-46.667 15.416,-85.833c-2.5,-29.584 -11.666,-45.417 -25.416,-45.417c-16.667,0 -20.417,9.167 -17.084,43.333c4.584,50.834 -10,47.084 -37.916,-10c-17.5,-35.833 -32.917,-58.333 -40.834,-58.333c-8.75,0 -18.75,13.75 -22.5,31.667l-3.75,16.25l-7.083,-16.667c-21.25,-49.167 -37.917,-81.25 -42.083,-81.25c-7.084,0 -17.5,26.667 -23.334,60.833c-6.25,35 -2.5,76.25 10,110.834l9.584,26.25l43.333,-1.25c24.167,-0.417 47.917,-2.084 53.333,-2.917l9.584,-2.5l-11.667,22.083c-10.833,20.834 -11.667,25 -11.667,77.084c0,49.166 0.834,55.833 8.75,66.666c5.417,7.084 12.5,11.667 18.75,11.667l10,0l-1.25,-52.917c-1.25,-50.833 1.667,-70 11.667,-70c2.083,0 5,4.584 6.667,10c2.916,12.5 17.5,19.167 42.916,19.167l19.584,0l9.583,82.5c15,135.417 27.083,170.417 34.583,99.583c1.667,-16.666 2.917,-56.25 2.917,-88.333c0.833,-105 7.917,-141.667 43.75,-221.667c8.333,-18.75 16.25,-43.333 17.917,-54.583c1.666,-16.25 4.166,-21.667 11.25,-24.167c4.583,-1.666 53.75,-3.75 109.166,-4.583l100.417,-2.083l13.75,-75.417c13.75,-75.833 26.25,-125.417 34.583,-135.417c8.75,-10.833 11.25,5 10.834,66.25c-0.834,51.667 0.416,62.084 6.666,72.084c5.834,8.75 7.084,16.666 5,39.166c-2.916,37.917 2.917,50.417 44.584,90.834c41.25,40.416 75,89.166 84.166,121.666c6.25,20.417 6.25,27.084 2.084,46.667c-11.667,51.25 -12.917,65 -8.75,105c6.25,57.917 22.5,119.167 41.666,158.333c9.167,18.75 16.667,37.917 16.667,42.084c-0,37.5 117.083,300.833 133.75,300.833c4.167,0 6.25,-7.917 7.917,-27.083c2.5,-31.667 1.25,-31.25 54.166,-19.584c17.5,3.75 66.25,8.75 108.334,11.25c82.083,4.584 125.416,10 151.666,19.167c19.584,7.083 85,59.167 115.834,92.5c39.166,42.5 59.166,97.083 72.083,197.917c7.5,57.916 7.917,84.583 2.083,132.083c-5.416,41.667 -17.916,70.417 -34.583,78.333c-11.667,5.834 -12.083,6.25 -9.167,30c2.084,19.167 1.25,27.917 -5.416,42.917c-10.417,23.333 -27.084,35.417 -60.834,42.083c-31.666,6.667 -35.833,8.75 -35.833,18.75c0,10 8.333,17.084 20,17.084c23.75,-0 34.583,17.5 15,25c-23.333,9.166 -68.333,-0 -90.833,-17.917l-12.084,-9.583l19.584,-11.667c32.083,-18.75 73.333,-82.5 73.333,-113.75c-0,-8.333 9.167,-32.083 22.5,-58.333c31.25,-61.25 45,-109.584 45.833,-157.5c0.417,-33.75 -0.833,-40 -12.5,-65c-14.583,-30.417 -39.166,-57.917 -51.666,-57.917c-10.417,0 -10.417,-6.667 -0.417,-57.083c4.167,-21.25 5.833,-38.75 4.167,-38.75c-1.667,-0 -12.084,11.25 -22.917,25c-10.833,13.75 -20,25 -20.417,25c-0.416,-0 -7.916,-22.5 -16.666,-50c-17.5,-54.584 -22.5,-57.5 -22.917,-12.5c0,40.833 -15.833,64.583 -24.167,36.666c-2.5,-7.5 -5.416,-25.833 -6.666,-40.833c-2.5,-35 -8.334,-50 -18.75,-50c-10.834,0 -22.5,17.5 -32.084,46.667c-3.75,13.333 -7.916,23.333 -8.75,22.5c-1.25,-0.834 -4.583,-12.5 -8.333,-26.25c-7.5,-30 -20.417,-51.25 -30.417,-51.25c-8.75,-0 -16.666,11.666 -16.666,23.75c-0,15 -8.75,38.75 -14.167,38.75c-9.583,-0 -15.417,-11.25 -17.917,-35c-1.25,-12.917 -3.75,-23.334 -5,-23.334c-1.666,0 -7.083,9.584 -11.666,20.834c-13.334,31.666 -26.667,25.833 -41.25,-18.75c-3.75,-11.25 -7.5,-21.667 -8.334,-22.5c-1.666,-1.667 -64.166,37.083 -64.166,40c-0,1.25 18.333,38.333 41.25,82.083l40.833,79.583l-26.667,83.334l-2.916,-21.667c-3.334,-22.917 -13.75,-36.25 -24.584,-32.083c-13.75,5 -27.5,52.083 -34.583,118.333l-3.333,31.25l-2.917,-31.667c-3.75,-45.416 -10,-62.083 -22.917,-62.083c-23.333,0 -70,43.333 -87.5,80.833c-9.166,19.584 -10,26.667 -10,84.584c0,67.083 -4.166,89.166 -14.166,80.416c-7.917,-6.25 -14.167,-35.833 -17.084,-80c-1.25,-18.75 -3.333,-42.5 -4.583,-52.083l-2.083,-17.917l-98.75,0l-4.167,20c-11.667,53.334 -14.167,77.5 -12.5,119.167c0.833,30 -0.417,45.833 -3.333,47.083c-8.75,2.917 -15,-22.5 -18.334,-74.166c-3.75,-63.334 -7.083,-71.25 -28.333,-69.584c-22.917,1.667 -26.25,15.417 -23.333,91.25c2.916,65.417 -0.417,77.5 -13.334,50.417c-5.416,-11.667 -7.916,-30 -10,-73.75c-2.5,-59.583 -4.583,-68.75 -14.583,-68.75c-9.167,0 -26.667,24.167 -29.167,40.833c-1.666,8.334 -4.166,22.084 -6.25,30c-2.5,11.667 -3.333,12.5 -3.75,4.167c-0.416,-5.833 -1.666,-14.583 -2.916,-19.167c-2.5,-8.75 -2.917,-8.75 -27.917,-3.333c-39.167,8.75 -81.667,26.667 -88.333,36.667c-9.584,14.583 -18.75,57.916 -22.084,103.333l-2.916,42.917l-12.917,-62.5l-12.5,-62.5l-20.833,0.833c-11.25,0.417 -66.25,4.583 -122.5,9.167c-56.25,4.583 -134.584,10.416 -174.584,12.916c-43.75,2.917 -85.416,8.334 -104.166,12.917c-17.5,4.583 -52.084,10 -77.5,12.5c-157.084,13.75 -170,16.667 -194.167,40.833c-14.583,14.584 -24.583,37.5 -24.583,57.084c-0,20 -19.167,22.083 -29.167,3.333c-8.333,-15 -14.167,-10 -17.083,14.167c-2.917,23.333 -13.75,44.166 -21.667,41.25c-2.5,-0.834 -5.833,-7.5 -7.5,-14.584c-2.917,-15.416 -10.833,-25.833 -18.333,-25.833c-7.5,0 -17.917,29.583 -22.5,65.417c-3.75,30 -11.667,52.083 -18.75,52.916c-7.084,0.834 -22.5,-35.416 -33.334,-76.25c-5.833,-21.25 -11.666,-40 -12.916,-41.25c-1.25,-1.25 -29.167,-0.416 -62.5,2.5c-70.834,5.417 -85.417,10.834 -85.417,31.25c-0,7.084 -1.667,15.834 -3.333,18.75c-4.584,7.084 -27.917,13.334 -50,13.334c-10,-0 -23.334,2.916 -30,6.25l-12.5,6.666l-0,45c-0,50.417 1.25,53.75 27.916,57.084c35,5 50.417,17.916 29.584,25c-5.417,2.083 -32.5,2.916 -60.834,2.5c-57.5,-1.25 -82.5,3.333 -86.25,15.833c-1.25,4.583 -1.666,10 0,12.5c5.417,8.75 39.167,12.917 112.084,13.333c70.416,0.417 78.333,-0.416 95,-8.75c10.416,-5 21.25,-13.333 24.166,-19.166c6.667,-12.5 23.75,-24.167 31.25,-21.25c2.917,0.833 6.667,8.333 8.334,15.833c1.666,7.5 5.833,17.083 9.166,20.833c13.334,15 67.084,14.167 70.834,-1.25c2.083,-6.666 7.083,-8.75 22.083,-8.75c1.25,0 19.167,1.25 39.583,2.5l37.5,2.917l-16.666,-13.75c-9.167,-7.5 -22.084,-18.75 -29.167,-25l-12.5,-11.667l30.833,10.417c17.084,5.833 39.167,15 49.167,21.25c24.583,14.167 59.583,16.667 134.583,8.333c33.334,-3.75 101.667,-10.416 152.084,-15c50.416,-5 109.583,-12.5 131.25,-16.666c50,-10 65,-11.667 154.166,-16.667c133.334,-7.917 197.917,-16.25 325,-41.667c136.667,-27.083 261.25,-42.916 390,-49.166c69.584,-3.334 80.834,-6.25 80.834,-21.667c-0,-12.5 18.75,-23.75 43.75,-26.667c12.916,-1.25 35,-7.083 48.75,-12.916c34.583,-14.167 78.75,-22.5 132.083,-25.834c55.833,-2.916 90.833,2.917 123.333,21.667l24.584,13.75l-75,-0.833c-60.417,-0.417 -74.584,0.833 -74.584,5.416c0,6.25 11.667,11.25 77.5,31.25c26.667,8.334 52.917,18.75 58.334,22.917l10,7.917l-11.667,2.916c-7.5,2.084 -22.5,0 -41.667,-5.416c-16.666,-5 -42.083,-10.834 -57.083,-12.917c-38.333,-6.25 -144.583,-12.917 -193.75,-12.5l-41.667,0.417l66.667,21.666c73.333,24.167 103.333,37.917 100.833,45.417c-0.833,3.333 -10,5 -24.166,4.583c-17.084,-0.416 -32.084,-5 -62.084,-18.75c-37.5,-17.083 -42.083,-17.916 -84.583,-19.583c-58.333,-2.083 -140.417,9.167 -140.417,19.583c0,1.667 8.75,7.5 20,12.5c10.834,5 23.334,12.5 28.334,16.667c8.333,6.667 20.833,25.417 16.666,25.417c-0.833,-0 -21.25,-7.5 -45,-16.667c-60.833,-23.75 -99.166,-30.833 -147.5,-27.083c-21.666,1.666 -38.333,4.166 -37.083,6.25c0.833,1.666 29.167,12.916 62.5,25c33.333,12.083 60.417,23.75 60.417,25.416c-0,11.667 -90,-2.5 -131.667,-20.416c-39.583,-17.084 -70.833,-22.917 -124.583,-22.5c-54.167,0.416 -78.334,6.666 -80.417,20.833c-1.667,11.25 9.583,25.833 20,25.833c3.75,0 16.25,-5 27.5,-11.25c17.917,-10 24.583,-11.666 55.833,-11.25c38.75,0.417 76.667,9.584 92.084,22.084c9.166,7.5 9.583,8.333 2.5,11.25c-4.167,1.666 -24.167,-1.25 -44.167,-6.25c-36.667,-8.75 -69.583,-11.25 -77.917,-5.417c-2.5,1.667 -5.833,7.083 -7.5,12.083c-6.666,21.25 -63.75,22.917 -102.5,3.334c-43.333,-22.084 -87.5,-27.084 -87.5,-10c0,9.166 22.084,16.25 50.834,16.25c22.5,-0 27.083,4.166 15.833,14.583c-9.583,8.75 -25,7.083 -59.583,-6.25l-24.167,-9.583l-12.083,8.75c-16.667,12.5 -24.167,11.666 -60,-6.25l-31.25,-15.417l-18.75,20c-20.834,22.5 -20.834,22.5 -61.667,2.083c-13.333,-6.666 -25,-12.083 -26.25,-12.083c-1.25,0 -2.083,7.917 -2.083,17.917c-0,10 -2.5,21.25 -5,25c-5,6.666 -6.25,6.666 -17.917,0.416c-6.667,-3.333 -17.5,-11.25 -23.75,-17.083c-12.5,-11.667 -20,-10 -20,5.417c0,12.916 -3.333,12.5 -33.75,-2.917c-14.167,-7.083 -26.25,-11.667 -27.083,-10.833c-0.834,0.833 0.833,9.166 4.166,18.333c7.917,22.5 3.334,28.333 -20.416,27.917c-16.25,-0.417 -21.25,-2.5 -32.917,-15.417c-13.75,-15 -15,-15.417 -44.167,-15.417l-30,0l19.167,22.5c10.417,12.5 19.167,23.75 19.167,25.417c-0,5 -40,-1.25 -53.75,-7.917c-6.667,-3.75 -13.334,-10.416 -15,-15c-3.75,-11.666 -11.25,-10.416 -25.417,4.584c-10.833,11.25 -14.167,12.5 -29.583,10.416c-15,-2.083 -17.917,-0.833 -24.167,8.334c-6.25,10 -7.917,10.416 -49.167,9.166c-40.416,-1.25 -42.5,-0.833 -46.666,8.334c-3.334,7.5 -6.25,8.75 -17.084,6.666c-11.666,-2.083 -13.333,-1.25 -15.833,9.167l-2.917,11.667l-10.416,-13.334c-5.834,-7.5 -12.084,-13.333 -13.75,-13.333c-1.667,0 -4.584,6.25 -6.667,13.75c-5,16.25 -15,18.333 -35.417,7.083Zm87.5,-62.5c0,-5.416 -2.916,-8.333 -8.333,-8.333c-5.417,-0 -8.333,2.917 -8.333,8.333c-0,5.417 2.916,8.334 8.333,8.334c5.417,-0 8.333,-2.917 8.333,-8.334Zm-1104.17,-83.333c19.583,-17.5 24.166,-17.917 67.916,-10.833c70.834,12.083 146.25,19.166 202.917,19.166c50.417,0 58.333,-1.25 77.917,-10c16.666,-7.916 21.666,-12.916 23.75,-22.083c1.666,-6.667 17.5,-38.75 35.833,-71.667c37.083,-68.333 50.833,-106.25 62.5,-176.666c12.917,-76.667 10.417,-136.25 -5.833,-136.25c-14.167,-0 -17.084,12.5 -16.25,70l0.416,55.833l-12.916,-2.5c-32.084,-5.417 -182.084,-20.417 -184.167,-18.333c-1.25,1.25 -0.417,7.083 2.083,13.333c6.25,17.083 4.584,47.917 -3.75,69.167l-7.5,18.75l-2.083,-39.584c-2.083,-50.833 -8.75,-62.5 -43.333,-79.583c-15.417,-7.917 -30.417,-12.083 -37.5,-11.25l-12.084,1.25l1.25,32.5c0.834,21.667 -0.833,40 -5.833,56.25l-7.083,23.75l-7.084,-37.5c-10.416,-54.583 -17.5,-67.917 -40.833,-75c-13.333,-3.75 -30,7.5 -30,20.833c0,5.417 -1.667,10.834 -3.333,12.084c-2.084,1.25 -6.667,-15 -10.417,-35.834c-3.75,-20.833 -7.5,-38.333 -8.333,-39.166c-1.667,-1.667 -69.167,-10 -80.834,-10c-9.166,-0 -9.583,1.666 -9.583,28.333c0,27.5 -5,57.083 -10.417,62.5c-1.666,1.667 -5.416,-0.417 -8.333,-4.583c-5.833,-7.917 -7.917,-18.75 -12.5,-62.084c-1.667,-13.75 -5.833,-27.916 -10.417,-33.333c-7.083,-8.75 -8.333,-9.167 -15,-2.5c-4.166,4.167 -7.916,17.083 -9.583,33.333c-3.333,31.667 -7.083,39.167 -15.417,32.084c-9.583,-7.917 -7.083,-37.917 4.584,-55.417c17.5,-25.417 17.5,-33.333 0.416,-43.75c-15.833,-10 -82.916,-33.75 -95,-33.75c-5.833,-0 -7.5,3.333 -7.5,17.917c-0.416,28.75 -6.666,52.916 -16.666,63.75c-8.75,8.75 -13.334,10 -39.167,10c-50.417,-0 -69.167,-14.167 -75,-55.834c-2.5,-17.5 -12.5,-31.666 -22.917,-31.666c-3.75,-0 -10,5.833 -13.75,12.5c-5.833,10.416 -9.583,12.5 -22.916,12.5c-20.834,-0 -32.5,-8.334 -45,-32.917c-12.084,-23.75 -20,-27.083 -52.917,-20.833c-28.333,5.833 -42.917,2.916 -50.833,-10c-8.75,-13.334 -14.584,-63.334 -19.584,-167.5c-5.416,-105 -2.916,-180.417 6.667,-216.667c3.75,-13.75 6.25,-31.25 5.417,-39.583c-1.25,-12.917 -2.917,-14.584 -13.75,-15.834c-17.084,-1.25 -37.084,12.084 -51.25,34.584l-12.084,19.166l-10.833,-16.666c-11.667,-17.917 -23.75,-22.5 -23.75,-9.584c0,12.084 -8.75,17.5 -27.5,17.5c-18.333,0 -30.833,10 -30.833,25c-0,3.75 -3.75,10.834 -8.334,15.834c-11.666,12.5 -22.916,6.25 -29.583,-15.834c-9.167,-30.416 -13.75,-20 -17.917,40.417c-2.5,36.667 -8.333,48.333 -35,70.833c-15.833,13.334 -21.666,21.667 -25.416,36.25c-6.25,25.834 -5.834,66.25 2.083,118.75c19.167,131.667 48.333,215.417 90.833,262.084c38.334,41.666 127.917,94.166 251.25,147.083c57.5,24.583 77.917,30.833 197.084,62.083c95.833,25 144.166,40.834 210.416,70c20.834,9.167 44.167,17.917 52.084,19.167c30.833,6.25 30.416,5.833 27.916,25c-4.166,29.583 10.834,36.25 34.584,15Zm432.5,-13.75c10.416,-12.5 80,-174.167 80,-186.25c-0,-19.167 -35.834,33.333 -73.75,107.5c-24.584,47.5 -31.667,72.917 -23.334,81.25c4.167,4.583 12.5,3.333 17.084,-2.5Zm285,-155.833c15.416,-16.667 28.333,-39.167 28.333,-50c0,-5.417 -3.75,-11.25 -9.167,-14.167c-7.916,-4.167 -10.416,-3.333 -20.416,7.917c-17.5,19.583 -27.917,67.5 -15,67.5c2.916,-0 10.416,-5 16.25,-11.25Zm152.916,-36.667c46.667,-9.583 54.584,-17.917 46.25,-46.667c-2.5,-8.75 -6.25,-68.333 -8.333,-132.5c-2.5,-86.666 -5,-122.083 -10,-137.5c-10,-32.083 -22.083,-122.5 -31.667,-241.666c-4.583,-59.584 -10.416,-122.084 -12.5,-138.75c-4.583,-32.917 -16.25,-60.417 -29.166,-68.334c-10.417,-6.666 -10.417,-10 -0,-12.916c14.583,-3.75 17.916,-22.084 18.333,-92.5c0,-84.167 -2.917,-96.25 -30.417,-113.75c-10.833,-7.084 -49.166,-41.667 -84.166,-76.667c-75.417,-74.167 -91.25,-86.667 -110.834,-86.667c-18.75,0 -31.666,14.167 -50,54.167c-35,75.417 -45.833,95.417 -70,131.25c-40.416,58.75 -40.833,60 -35.833,95c6.667,47.917 8.333,70 19.167,257.083c19.166,324.584 33.333,468.334 48.333,477.5c9.167,5.417 50.417,-27.083 86.25,-67.916l20.833,-24.167l-10,-64.583c-5.416,-35.417 -10,-67.5 -10,-71.25c0,-4.584 7.5,-8.75 24.167,-13.75c44.583,-12.5 89.167,-7.084 105,12.916c18.75,24.167 29.583,93.75 39.167,257.084c6.666,112.083 6.25,110.833 38.333,110.833c10,0 30.833,-2.917 47.083,-6.25Zm100.417,-40c0,-20.833 -31.25,-46.667 -39.583,-32.5c-7.917,12.5 13.333,45.417 29.583,45.417c8.333,-0 10,-2.084 10,-12.917Zm-418.333,-2.917c13.333,-10.833 46.666,-53.333 55.833,-71.666c16.25,-31.667 8.75,-33.334 -21.667,-5c-23.75,21.666 -53.333,64.583 -53.333,76.666c0,9.584 7.917,9.584 19.167,0Zm444.166,-44.583c-2.083,-13.75 -23.75,-45.833 -31.666,-47.083c-7.084,-1.667 -7.5,0.416 -5.417,13.333c3.75,22.917 18.75,45 29.583,43.333c6.25,-0.833 8.334,-3.75 7.5,-9.583Zm43.334,-35.833c-18.334,-35.417 -41.25,-67.5 -65.834,-92.084c-24.166,-24.166 -32.5,-28.75 -32.5,-18.75c0,7.917 60.834,96.667 84.584,122.5c25.416,27.5 31.25,22.084 13.75,-11.666Zm1820,27.083c12.916,-12.917 5.416,-30.833 -12.917,-30.833c-6.667,-0 -11.25,3.75 -14.583,10.833c-4.584,9.583 -4.167,12.083 4.583,18.75c11.667,9.583 14.583,9.583 22.917,1.25Zm-1565.42,-62.917c-2.917,-41.666 -8.75,-64.583 -18.333,-74.166c-14.167,-14.584 -25.834,5 -32.084,54.583l-4.166,34.167l-17.084,-52.917c-16.666,-51.25 -17.5,-52.083 -20,-35.833c-1.666,9.166 -2.916,37.916 -2.916,63.75l-0,46.666l97.083,0l-2.5,-36.25Zm73.333,30.417c7.5,-2.917 22.917,-15.417 35,-27.917l21.667,-22.083l10.417,10.417c5.833,5.833 18.333,12.916 27.5,15.833c16.666,5 83.75,13.75 86.25,11.667c0.416,-0.834 -3.334,-12.917 -8.75,-26.667l-9.584,-25l46.25,9.583c25.417,5.417 47.5,9.584 49.584,10c1.666,0 2.916,-13.75 2.916,-30l0.417,-30.416l7.083,12.916c15.417,27.5 38.75,47.5 55.417,47.5c9.583,0 12.5,-8.75 16.25,-55c3.75,-39.166 8.75,-57.5 16.25,-57.5c6.25,0 9.583,13.334 13.333,56.25c4.167,50 9.584,64.584 22.5,64.584c20.417,-0 46.25,-34.167 36.25,-47.084c-10,-12.916 -14.166,-40.416 -17.5,-115.416c-4.583,-91.25 -10.416,-121.25 -30,-148.75c-10,-13.75 -12.916,-22.084 -12.5,-33.334c0.834,-10.416 -2.083,-20 -9.583,-30.833c-16.667,-25.417 -13.75,-30.417 9.167,-16.25c30,18.333 55.416,100.417 69.583,227.083c16.25,140.417 17.083,143.75 38.333,136.667c17.5,-5.833 22.5,-19.167 22.5,-59.583c0,-73.334 -17.5,-172.917 -48.333,-275.417c-19.167,-64.167 -27.083,-102.917 -19.583,-98.333c2.5,1.666 12.083,18.75 21.666,37.916c19.167,39.167 32.5,52.5 51.667,52.5l12.5,0l-2.5,-27.916c-4.167,-52.084 -32.083,-122.917 -52.083,-132.917c-16.667,-8.333 -24.584,-18.333 -33.75,-42.917c-4.584,-13.333 -12.5,-27.5 -17.5,-32.083c-10.834,-10 -36.25,-10 -50.834,-0.417c-9.583,6.25 -11.25,10.417 -11.25,25.834c0,10 3.75,27.916 8.334,39.583c12.083,31.25 11.25,35.833 -9.167,42.917c-25,8.75 -73.75,20.416 -88.75,20.833c-11.667,0.833 -12.5,-0 -15.417,-21.667c-5,-34.166 -15,-42.083 -31.25,-24.166c-16.25,17.916 -23.333,56.25 -13.333,74.583c5.417,10 2.917,13.333 -8.333,9.583c-13.75,-4.166 -23.75,-26.666 -31.25,-68.75c-4.167,-21.666 -10,-45.416 -13.334,-52.5c-11.666,-24.583 -40.416,-29.166 -45.833,-7.083c-1.667,5.833 -0.417,32.5 2.5,59.583c5.417,50.834 3.75,70.834 -5.833,70.834c-7.917,-0 -13.75,-17.917 -17.084,-50c-3.333,-35 -10.416,-45.834 -29.166,-45.834c-20.834,0 -24.584,11.25 -16.667,55.417c3.333,18.75 6.25,36.25 6.25,38.75c0,5.833 -72.083,43.333 -82.917,43.333c-11.666,0 -15.416,-7.5 -23.333,-43.333c-8.333,-37.083 -21.25,-55 -42.083,-59.167c-15.834,-2.916 -26.667,6.25 -26.667,22.917c0,16.25 -8.333,37.917 -14.167,37.917c-10,-0 -15,-10.417 -15,-32.084c0,-12.083 -1.25,-22.083 -2.916,-22.083c-2.084,-0 -10,10.417 -17.917,22.917l-14.583,22.5l-13.75,-21.667c-7.5,-12.083 -15.417,-21.667 -17.5,-21.667c-4.167,0 -35,39.584 -44.167,57.084c-11.25,21.666 -6.25,32.5 16.667,32.5c17.083,-0 26.25,10.416 28.75,33.75c3.75,31.25 9.166,35 47.083,34.166l31.25,-0.833l-12.917,14.583c-16.25,18.75 -16.25,36.25 0,66.667c12.917,24.583 12.5,28.333 -2.916,51.25c-5,7.5 -11.25,20.833 -13.75,29.167c-5,17.916 -5.417,71.25 -0.834,71.25c2.084,-0 12.5,-12.5 24.167,-27.917l20.417,-28.333l1.25,16.25c2.083,22.916 10,32.916 38.75,48.333c39.166,20.833 41.25,24.167 41.25,70c-0,41.667 3.75,53.333 17.916,59.167c13.334,5.416 22.084,5 37.5,-1.667Zm-1086.67,-15.833c14.583,-6.667 22.916,-23.75 22.916,-46.667c0,-26.667 -7.5,-59.167 -16.666,-70c-7.5,-9.167 -7.917,-9.167 -15.834,-1.667c-12.5,10.834 -22.083,41.25 -24.583,77.5c-2.083,26.25 -1.25,32.917 4.583,38.75c8.75,8.334 15,8.75 29.584,2.084Zm-78.334,-18.334c2.084,-5.833 -4.583,-13.75 -11.666,-14.166c-6.25,-0 -17.084,11.666 -14.584,15.833c4.584,7.5 23.334,5.833 26.25,-1.667Zm-81.666,-21.25c6.666,-16.25 5.833,-68.75 -0.834,-82.916c-4.166,-8.334 -9.166,-12.084 -16.25,-12.084c-14.166,0 -22.083,17.917 -24.166,55c-1.667,27.5 -0.834,30.834 8.75,40.417c14.166,14.167 26.666,14.167 32.5,-0.417Zm-387.917,-13.333c8.333,-16.25 -9.167,-34.167 -25,-25.417c-9.167,5 -11.25,20.417 -3.333,28.334c7.5,7.5 23.333,5.833 28.333,-2.917Zm669.583,1.25c1.25,-3.333 0.417,-8.333 -2.5,-11.25c-5.833,-5.833 -19.583,6.25 -15.416,13.333c4.166,6.667 15,5.417 17.916,-2.083Zm-185.416,-17.083c9.583,-8.75 9.583,-25 -0.834,-41.667c-6.666,-11.25 -10.833,-13.75 -22.5,-13.75c-16.666,-0 -30.416,10.417 -34.166,25.833c-5.834,25.417 37.5,47.917 57.5,29.584Zm-174.167,-26.667c6.667,-27.917 -6.667,-62.083 -24.167,-62.083c-13.75,-0 -20,13.333 -18.333,36.25c3.333,39.583 34.583,58.333 42.5,25.833Zm1921.25,9.167c7.083,-4.167 23.333,-17.084 36.667,-29.167c13.75,-12.083 28.333,-21.25 33.333,-21.25c15,-0 27.917,-11.667 27.917,-24.583c-0,-11.667 -6.25,-17.084 -20,-17.084c-10,0 -21.667,-12.5 -21.667,-23.75c0,-13.333 7.5,-15.416 29.167,-7.5c9.583,3.334 18.75,5.417 20,4.584c2.5,-2.917 -23.75,-47.5 -34.167,-57.084c-7.917,-7.5 -12.083,-7.916 -38.75,-5.416c-28.333,2.5 -30.833,2.083 -53.333,-10.834c-19.167,-11.25 -24.584,-12.5 -27.5,-7.916c-2.084,3.333 -3.75,8.333 -3.75,10.833c-0,2.917 -5.417,19.167 -12.5,36.667c-6.667,17.5 -12.5,39.166 -12.5,48.333c-0,30 16.666,50 36.666,43.75c11.25,-3.75 22.917,-26.25 30.417,-60.833l7.083,-31.25l6.667,15.416c16.25,37.917 3.333,97.5 -23.75,107.5c-21.25,7.917 -25.833,10.834 -27.083,18.334c-3.75,18.75 24.166,25.416 47.083,11.25Zm933.75,3.333c1.25,-2.5 0,-7.083 -2.917,-10.417c-7.5,-7.083 -18.333,-0.833 -15,8.334c2.917,7.5 13.75,8.75 17.917,2.083Zm-1780,-21.25c5.417,-8.75 -3.75,-47.917 -19.167,-80.417l-9.583,-20.833l-1.25,39.583c-1.667,48.334 4.167,72.084 16.667,70c5,-0.833 10.833,-4.583 13.333,-8.333Zm-1155.83,-23.75c-0,-8.333 -2.084,-17.917 -4.167,-21.25c-9.167,-13.75 -16.25,16.667 -9.583,41.25c2.5,9.583 2.916,9.583 8.333,2.5c2.917,-4.583 5.417,-14.583 5.417,-22.5Zm-246.667,1.667c1.25,-11.25 -5.833,-20.417 -12.5,-16.25c-4.167,2.5 -4.583,24.166 -0.417,28.333c5.417,5.417 11.667,-0.417 12.917,-12.083Zm1340,7.916c1.667,-4.166 -2.917,-17.916 -10.417,-32.5c-20,-38.333 -77.083,-127.083 -101.25,-156.666c-50.416,-62.5 -39.166,-17.917 19.167,74.583c33.333,52.917 82.083,121.25 86.25,121.25c2.083,-0 5,-2.917 6.25,-6.667Zm-632.917,-19.166c10.417,-9.167 18.75,-18.334 18.75,-20.834c0,-2.5 -13.333,-33.75 -29.583,-69.583l-29.167,-65l17.917,-15.833c10,-8.75 25.833,-21.667 35,-29.167l17.5,-13.333l-1.667,-31.25c-1.25,-17.084 -4.583,-102.5 -7.916,-189.584l-6.25,-158.333l-11.25,-10c-14.167,-12.5 -30.417,-10.417 -102.917,12.083c-29.167,9.167 -58.75,16.667 -65.417,16.667c-7.083,-0 -26.25,-7.5 -42.5,-16.667c-16.666,-9.166 -50.833,-24.166 -75.833,-33.333c-65.417,-24.167 -79.167,-33.333 -87.5,-57.083c-11.25,-32.084 -17.083,-40.834 -29.167,-42.084c-15.833,-2.083 -29.583,12.5 -35.833,37.084c-2.917,11.25 -7.083,20.416 -9.167,20.416c-7.5,0 -59.583,-31.666 -75,-45.416c-8.75,-7.917 -18.333,-20.417 -21.666,-28.334c-3.334,-7.5 -12.084,-17.5 -20,-22.083c-7.5,-4.583 -16.25,-12.5 -18.75,-17.5c-2.5,-5.417 -5,-31.667 -5.834,-58.333c-0.833,-26.667 -2.5,-49.584 -3.75,-51.25c-1.666,-1.25 -37.083,-0 -79.166,2.916l-76.25,5.417l-10,37.5c-15.834,62.083 -7.084,91.667 16.666,56.25c13.75,-20.417 22.5,-20.833 27.917,-1.25c2.5,8.75 4.583,22.083 4.583,29.583c0,26.25 10.834,37.5 58.334,60c109.583,52.5 237.083,116.667 256.25,129.167c13.75,9.167 21.25,17.083 22.083,23.75c4.167,29.583 -13.75,60 -38.75,64.583c-7.917,1.667 -17.917,7.5 -22.917,13.75l-8.333,10.834l0,-19.584c0,-21.666 10.417,-35.833 26.25,-35.833c11.25,-0 19.583,-7.083 19.583,-17.083c0,-15 -28.75,-31.25 -172.916,-97.084c-96.667,-44.583 -153.334,-76.666 -184.584,-104.583c-33.75,-30.417 -40.416,-41.667 -39.166,-67.5c0.833,-18.333 -0.417,-22.5 -7.917,-26.25c-7.5,-4.167 -8.333,-7.917 -7.083,-32.5l1.25,-27.917l-17.084,-1.25c-21.666,-1.666 -39.166,11.25 -39.166,28.334c-0,6.25 9.166,64.583 20.833,129.166c23.75,135.417 25.833,118.75 -20.417,164.584c-14.166,13.75 -25.416,27.083 -25.416,29.583c-0,7.083 33.333,30.833 42.5,30.833c4.583,0 12.916,-3.75 19.583,-8.75c10.833,-7.916 12.5,-8.333 26.667,-2.083c8.333,3.333 20,10.833 25.833,17.083c10.417,10 10.833,11.667 7.917,45.417c-1.667,22.5 -1.25,35.833 1.666,37.5c8.334,5 18.75,-3.333 34.584,-28.333c17.916,-27.917 17.916,-27.917 12.083,22.5c-2.5,19.583 -5.833,54.583 -7.917,78.333c-2.5,29.583 -5.416,45 -10,49.583c-11.25,11.25 -15.416,2.084 -15.416,-33.75c-0,-28.75 -1.667,-36.666 -8.334,-44.583c-7.083,-8.75 -8.75,-9.167 -12.5,-3.75c-2.083,3.333 -4.166,15.833 -4.166,27.083c-0,11.667 -2.084,27.917 -4.584,36.667c-5,18.75 -14.166,20 -36.25,5c-8.333,-5.833 -18.333,-10.417 -22.083,-10.417c-20.833,0 -43.333,62.917 -27.917,78.334c7.917,7.916 18.334,5.833 32.084,-5.417c12.083,-10.417 12.916,-10.417 25,-4.167c14.583,7.084 41.25,37.917 50.416,57.5c5,10.417 9.167,13.75 19.584,14.584c16.666,1.666 36.666,-8.334 45.833,-23.334c7.5,-11.666 13.75,-17.5 18.75,-17.5c5.417,0 15.417,41.25 24.167,102.917c9.166,61.25 13.333,76.25 21.25,76.25c10,-0 17.5,-30.417 28.333,-120c2.5,-19.167 5.833,-36.667 7.083,-39.167c5.834,-9.166 11.25,5.834 14.584,40.417c1.666,20 5.416,41.667 7.916,48.333c9.584,22.084 29.167,11.667 29.167,-15.833c0,-6.25 2.083,-14.583 4.167,-17.917c3.75,-5.416 5,-5 10.416,2.084c4.584,5.416 5.417,13.333 3.75,27.083c-1.666,13.333 -0.416,21.25 3.75,27.083c10.834,14.167 27.084,4.167 45.417,-26.666c30.833,-53.75 37.917,-50.834 39.583,17.083c0.834,25.833 2.5,47.5 3.334,48.333c4.583,5 16.25,-5.416 34.166,-30c22.084,-30.416 21.667,-30.416 35,8.75c4.584,14.584 10.417,27.5 12.917,28.75c2.083,1.667 15.833,-8.75 30.417,-23.333c22.083,-22.083 26.25,-24.583 28.75,-17.917c1.666,4.167 9.583,19.584 17.916,34.167l14.584,26.25l20.416,-20c12.084,-12.083 21.667,-18.333 23.75,-16.25c2.084,2.5 12.5,15.833 23.334,30.417l20,26.25l20.833,-17.917c38.75,-33.333 45,-35 45,-11.25l-0,12.917l45.833,-39.167l0,15.833c0.417,23.75 7.084,48.75 14.584,54.167c9.583,7.083 20.416,2.917 41.666,-15.833Zm564.584,10.833c-0,-7.083 -7.5,-18.333 -23.75,-35.833c-26.25,-27.084 -31.667,-26.667 -17.5,1.666c20,40 41.25,57.917 41.25,34.167Zm-1133.33,-17.083c18.75,-26.25 24.167,-41.25 17.5,-47.917c-7.083,-7.083 -27.083,5.417 -35,21.667c-7.916,15.416 -10.416,50 -3.75,50c2.5,-0 11.667,-10.834 21.25,-23.75Zm-175.416,-0.834c8.75,-5.833 2.083,-17.083 -10,-17.083c-12.084,-0 -18.75,11.25 -10,17.083c3.333,2.084 7.916,3.75 10,3.75c2.5,0 6.666,-1.666 10,-3.75Zm-59.584,-10.416c2.917,-11.667 -0.416,-19.167 -8.75,-19.167c-7.083,-0 -10.416,9.167 -7.5,20.417c2.917,12.083 12.917,11.25 16.25,-1.25Zm2505.83,-40.417c-0,-24.583 -14.167,-77.083 -24.167,-87.917c-3.333,-4.166 -10,-7.5 -14.583,-7.5c-7.5,0 -7.917,2.084 -5.834,24.167c3.334,37.917 27.5,92.5 40.834,92.5c2.083,-0 3.75,-9.583 3.75,-21.25Zm-2606.25,-4.167c-0,-13.333 -1.667,-18.333 -6.25,-18.333c-7.084,-0 -10.417,14.583 -6.25,30c4.166,16.667 12.5,8.75 12.5,-11.667Zm2692.92,-15.416c1.667,-17.917 0.417,-21.667 -6.666,-25.417c-21.25,-11.25 -29.167,14.167 -12.917,40.833c10.833,17.5 16.667,12.917 19.583,-15.416Zm-2466.67,19.166c7.916,-7.916 5.833,-37.083 -4.584,-55.416c-16.666,-29.584 -35.833,-21.25 -36.25,15.416c0,30.417 25.417,55.417 40.834,40Zm1177.92,-22.083c0,-11.667 -12.083,-10.417 -13.75,1.25c-1.25,7.917 0,9.583 6.25,8.333c4.167,-0.833 7.5,-5 7.5,-9.583Zm1363.75,-11.25c8.75,-8.75 5.417,-22.917 -7.916,-34.167c-18.334,-15.416 -30,-13.75 -35,6.25c-5.417,22.084 27.5,43.334 42.916,27.917Zm-1819.58,-20.417c5.833,-11.25 -1.25,-29.583 -10.417,-26.25c-8.75,3.334 -20,22.084 -17.5,29.167c3.334,9.167 22.5,7.083 27.917,-2.917Zm-801.25,-15c-1.25,-22.083 -9.167,-28.333 -12.917,-10.416c-3.333,15.833 0.834,30 8.334,30c4.583,-0 5.416,-4.584 4.583,-19.584Zm1371.67,6.667c-0,-25 -128.334,-192.917 -129.167,-168.75c0,13.75 64.583,113.333 100,153.75c16.667,18.75 29.167,25 29.167,15Zm65,-22.083c-4.167,-16.25 -15,-13.75 -15,2.916c-0,17.084 3.75,21.667 11.666,13.75c3.75,-3.75 5,-10 3.334,-16.666Zm1255,-1.25c-0.834,-5 -5.417,-7.5 -13.75,-7.5c-8.334,-0 -12.917,2.5 -13.75,7.5c-1.25,5.833 1.666,7.083 13.75,7.083c12.083,-0 15,-1.25 13.75,-7.083Zm-2778.75,-7.084c12.5,-13.333 10.833,-33.333 -2.917,-35c-14.167,-2.083 -21.667,6.25 -21.667,24.167c0,23.75 8.75,27.5 24.584,10.833Zm2425.42,-10.833c12.917,-12.917 10,-30.833 -10,-70.833c-10.416,-19.584 -23.333,-52.084 -28.75,-71.667c-12.083,-42.083 -22.083,-62.5 -42.083,-85.833c-14.167,-17.5 -15.833,-20.834 -20.833,-43.334c-4.167,-19.166 -31.667,-18.75 -31.667,0.417c0,13.333 56.667,172.5 80.833,227.083c23.334,52.5 34.584,62.084 52.5,44.167Zm168.334,-7.5c-0.834,-15.833 -12.5,-35.417 -19.584,-32.917c-6.666,2.084 -8.75,35.417 -2.5,42.917c2.917,3.333 9.167,5.833 13.75,5c7.084,-0.833 8.75,-4.167 8.334,-15Zm-267.917,-5c16.25,-9.167 6.25,-54.167 -12.5,-54.167c-16.25,0 -28.75,28.334 -21.25,47.5c4.167,11.667 18.75,14.584 33.75,6.667Zm170.833,-12.5c10.417,-5.833 10.417,-23.333 -0.416,-29.167c-5,-2.5 -14.584,-4.166 -22.084,-3.333c-19.583,1.667 -20.833,17.083 -2.083,28.333c16.25,9.584 14.167,9.584 24.583,4.167Zm162.5,-0c17.917,-9.583 4.584,-41.667 -17.083,-41.667c-23.75,0 -27.083,27.5 -5,39.167c13.75,7.917 12.083,7.5 22.083,2.5Zm83.334,-0c10.416,-5.833 10,-12.917 -2.5,-37.083c-11.25,-22.5 -19.584,-27.917 -29.167,-18.75c-16.25,16.25 -10.833,43.75 10.417,54.583c12.5,6.25 11.25,6.25 21.25,1.25Zm87.083,-14.583c0,-11.667 -1.667,-15 -10,-17.084c-20.833,-5 -25.417,9.167 -8.75,25.834c12.917,12.916 18.75,10 18.75,-8.75Zm-1387.5,-30.417c0,-4.167 -6.667,-16.25 -14.167,-26.25c-17.083,-21.667 -55.416,-54.583 -51.25,-44.167c3.75,9.584 35.417,56.667 45.834,68.75c10.416,11.25 19.583,12.084 19.583,1.667Zm1122.92,-7.917c8.333,-8.333 6.25,-27.083 -5,-50c-15.417,-30.833 -34.584,-27.916 -34.584,5.834c0,18.75 4.167,30.833 15.834,44.166c7.916,8.75 15,9.167 23.75,0Zm-82.5,-18.333c9.166,-7.917 5,-35.417 -13.334,-90.417c-38.75,-113.75 -73.333,-155 -104.166,-123.75c-17.084,16.667 -12.084,43.75 13.75,75c14.583,17.5 23.333,39.584 34.166,87.084c11.667,50.833 20.834,62.916 46.25,59.583c9.167,-1.25 19.584,-4.583 23.334,-7.5Zm148.75,-36.25c-0,-12.5 -3.334,-20.833 -10,-27.917c-16.25,-17.5 -22.084,-13.75 -20,12.084c2.083,25.833 9.166,36.666 21.666,35c7.5,-1.25 8.75,-4.167 8.334,-19.167Zm-1172.92,-10.833c6.667,-8.334 -2.083,-24.584 -24.583,-46.25c-9.584,-9.167 -24.167,-25.834 -32.084,-37.5c-30,-41.667 -47.083,-54.167 -47.083,-35c0,12.083 5.833,21.666 35.833,60.416c14.167,18.334 28.75,38.75 31.667,45.834c2.917,6.666 7.083,13.333 9.583,15c7.084,5.416 21.667,3.75 26.667,-2.5Zm342.083,-17.084c4.167,-5.416 4.584,-11.25 0.417,-28.75c-7.5,-34.166 -24.583,-47.5 -46.667,-35.833c-10,5.417 -10.833,27.5 -0.833,41.667c19.167,28.75 35.417,36.666 47.083,22.916Zm-443.333,-23.75c-5.417,-26.666 -27.5,-45.416 -27.5,-22.916c0,12.916 15,36.25 23.333,36.25c5.417,-0 6.25,-2.5 4.167,-13.334Zm-1317.08,-7.916c2.916,-12.084 -0.417,-39.167 -5,-46.667c-4.167,-7.083 -9.584,7.5 -9.584,27.083c0,32.084 9.167,44.584 14.584,19.584Zm2482.92,-28.75c0,-21.25 -2.916,-32.5 -12.5,-51.667c-13.75,-27.917 -24.583,-37.5 -30.833,-27.5c-6.25,9.583 -5,28.75 4.167,62.083c11.666,42.084 15,47.084 28.333,45.417c10.833,-1.25 11.25,-2.083 10.833,-28.333Zm79.167,8.75c4.167,-6.25 -10,-81.25 -18.75,-99.584c-10.417,-21.666 -21.667,-28.333 -35.417,-22.083c-19.583,8.75 -16.666,42.5 4.584,50.417c12.083,4.583 12.083,5 5.416,32.916c-4.166,17.917 -3.75,22.084 2.5,31.667c11.667,17.5 32.917,20.833 41.667,6.667Zm-1156.67,-30.834c1.667,-8.333 -10.416,-14.166 -16.666,-7.916c-6.25,6.25 -0.417,18.333 7.916,16.666c4.167,-0.833 7.917,-4.583 8.75,-8.75Zm652.917,-2.5c27.083,-15.416 28.333,-48.75 2.083,-74.583c-18.333,-18.333 -32.916,-20.833 -44.583,-7.083c-7.917,9.166 -9.583,15.833 -9.583,40c-0,51.666 14.583,63.333 52.083,41.666Zm-2189.58,1.667c6.666,-7.917 1.25,-23.75 -7.5,-22.083c-7.5,1.25 -11.25,12.5 -7.5,22.5c2.916,7.5 8.333,7.5 15,-0.417Zm1775,-14.583c4.583,-4.584 8.333,-10.417 8.333,-12.917c0,-3.333 10,-4.167 34.583,-2.083c36.25,2.5 42.917,1.25 45,-12.084c1.667,-6.666 6.25,-8.75 27.5,-11.25c19.584,-2.083 40.417,-9.583 83.75,-30c59.584,-27.916 97.5,-40 129.584,-40c35.833,0 71.666,-8.75 85,-20.416c10,-9.584 12.916,-16.25 15.833,-37.917c3.75,-24.583 9.167,-37.5 16.25,-37.5c5.417,-0 12.5,20.833 12.5,37.083c0,8.75 2.083,21.667 4.583,29.167c3.75,11.25 6.667,13.333 15.417,12.083c13.75,-1.666 26.25,-22.5 38.75,-63.333c9.583,-31.25 24.167,-50 43.333,-55c19.167,-5 25,5.417 26.25,50.417c2.084,46.25 4.584,47.916 29.167,21.25c20,-21.667 24.167,-29.167 32.083,-57.5c5,-19.167 6.25,-20.834 8.75,-12.084c1.667,5.417 7.917,19.167 13.75,31.25c20.834,41.25 32.084,20.834 25.417,-47.5c-2.5,-24.166 -5.417,-48.333 -6.667,-53.75c-1.666,-7.916 1.667,-5.416 14.167,10.417c20.417,25.833 27.917,31.667 37.083,30c9.584,-1.667 17.084,-27.5 17.5,-58.333c0.417,-20.417 -0.833,-24.584 -8.333,-28.75c-5,-2.5 -15.417,-3.75 -23.333,-2.5l-14.167,2.5l2.917,-21.667c4.166,-30 4.583,-140 0.416,-154.167c-5.833,-20.416 -44.583,-32.083 -130.833,-38.333l-34.583,-2.5l2.916,86.667l2.5,87.083l-15,15.417c-14.583,14.166 -15.416,16.666 -15.416,42.5c-0,15 1.25,27.083 3.333,27.083c1.667,-0 29.167,-6.667 60.833,-14.583c32.084,-7.917 59.167,-13.75 60,-12.5c2.917,2.916 -73.75,39.166 -97.083,45.833c-11.25,3.333 -27.917,7.083 -36.25,8.333c-8.75,1.25 -22.917,8.334 -32.5,16.667c-28.75,24.167 -54.167,17.917 -45.833,-10.833c6.25,-21.25 5.416,-23.75 -12.917,-42.5l-17.5,-16.667l2.5,-41.25c1.25,-22.5 1.25,-40.833 0.417,-40.833c-0.834,-0 -4.167,9.583 -7.917,21.666c-12.5,42.084 -38.333,66.25 -113.333,105.417c-40,20.417 -61.25,39.167 -62.084,54.583c-0.416,6.667 -1.25,13.75 -1.25,15.417c-0.833,7.083 -29.583,15 -84.583,23.333c-75.417,11.667 -70,12.5 -70,-11.666c0,-17.917 -1.667,-21.667 -14.583,-33.334c-8.334,-7.083 -17.084,-12.916 -19.584,-12.916c-2.916,-0 -12.916,-3.75 -22.5,-8.75c-14.166,-6.667 -19.166,-12.084 -25,-27.084c-6.666,-17.5 -16.25,-27.5 -55.416,-59.166c-9.167,-7.5 -17.084,-16.25 -17.084,-19.584c0,-15.833 86.667,-21.666 150,-9.166l27.084,5l2.916,38.75c3.75,48.333 10.417,74.583 17.084,67.916c3.333,-3.333 5.416,-32.916 6.25,-87.916l1.666,-83.334l56.667,-50.833c57.917,-52.5 97.917,-96.25 102.917,-112.083c5,-15.417 -3.75,-18.334 -55.834,-18.334c-42.916,0 -50.833,-1.25 -58.333,-7.916c-11.667,-10.417 -11.25,-16.25 3.75,-47.5c7.083,-14.584 12.5,-29.167 12.5,-32.5c-0,-3.75 -23.75,-17.5 -59.167,-34.584c-80,-37.916 -80,-38.333 -80.833,-75c-0.417,-20 -2.917,-32.916 -7.5,-40.416c-8.75,-13.334 -62.083,-39.167 -80.417,-39.167c-11.25,-0 -14.166,1.667 -16.25,11.667c-4.166,19.583 -9.583,30 -15.833,30c-8.333,-0 -13.75,-10.834 -20.833,-41.667c-3.334,-14.167 -7.084,-26.667 -7.917,-27.5c-0.833,-1.25 -5.833,9.583 -10.833,23.75c-13.334,35.417 -21.25,38.333 -88.75,32.917c-28.334,-2.5 -79.167,-5 -113.75,-5.417l-62.084,-0.833l-5.416,37.083c-2.917,20.417 -5,37.917 -4.167,38.75c0.833,0.417 15.417,-3.333 32.083,-9.167c16.667,-5.833 30.834,-10.416 31.25,-10.416c0.417,-0 2.084,16.25 3.334,36.666c1.25,20 5,44.584 8.75,54.584c6.666,18.75 39.583,65 43.333,61.25c0.833,-1.25 -0.833,-27.5 -3.75,-58.334c-5.833,-60.833 -2.917,-79.583 12.083,-76.666c11.25,2.083 17.5,20.416 23.75,68.75c7.084,54.166 12.917,72.083 22.5,72.083c11.25,-0 16.667,-17.083 21.667,-63.75c5.833,-58.75 9.583,-63.333 39.167,-51.25c19.583,8.333 27.083,25 27.083,60.833c0,15.834 0.417,29.167 1.25,29.167c0.417,-0 11.25,-2.917 23.75,-6.25c28.75,-7.5 50.417,-7.917 60.417,-0.833c10.833,7.916 5,14.166 -16.25,17.083c-24.584,3.75 -31.667,10 -34.584,30c-2.5,20.417 4.167,45.833 17.5,65.833c11.667,17.084 11.25,17.084 -20,20.834c-42.083,5 -54.583,20.833 -63.333,80c-7.083,46.666 -11.25,54.166 -23.333,39.583c-6.25,-7.5 -7.917,-16.25 -7.917,-38.333c0,-27.917 -0.417,-28.75 -11.25,-30.834c-44.583,-9.166 -52.917,-16.666 -63.75,-57.5c-2.917,-10.833 -6.667,-18.333 -8.333,-16.666c-1.667,1.666 -9.167,17.5 -16.667,34.583c-33.333,77.5 -43.75,56.667 -50,-102.5c-2.083,-52.5 -5,-99.583 -6.25,-104.583c-4.167,-12.917 -12.917,-12.084 -21.667,1.666c-6.25,9.584 -7.916,24.584 -9.583,106.25c-1.25,54.584 -3.75,96.25 -6.25,98.75c-5.833,5.834 -11.667,0.834 -16.667,-14.166c-8.75,-26.25 -39.166,-7.084 -45.833,28.75c-4.167,20.833 3.75,33.333 38.333,62.083c17.917,15 48.75,45.417 68.75,67.917c51.25,58.333 107.917,112.916 125,120.416c18.334,7.5 21.25,17.5 15.834,55c-6.667,47.917 -5,80.417 5,80.417c2.083,-0 12.083,-3.75 22.083,-8.333c18.75,-8.75 62.917,-14.167 141.25,-18.334l45.833,-2.5l-27.083,19.167c-14.583,10.417 -29.583,20.417 -32.917,22.5c-5,2.917 -0.416,9.583 21.25,32.083c26.667,27.5 40.834,47.084 34.167,47.084c-1.667,-0 -16.667,-14.167 -32.5,-31.25c-27.5,-29.584 -30.417,-31.25 -47.083,-31.25c-11.25,-0 -18.75,2.083 -20,5.833c-1.25,2.917 6.666,26.667 17.5,52.083c27.916,67.084 51.25,88.334 72.5,67.084Zm-85.834,-8.75c11.667,-9.167 13.75,-20.834 6.25,-40c-7.916,-21.667 -43.75,-51.25 -53.75,-45c-5.416,3.333 -5.416,19.583 0.417,34.166c3.75,10.834 2.5,10 -14.583,-6.666c-17.084,-16.667 -20.417,-18.334 -30.417,-14.584c-13.75,4.584 -30.417,27.917 -30.417,42.084c0,9.166 1.25,9.583 14.584,7.083c12.916,-2.083 15,-1.25 19.583,8.75c7.083,15.833 22.5,22.5 51.667,22.917c19.583,-0 27.916,-2.084 36.666,-8.75Zm405.834,-12.917c10.833,-10.833 0.833,-44.167 -16.25,-53.75c-6.667,-3.333 -10.417,-2.917 -16.667,2.917c-9.583,8.333 -10,21.666 -2.083,41.25c5,11.666 8.333,14.583 17.916,14.583c6.667,-0 14.167,-2.083 17.084,-5Zm-591.667,-12.917c1.667,-8.333 -10.417,-14.166 -16.667,-7.916c-6.25,6.25 -0.416,18.333 7.917,16.666c4.167,-0.833 7.917,-4.583 8.75,-8.75Zm-1355.42,-17.5c0,-4.583 -2.916,-8.75 -6.666,-9.583c-7.5,-1.25 -13.75,9.583 -9.584,16.25c4.167,7.083 16.25,2.083 16.25,-6.667Zm1272.08,1.25c-0.834,-5.416 -4.167,-9.583 -7.5,-9.583c-3.334,-0 -6.667,4.167 -7.5,9.583c-1.25,7.084 0.833,9.167 7.5,9.167c6.666,-0 8.75,-2.083 7.5,-9.167Zm124.583,-14.583c8.75,-22.083 -82.917,-122.083 -111.667,-122.083c-4.583,-0 -7.916,2.5 -7.916,5.416c-0,7.5 20,32.917 36.25,46.25c15,12.5 38.75,46.667 38.75,55.834c-0,18.333 38.333,30.833 44.583,14.583Zm824.583,0.417c11.25,-5.417 14.167,-9.167 14.167,-18.75c-0,-25.417 -34.583,-23.334 -46.667,2.5c-3.333,7.916 -3.333,11.666 0.834,16.666c6.666,7.917 14.166,7.917 31.666,-0.416Zm386.25,4.166c5.417,-5.416 -2.916,-14.166 -13.75,-14.166c-12.5,-0 -18.75,5.416 -14.583,12.5c2.917,4.583 24.167,5.833 28.333,1.666Zm-210.416,-23.333c-0.834,-5.417 -4.167,-9.583 -7.5,-9.583c-3.334,-0 -6.667,4.166 -7.5,9.583c-1.25,7.083 0.833,9.167 7.5,9.167c6.666,-0 8.75,-2.084 7.5,-9.167Zm-72.084,-5.417c11.667,-11.666 12.917,-19.583 4.167,-27.083c-10.833,-9.167 -39.583,6.25 -39.583,21.25c-0,7.5 10.416,15.833 20,16.25c2.916,-0 10,-4.583 15.416,-10.417Zm-1035.42,-26.666c-0,-4.584 -5.834,-11.667 -14.167,-16.667c-22.083,-13.75 -24.583,-11.25 -10.833,11.25c9.166,15 25,18.75 25,5.417Zm1285.42,-25.417c0,-12.083 -1.666,-15 -9.583,-15.833c-12.083,-1.667 -21.667,5.833 -21.667,17.916c0,12.5 3.75,15 18.75,13.75c11.25,-1.25 12.5,-2.5 12.5,-15.833Zm-194.583,-24.167c1.25,-7.083 -0.833,-9.166 -7.083,-9.166c-5.834,-0 -8.75,2.5 -8.75,7.5c-0,15.833 13.75,17.083 15.833,1.666Zm73.333,9.167c7.5,-2.917 8.75,-12.5 2.084,-16.25c-6.667,-4.583 -24.584,1.667 -24.584,7.917c0,8.75 11.25,12.5 22.5,8.333Zm102.917,-54.167c6.667,-7.916 6.25,-32.916 -0.417,-41.25c-17.083,-20.416 -38.333,14.584 -25,40c5.417,9.584 17.917,10.417 25.417,1.25Zm52.5,-16.666c1.25,-3.334 0.417,-8.334 -2.083,-10.834c-6.25,-6.25 -17.917,3.334 -14.584,11.667c2.917,7.917 13.334,7.5 16.667,-0.833Zm-2077.5,-8.334c4.583,-5.833 4.167,-9.166 -3.75,-22.916c-16.25,-28.334 -10.417,-55.834 15.417,-73.334c16.666,-11.25 39.166,-12.5 57.5,-3.333c7.083,3.333 23.75,7.5 37.5,8.75c48.333,5 87.5,-18.333 102.083,-61.25c10.833,-30.833 25.417,-98.333 22.917,-105c-1.25,-3.333 -10,-7.083 -19.167,-8.75l-17.083,-2.5l1.25,-28.75c0.833,-32.083 -3.75,-40.833 -30.417,-55l-14.583,-7.5l15.833,-0.417c24.583,0 44.583,-10 44.583,-22.083c0,-12.917 -8.75,-20.417 -42.5,-36.25c-34.583,-16.25 -57.916,-17.917 -70,-5c-10,10.417 -15.416,8.75 -42.916,-12.917l-15.417,-12.916l-17.917,17.083c-20.833,20.417 -44.583,32.5 -68.75,35.833c-21.25,2.5 -30,8.75 -30,22.084c0,11.25 18.334,33.333 39.167,47.916l14.167,9.584l-10.417,27.5c-35,90.416 -42.5,129.583 -27.917,142.083c10,8.333 22.5,35.417 22.5,48.333c0,13.75 -11.666,39.584 -26.666,59.167c-5.834,7.917 -10.834,16.25 -10.834,17.917c0,5 50,28.333 60.834,28.333c5,-0 11.666,-2.917 14.583,-6.667Zm86.25,-14.583c6.25,-24.167 0.417,-37.917 -15,-36.25c-8.75,0.833 -11.667,3.75 -12.5,12.917c-1.25,11.25 12.917,40.416 20,40.416c1.667,0 5,-7.916 7.5,-17.083Zm-733.333,-3.333c2.083,-12.5 -2.5,-29.584 -7.5,-29.584c-5.834,0 -9.584,19.167 -6.667,31.667c3.333,12.5 12.5,11.25 14.167,-2.083Zm928.333,-17.084c10,-7.083 25,-21.666 32.917,-32.083c28.333,-37.5 55,-104.167 45,-114.167c-3.75,-3.75 -6.25,-1.25 -11.25,10c-3.75,9.167 -11.25,17.5 -20,22.084c-29.167,14.583 -42.084,32.916 -60,86.666c-10,29.167 -12.084,40 -7.5,40c1.25,0 10.416,-5.833 20.833,-12.5Zm1697.92,-12.5c6.666,-21.25 0.416,-37.5 -14.167,-37.5c-11.667,0 -19.583,14.167 -19.583,35.417c-0,31.25 24.583,32.917 33.75,2.083Zm-1240.83,-40.416c4.167,-4.167 -5.416,-13.75 -14.166,-13.75c-12.084,-0 -29.584,7.916 -26.667,12.5c2.917,4.583 36.667,5.833 40.833,1.25Zm568.334,-5.834c31.25,-10.416 39.166,-17.916 29.166,-27.916c-9.583,-9.167 -36.25,-7.5 -59.166,3.75c-52.5,26.25 -30,44.583 30,24.166Zm102.916,-12.5c4.167,-3.75 -3.333,-14.583 -14.583,-20.833c-11.667,-6.25 -28.75,2.5 -28.75,14.583c-0,6.25 2.917,10.834 7.5,12.084c8.75,2.5 30.833,-0.834 35.833,-5.834Zm-2056.67,-18.75c5.416,-10 1.25,-22.5 -7.917,-22.5c-5.833,0 -7.917,2.917 -7.917,11.667c0,17.917 8.75,23.75 15.834,10.833Zm2674.58,-29.583c2.5,-22.917 -4.583,-32.917 -19.583,-28.333c-11.25,3.75 -11.25,24.583 0.416,43.333c10.834,17.5 16.667,12.917 19.167,-15Zm-1322.5,-5c5.417,-4.167 5.833,-7.5 2.5,-13.333c-5.833,-11.25 -27.917,-10.417 -72.917,2.5c-57.083,16.666 -56.25,19.166 7.084,17.916c40,-0.833 58.75,-2.916 63.333,-7.083Zm679.167,-9.583c27.5,-13.75 25.416,-27.084 -4.584,-31.25c-31.666,-4.167 -59.166,12.083 -52.916,32.083c4.583,14.167 28.333,14.167 57.5,-0.833Zm-107.917,-4.167c5.417,-7.917 5.833,-10.417 0.833,-17.917c-10.833,-16.25 -31.666,-10.833 -31.666,7.917c-0,19.167 20,25.833 30.833,10Zm-1498.33,-15.833c15.416,-9.584 17.083,-18.334 5,-25c-12.5,-6.667 -42.917,3.333 -47.917,15.833c-6.667,17.083 20,22.917 42.917,9.167Zm536.666,3.333c4.167,-6.25 -9.583,-15.417 -19.166,-12.917c-4.584,1.25 -8.334,5.834 -8.334,10c0,5.834 2.917,7.917 12.084,7.917c7.083,-0 13.75,-2.083 15.416,-5Zm-2.5,-43.75c0,-8.75 -3.75,-23.75 -8.333,-33.333c-12.083,-27.5 -14.167,-50.417 -6.25,-80c3.75,-14.584 5.833,-27.084 5,-27.917c-2.083,-2.083 -31.667,35.833 -44.167,56.667c-12.083,20 -10.833,27.083 5.417,36.666c10,5.834 16.25,14.167 21.25,28.334c13.333,35.833 27.083,45.416 27.083,19.583Zm1010.83,-1.667c40.416,-5.416 56.666,-13.333 55,-25.833c-1.667,-12.083 -20.834,-20.833 -37.084,-17.5c-13.333,2.917 -42.5,26.667 -50,40.417c-2.083,4.166 -3.333,7.5 -2.083,7.5c0.833,-0 16.667,-2.084 34.167,-4.584Zm201.666,-15.833c0,-7.083 -7.5,-17.083 -12.916,-17.083c-5.417,-0 -7.5,17.916 -3.334,25.833c3.334,6.25 5.417,7.083 10.417,2.917c3.333,-2.5 5.833,-7.917 5.833,-11.667Zm487.5,-6.667c4.584,-5.416 2.917,-11.25 -8.333,-33.333c-20.417,-40.833 -25,-42.083 -25,-9.167c-0,15 2.083,32.5 5,38.334c5.417,12.083 20,14.166 28.333,4.166Zm-2200.83,-26.25c0.833,-9.583 -0.417,-14.166 -5.833,-16.25c-8.334,-3.333 -22.5,12.084 -22.5,24.584c-0,6.666 2.5,7.916 13.75,6.666c11.666,-1.25 13.333,-2.916 14.583,-15Zm2071.67,7.5c-0,-5.416 -2.917,-8.333 -8.334,-8.333c-5.416,-0 -8.333,2.917 -8.333,8.333c-0,5.417 2.917,8.334 8.333,8.334c5.417,-0 8.334,-2.917 8.334,-8.334Zm-2309.17,-2.083c33.75,-3.75 72.083,-8.75 85.833,-11.25c21.667,-4.167 25,-5.833 30,-18.75c5.834,-13.333 18.75,-83.333 24.584,-131.25l2.916,-24.167l-23.333,0c-13.333,0 -28.75,2.5 -35.417,5.834c-12.5,6.666 -38.333,33.75 -46.666,49.166l-5.417,9.584l-2.917,-10.417c-1.666,-5.833 -2.916,-18.75 -3.333,-28.75c-0.417,-21.667 -4.583,-19.167 -15,8.75c-3.75,10.417 -12.5,25.417 -18.75,33.333c-10,11.25 -12.917,12.917 -19.583,9.167c-4.167,-2.5 -8.75,-12.5 -10.834,-22.083c-1.666,-9.167 -5,-17.084 -6.666,-17.084c-1.667,0 -7.084,7.917 -11.25,17.5c-9.584,21.25 -25.417,40.834 -32.917,40.834c-8.333,-0 -10,-9.167 -5,-32.917c3.333,-18.75 3.333,-22.917 -2.917,-28.75c-6.666,-6.667 -7.5,-6.667 -15,2.5c-4.166,5.417 -9.166,18.333 -10.416,29.167c-4.167,33.333 -7.5,40 -25,47.916c-15.417,7.084 -60.417,47.084 -60.417,53.334c-0,5.416 22.917,17.916 37.5,20.833c26.25,5 107.083,3.75 170,-2.5Zm973.333,-33.333c21.667,-20 11.667,-42.5 -26.666,-60c-27.084,-12.5 -37.5,-11.667 -37.5,2.916c0.416,17.084 13.75,43.334 28.75,56.25c16.666,13.75 21.25,14.167 35.416,0.834Zm-755.833,-8.334c18.75,-9.583 22.083,-31.25 4.583,-31.25c-10.833,0 -29.583,15.834 -29.583,24.584c-0,14.166 6.667,16.25 25,6.666Zm1098.33,-12.916c5.834,-14.584 7.917,-42.084 3.334,-53.334c-1.25,-3.75 -5.834,-6.666 -10,-6.666c-10,-0 -12.5,7.916 -12.5,39.583c-0,42.083 7.083,49.583 19.166,20.417Zm-527.083,-6.25c3.333,-6.667 3.333,-17.084 -0,-41.25c-6.667,-45.417 -0.417,-66.25 35,-112.5c9.583,-12.5 18.333,-25 20,-27.5c1.25,-2.5 -5.833,-21.25 -16.25,-41.667c-12.083,-23.333 -17.5,-37.5 -14.167,-38.333c2.5,-0.834 16.25,1.666 30.417,5.416c21.25,5.834 34.583,6.667 72.5,4.167l47.083,-2.5l22.084,20.833c12.5,11.667 25.833,21.25 30,21.25c6.25,0 7.083,-2.5 4.583,-19.583c-4.583,-33.333 -14.167,-47.917 -37.917,-56.667c-11.666,-4.583 -29.583,-16.25 -42.083,-27.916c-28.75,-27.084 -54.583,-35 -109.583,-32.5c-33.75,1.25 -42.917,3.333 -58.75,12.5c-24.167,14.166 -58.75,24.166 -83.75,24.166c-17.5,0 -20.417,-1.25 -25.417,-11.25c-8.333,-17.5 -24.583,-15.833 -31.25,2.917c-2.917,7.917 -5,21.667 -5,30.417c-0.417,18.333 -6.667,32.083 -14.167,32.083c-6.25,-0 -30,-24.167 -47.5,-49.167l-12.916,-17.916l-9.584,20l-10,20l-22.083,-0c-18.75,-0 -22.917,1.666 -31.25,11.666c-8.333,10.417 -13.333,12.5 -42.083,15.834c-42.917,4.583 -59.167,10 -81.25,27.083c-21.667,16.667 -29.167,17.5 -45,4.583c-30,-24.166 -27.5,-25.833 -25.417,13.75c2.083,44.584 9.583,58.334 42.083,77.5c13.334,7.917 25.834,14.167 27.5,14.167c2.084,-0 0,-11.667 -4.583,-26.25c-6.25,-20.417 -7.083,-29.167 -3.333,-37.917c7.5,-20.416 17.083,-5 35.833,57.917c12.5,41.25 13.75,45.417 16.25,43.333c0.833,-1.25 6.667,-24.166 12.917,-51.666c5.833,-27.5 11.25,-50.417 11.666,-50.834c0.417,-0.416 10.834,1.667 23.334,5c34.583,9.167 43.75,8.334 54.166,-6.25c16.667,-23.333 58.75,-22.083 81.25,2.5c19.167,20.834 30.417,13.334 37.5,-25c4.167,-22.083 18.75,-34.166 45,-37.5c11.667,-1.666 32.5,-5.833 45.834,-9.583c22.083,-6.25 24.583,-5.833 31.666,0.417c4.167,3.75 9.584,14.166 12.5,23.333c2.917,10.417 10.417,20.417 19.167,27.5c12.917,10 14.583,12.917 14.583,31.25c0,17.083 -2.083,22.5 -16.25,38.75c-10.416,12.083 -17.5,24.583 -19.166,35.417c-6.25,37.5 11.666,108.75 27.5,108.75c2.083,-0 5.416,-4.167 8.333,-8.75Zm1518.33,-10c0,-8.334 -2.5,-12.917 -7.083,-13.75c-6.25,-1.25 -7.5,1.666 -7.5,13.75c-0,12.083 1.25,15 7.5,13.75c4.583,-0.834 7.083,-5.417 7.083,-13.75Zm-1269.58,-7.5c1.667,-8.334 -10.417,-14.167 -16.667,-7.917c-6.25,6.25 -0.416,18.333 7.917,16.667c4.167,-0.834 7.917,-4.584 8.75,-8.75Zm210.833,-13.75c6.667,-17.084 1.25,-39.167 -9.583,-39.167c-16.667,-0 -22.5,20 -10.417,36.667c7.5,10.833 16.25,12.083 20,2.5Zm959.584,-5c40.833,-3.75 49.166,-9.584 68.333,-50c23.333,-49.584 20.833,-61.25 -9.583,-40.417c-8.334,5.833 -16.25,10.417 -17.5,10.417c-7.084,-0 -0.834,-16.667 11.666,-30.417c20,-22.5 23.334,-52.917 5.834,-52.917c-23.334,0 -57.5,31.667 -57.5,53.334c-0,4.166 -3.334,10.833 -7.5,14.583c-12.5,11.25 -17.5,1.667 -14.584,-26.667c2.084,-21.25 1.25,-24.166 -6.25,-28.333c-8.75,-4.583 -67.916,-18.333 -70,-15.833c-2.916,2.916 -28.75,65.833 -37.5,92.083c-12.083,35.417 -12.5,52.917 -2.083,62.5c14.167,12.917 67.917,17.083 136.667,11.667Zm-1107.08,-13.334c3.334,-5.833 3.334,-32.083 0.834,-87.083c-2.917,-63.333 -5.417,-81.667 -11.667,-94.583c-10,-20 -22.083,-21.667 -30.417,-3.75c-12.5,26.25 -2.5,158.333 14.167,183.75c7.917,12.083 20.833,12.916 27.083,1.666Zm-881.25,-10.416c0,-8.334 -2.5,-12.917 -7.083,-13.75c-6.25,-1.25 -7.5,1.666 -7.5,13.75c-0,12.083 1.25,15 7.5,13.75c4.583,-0.834 7.083,-5.417 7.083,-13.75Zm751.25,-8.75c1.25,-10 -22.083,-75 -28.75,-78.75c-5.416,-3.75 -4.583,60.416 0.834,76.666c3.75,11.25 6.666,13.334 15.833,12.084c7.5,-0.834 11.25,-4.167 12.083,-10Zm-129.583,-12.917c2.917,-7.917 -12.083,-22.083 -23.75,-22.083c-9.583,-0 -13.75,10.833 -8.333,21.25c5.833,10 28.333,10.833 32.083,0.833Zm-131.667,-19.167c7.084,-15.833 -12.5,-69.583 -25.416,-69.583c-10.417,-0 -10.417,60.417 0.416,73.333c7.5,8.75 20,7.084 25,-3.75Zm324.584,-0.833c-0,-5.417 -2.917,-20.833 -6.25,-34.167c-3.334,-12.916 -6.25,-30 -6.25,-37.5c-0,-11.25 -1.667,-13.75 -8.75,-13.75c-11.667,0 -22.084,25.834 -18.75,47.084c4.583,26.666 17.5,48.75 29.583,48.75c8.333,-0 10.417,-2.084 10.417,-10.417Zm-776.25,-84.167c-12.917,-25 -26.25,-37.916 -32.917,-31.25c-7.5,7.5 -0,25 20.417,45.834c23.333,23.333 28.333,17.5 12.5,-14.584Zm692.916,9.167c2.5,-3.333 5,-12.5 5,-20.833c0,-8.334 -2.5,-17.5 -5,-20.834c-7.083,-8.75 -19.583,-7.916 -25,1.667c-13.333,25.833 7.917,60.417 25,40Zm-62.5,-5.833c5.417,-10.417 0.834,-22.084 -7.916,-20.417c-7.084,1.25 -10.834,12.917 -7.084,22.5c3.334,8.333 9.584,7.5 15,-2.083Zm754.584,-67.084c10.833,-10.833 12.5,-15 11.25,-32.083c-1.25,-19.167 -1.667,-20 -12.917,-19.167c-15,0.834 -38.333,18.334 -46.667,34.584c-7.5,15 -7.5,14.583 0.417,22.5c10.833,11.25 33.75,8.333 47.917,-5.834Zm63.333,6.667c2.917,-7.083 -7.5,-16.667 -13.75,-12.917c-2.083,1.25 -4.167,6.25 -4.167,10.834c0,9.583 14.584,11.25 17.917,2.083Zm-1451.25,-42.5c-0,-20 -6.25,-30.417 -22.917,-37.5c-18.333,-7.5 -43.75,-7.917 -43.75,-0.417c0,9.167 50.834,52.917 61.667,52.917c2.917,-0 5,-5.833 5,-15Zm147.917,-5c13.333,-7.917 18.75,-23.333 9.583,-26.667c-2.917,-1.25 -21.25,1.667 -40.833,6.667c-27.084,6.667 -35.834,10.417 -36.667,16.667c-0.833,4.166 0.833,9.583 4.167,11.666c7.916,5.417 48.75,0 63.75,-8.333Zm-75,-27.5c10,-15 12.5,-37.083 5,-43.333c-16.25,-13.75 -39.167,22.083 -29.584,46.666c3.75,10 17.084,7.917 24.584,-3.333Zm940,-27.083c14.583,-14.584 16.666,-35.834 4.166,-40c-9.583,-2.917 -28.333,0.833 -40.833,8.75c-16.25,10.416 -10,32.5 11.25,40.416c10.833,3.75 12.917,3.334 25.417,-9.166Zm-117.084,-22.917c0,-10.417 -18.333,-31.667 -27.5,-31.667c-7.916,0 -7.5,20.834 0.834,32.5c8.75,12.917 26.666,12.5 26.666,-0.833Zm-884.166,-24.167c1.666,-9.583 -15,-14.166 -22.917,-6.25c-3.75,3.334 -5,8.334 -3.333,11.25c4.166,7.084 24.583,3.334 26.25,-5Zm179.166,4.167c6.667,-6.667 6.25,-22.083 -1.25,-28.333c-7.916,-6.667 -18.75,-4.167 -25.416,6.25c-10.834,16.25 12.916,35.833 26.666,22.083Zm1330.42,-12.083c7.083,-7.084 8.333,-11.667 5.833,-23.75c-7.083,-38.75 -42.5,-73.75 -54.583,-54.167c-5.417,8.75 -2.917,42.083 4.167,59.583c11.666,27.5 28.333,34.584 44.583,18.334Zm-594.167,-10c0,-11.667 -12.083,-10.417 -13.75,1.25c-1.25,7.916 0,9.583 6.25,8.333c4.167,-0.833 7.5,-5 7.5,-9.583Zm422.917,-4.584c-0,-13.333 -13.75,-54.583 -27.917,-82.5c-23.75,-47.083 -79.166,-95 -94.583,-82.083c-14.583,12.083 -7.083,40 20,75c10,12.917 19.583,27.917 21.25,33.75c4.167,15 17.083,27.917 45.417,46.25c26.666,17.5 35.833,20 35.833,9.583Zm-405,-41.666c13.333,-9.167 11.667,-25 -5,-41.667c-25.833,-25.833 -56.667,-16.25 -56.667,17.5c0,25.833 38.334,40.833 61.667,24.167Zm-720.833,-15c7.5,-7.5 5.833,-28.75 -3.334,-43.75c-7.083,-11.667 -10.833,-13.75 -24.166,-13.75c-35.417,-0 -33.75,29.166 3.333,55.416c12.083,8.334 17.5,8.75 24.167,2.084Zm631.666,-60c13.75,-5.417 4.584,-18.334 -12.5,-18.334c-8.333,0 -12.5,12.5 -5.416,17.084c7.083,4.166 9.583,4.583 17.916,1.25Zm679.167,-19.167c13.333,-26.667 14.167,-52.083 2.5,-67.083c-17.917,-22.5 -41.667,-16.25 -50.417,12.916c-3.75,12.917 -3.333,18.75 1.667,31.25c6.667,15.834 27.917,44.584 32.917,44.584c1.25,-0 7.5,-9.584 13.333,-21.667Z" style="fill-rule:nonzero;"/><path d="M3161.25,2792.92c-5,-4.584 -3.333,-42.084 2.083,-45.417c7.5,-4.583 25,17.917 20.417,26.667c-5.833,10.416 -19.583,22.083 -22.5,18.75Z" style="fill-rule:nonzero;"/><path d="M3096.25,2745.83l0.417,-18.75l4.583,13.75c2.917,10 2.917,15 -0.417,18.334c-3.75,3.75 -5,0.416 -4.583,-13.334Z" style="fill-rule:nonzero;"/><path d="M2737.92,2701.25c-2.5,-8.75 -4.584,-23.333 -4.584,-32.5l0,-16.667l12.917,20.417c15.833,25.417 17.917,41.667 5,43.333c-7.5,1.25 -10,-1.666 -13.333,-14.583Z" style="fill-rule:nonzero;"/><path d="M2552.08,2644.17c-8.333,-12.5 -4.583,-27.5 6.667,-27.5c6.667,-0 7.917,2.916 7.917,16.25c-0,20.416 -5.834,25 -14.584,11.25Z" style="fill-rule:nonzero;"/><path d="M3483.33,2218.75c-7.916,-8.333 -10.416,-16.667 -11.666,-37.5c-2.084,-29.583 3.333,-42.083 22.083,-54.583c20,-12.917 43.75,5.416 43.75,34.166c0,23.334 -5.833,38.334 -22.083,55c-15.417,16.25 -19.167,16.25 -32.084,2.917Z" style="fill-rule:nonzero;"/><path d="M3344.17,2189.58c-4.167,-10.833 -2.917,-41.25 2.083,-55.833c12.5,-35.833 66.25,-24.583 66.25,13.75l0,14.583l-20.833,-2.5c-15.834,-1.666 -21.25,-0.833 -22.084,3.334c-7.083,24.166 -10,30.833 -15.833,32.083c-3.75,0.833 -7.917,-1.667 -9.583,-5.417Z" style="fill-rule:nonzero;"/><path d="M3344.17,1990.83c-17.917,-25.416 1.666,-57.083 28.75,-46.666c7.916,3.333 18.75,22.916 18.75,34.583c-0,19.583 -35.834,28.75 -47.5,12.083Z" style="fill-rule:nonzero;"/><path d="M3459.58,1995.42c-2.916,-2.917 -2.083,-11.25 2.917,-27.917c6.667,-21.667 8.333,-23.75 20.833,-25c8.334,-0.833 16.25,1.25 21.25,5.833c10.417,9.584 10.834,35.417 0.417,44.584c-8.75,7.916 -38.333,9.583 -45.417,2.5Z" style="fill-rule:nonzero;"/><path d="M3358.75,1796.67c-9.583,-17.5 14.583,-71.25 30,-66.25c5.833,1.666 8.75,24.166 5.417,38.75c-2.917,10.416 -22.084,35 -27.917,35c-1.667,-0 -5.417,-3.334 -7.5,-7.5Z" style="fill-rule:nonzero;"/><path d="M4102.92,2604.17c-10,-26.667 -15.417,-82.5 -15.417,-163.75c0,-59.167 0.833,-70.417 6.25,-72.5c3.75,-1.25 7.5,-1.667 8.333,-0.417c8.75,8.75 17.917,186.667 11.667,230.417l-3.75,25l-7.083,-18.75Z" style="fill-rule:nonzero;"/><path d="M4222.5,2548.33c-1.25,-3.333 -1.667,-12.083 -0.833,-20c0.833,-10.416 3.333,-14.166 10.416,-15c10.834,-1.666 16.25,12.917 12.084,30.417c-2.917,11.667 -17.917,14.583 -21.667,4.583Z" style="fill-rule:nonzero;"/><path d="M4288.33,2544.58c-2.5,-2.916 -10.416,-18.333 -17.5,-34.166c-15.833,-35.417 -22.916,-43.75 -37.5,-43.75c-6.25,-0 -12.5,-1.25 -13.75,-2.5c-4.583,-5 5.417,-18.334 14.167,-18.334c7.917,0 11.25,-5.416 19.167,-31.25c4.583,-16.666 17.083,-16.25 27.083,0.417c10.833,18.333 20,64.583 20,100.417c-0,30 -3.75,39.166 -11.667,29.166Z" style="fill-rule:nonzero;"/><path d="M4158.75,2516.67c-5.417,-25.834 -5.833,-130 -0.417,-120.834c4.584,7.917 16.667,88.75 16.667,111.667c0,35 -9.583,40 -16.25,9.167Z" style="fill-rule:nonzero;"/><path d="M4326.67,2495.42c-11.25,-18.75 -1.667,-107.084 14.166,-128.75c17.5,-23.334 60.834,-24.584 70.834,-2.084c2.916,5.834 9.583,11.25 16.25,12.5c35.416,7.5 45.416,12.084 65.416,32.084c12.084,11.666 17.5,19.583 12.917,17.916c-4.583,-1.666 -20,-3.75 -34.167,-5l-25.833,-2.5l-30.833,30c-16.667,16.25 -32.917,29.584 -35.417,29.584c-2.5,-0 -6.667,-3.75 -9.167,-8.334c-7.083,-13.333 -16.25,-9.583 -25,10.417c-7.916,18.75 -13.75,22.917 -19.166,14.167Z" style="fill-rule:nonzero;"/><path d="M4027.92,2405.83c-5.417,-5.416 -2.917,-21.666 3.75,-24.166c9.166,-3.75 19.166,5.416 17.5,15.833c-1.25,8.75 -15.417,14.167 -21.25,8.333Z" style="fill-rule:nonzero;"/><path d="M4339.17,2257.5c-3.334,-5.417 16.25,-24.167 25.833,-24.167c8.75,0 7.083,10.834 -3.333,20.834c-10.417,9.583 -17.917,10.833 -22.5,3.333Z" style="fill-rule:nonzero;"/><path d="M2977.92,2342.92c-7.084,-40.834 -1.25,-90.417 11.25,-104.584c4.166,-4.166 6.666,-3.75 12.5,2.917c16.666,18.333 12.083,59.167 -11.25,100l-10,17.5l-2.5,-15.833Z" style="fill-rule:nonzero;"/><path d="M3079.58,2309.58l-0.416,-51.25l55,0c30,0 53.75,0.834 52.5,2.084c-1.25,1.25 -17.917,8.75 -36.667,16.666c-43.333,17.917 -52.5,26.667 -62.083,57.917l-7.917,25.417l-0.417,-50.834Z" style="fill-rule:nonzero;"/><path d="M2887.92,2346.25c-10,-18.333 -3.334,-112.917 7.916,-112.917c11.25,0 16.667,69.584 8.334,100.834c-5.417,19.166 -10.834,22.916 -16.25,12.083Z" style="fill-rule:nonzero;"/><path d="M2798.75,2322.08c-9.167,-8.75 2.917,-63.75 13.75,-63.75c5.833,0 16.667,25.417 16.667,38.334c-0,19.166 -20.417,35.833 -30.417,25.416Z" style="fill-rule:nonzero;"/><path d="M2633.33,2304.17c8.334,-5.417 23.75,-5.417 27.084,-0c1.666,2.5 -4.584,4.166 -15.417,4.166c-12.917,0 -16.25,-1.25 -11.667,-4.166Z" style="fill-rule:nonzero;"/><path d="M2725,2257.08c0,-3.333 3.75,-10.416 7.917,-15.833c7.5,-9.583 8.333,-9.583 11.25,-2.083c1.666,4.166 1.25,10.833 -1.25,14.583c-5.417,8.75 -17.917,11.25 -17.917,3.333Z" style="fill-rule:nonzero;"/><path d="M2581.67,2245c-8.334,-31.25 3.75,-110 20.833,-139.583c11.25,-19.584 19.583,-22.5 26.667,-9.167c6.25,10.833 2.083,27.917 -9.584,40.417c-7.916,8.333 -9.166,15 -9.166,43.75c-0.417,47.083 -20.834,93.333 -28.75,64.583Z" style="fill-rule:nonzero;"/><path d="M2655.42,2237.5c3.333,-26.25 20,-39.583 25.833,-20.833c3.75,12.083 -9.583,37.5 -19.583,37.5c-7.5,-0 -8.334,-2.084 -6.25,-16.667Z" style="fill-rule:nonzero;"/><path d="M2501.67,2188.75c-14.584,-34.583 9.583,-80 30.833,-58.75c12.5,12.5 -2.5,74.167 -17.917,74.167c-3.75,-0 -9.583,-6.667 -12.916,-15.417Z" style="fill-rule:nonzero;"/><path d="M2525,2060.42c0,-3.334 2.083,-6.25 4.167,-6.25c2.5,-0 4.166,2.916 4.166,6.25c0,3.333 -1.666,6.25 -4.166,6.25c-2.084,-0 -4.167,-2.917 -4.167,-6.25Z" style="fill-rule:nonzero;"/><path d="M3059.58,2062.08c-13.333,-3.75 -19.166,-16.666 -10,-22.5c4.584,-2.5 58.334,16.667 64.584,22.917c5.416,5.417 -36.25,5 -54.584,-0.417Z" style="fill-rule:nonzero;"/><path d="M2645.42,2043.33c-6.25,-7.5 -10.417,-50.416 -6.25,-66.25c3.333,-12.916 18.75,-14.166 29.583,-2.083c5.833,6.25 6.667,11.667 4.167,23.75c-1.667,8.75 -3.75,21.667 -5,28.333c-3.75,21.667 -12.5,27.917 -22.5,16.25Z" style="fill-rule:nonzero;"/><path d="M2981.25,2045c-3.75,-9.583 0,-19.583 8.333,-22.917c12.917,-4.583 15.417,5.417 4.584,17.917c-9.167,10.833 -10.417,11.25 -12.917,5Z" style="fill-rule:nonzero;"/><path d="M2883.33,2027.08c0,-3.333 2.084,-6.25 4.167,-6.25c2.5,0 4.167,2.917 4.167,6.25c-0,3.334 -1.667,6.25 -4.167,6.25c-2.083,0 -4.167,-2.916 -4.167,-6.25Z" style="fill-rule:nonzero;"/><path d="M2458.33,1985c0,-5.833 1.667,-9.583 4.167,-7.917c2.5,1.25 4.167,6.25 4.167,10.834c-0,4.166 -1.667,7.916 -4.167,7.916c-2.083,0 -4.167,-5 -4.167,-10.833Z" style="fill-rule:nonzero;"/><path d="M2592.08,1988.33c-2.5,-4.583 -4.583,-13.333 -4.583,-19.583c0,-12.917 -9.583,-37.5 -16.25,-41.667c-7.917,-4.583 -16.667,5.834 -19.167,22.5c-4.166,25.417 -9.166,33.75 -20.833,33.75c-13.75,0 -17.083,-14.166 -10.833,-44.583c2.5,-12.917 4.583,-25.833 4.583,-28.333c0,-6.667 -47.917,-18.75 -72.917,-18.75c-16.25,-0 -21.25,2.083 -31.25,12.916c-14.583,16.25 -22.916,14.167 -29.166,-7.5c-6.25,-22.083 -10,-65 -6.667,-77.916c2.5,-9.584 3.75,-10.417 11.25,-6.25c4.583,2.5 15.417,10.416 23.75,18.333c20,17.5 42.917,29.167 76.25,37.5c14.583,3.75 42.083,14.167 61.25,23.333c29.167,14.167 36.667,20 47.083,36.25c10.417,15.834 12.084,22.917 10.417,35.834c-0.833,8.75 -5.417,20 -10,24.583c-8.333,7.917 -8.333,7.917 -12.917,-0.417Z" style="fill-rule:nonzero;"/><path d="M3150,1983.33c-7.083,-13.333 -10,-48.333 -4.583,-52.083c12.916,-7.917 29.166,29.583 21.25,49.583c-4.584,12.917 -10.417,13.75 -16.667,2.5Z" style="fill-rule:nonzero;"/><path d="M2871.67,1979.58c-3.334,-2.083 -5,-7.083 -4.167,-11.25c1.25,-6.25 5,-7.916 20,-7.916c15,-0 18.75,1.666 20,7.916c2.083,9.167 -5.833,15 -20,15c-5.833,0 -12.917,-1.666 -15.833,-3.75Z" style="fill-rule:nonzero;"/><path d="M2587.5,1783.33c0,-2.083 2.917,-4.166 6.25,-4.166c3.333,-0 6.25,2.083 6.25,4.166c0,2.5 -2.917,4.167 -6.25,4.167c-3.333,0 -6.25,-1.667 -6.25,-4.167Z" style="fill-rule:nonzero;"/><path d="M2554.17,1766.67c-0,-2.084 2.916,-4.167 6.25,-4.167c3.333,0 6.25,2.083 6.25,4.167c-0,2.5 -2.917,4.166 -6.25,4.166c-3.334,0 -6.25,-1.666 -6.25,-4.166Z" style="fill-rule:nonzero;"/><path d="M4302.08,1865.83c-3.75,-9.583 0,-19.583 8.334,-22.916c12.916,-4.584 15.416,5.416 4.583,17.916c-9.167,10.834 -10.417,11.25 -12.917,5Z" style="fill-rule:nonzero;"/><path d="M4370.83,1850.83c0,-6.25 25.834,-34.166 31.667,-34.166c7.083,-0 7.5,4.583 1.25,17.916c-5.833,12.917 -32.917,26.25 -32.917,16.25Z" style="fill-rule:nonzero;"/><path d="M3884.58,1676.67c-1.25,-3.75 -0.416,-15.417 2.084,-25.417c5.416,-19.167 33.75,-67.917 40,-67.917c4.166,0 32.5,23.75 36.666,31.25c2.084,3.334 -2.916,4.584 -16.666,4.584l-19.584,-0.417l-15,31.25c-15.833,32.083 -22.5,39.167 -27.5,26.667Z" style="fill-rule:nonzero;"/><path d="M4005,1636.67c-7.917,-7.917 -5.833,-16.25 6.25,-29.167c9.167,-9.583 14.583,-11.667 30,-11.25c10.417,0 25.833,2.5 33.75,5.417l14.583,5.416l-34.166,17.5c-37.084,18.334 -42.917,19.584 -50.417,12.084Z" style="fill-rule:nonzero;"/><path d="M4658.33,1612.92c0,-4.584 1.667,-9.167 3.75,-10.417c4.584,-2.917 9.584,9.167 6.25,14.583c-3.75,6.667 -10,4.167 -10,-4.166Z" style="fill-rule:nonzero;"/><path d="M3980.83,1540c-7.916,-5.833 -7.916,-6.25 0.417,-21.667c9.583,-18.333 32.083,-43.333 39.167,-43.333c6.666,0 5.833,35.833 -1.667,50c-5.833,11.667 -17.5,20.833 -25.833,20.833c-2.084,0 -7.5,-2.5 -12.084,-5.833Z" style="fill-rule:nonzero;"/><path d="M4154.17,1514.58c-0,-5.833 2.083,-10.416 4.166,-10.416c2.5,-0 4.167,4.583 4.167,10.416c-0,5.834 -1.667,10.417 -4.167,10.417c-2.083,0 -4.166,-4.583 -4.166,-10.417Z" style="fill-rule:nonzero;"/><path d="M4210.42,1508.33c-3.334,-5 8.75,-25 14.583,-25c7.083,0 4.583,23.75 -2.5,26.667c-8.75,3.333 -9.167,3.333 -12.083,-1.667Z" style="fill-rule:nonzero;"/><path d="M4079.17,1457.08c-0,-3.333 3.75,-10.416 7.916,-15.833c7.5,-9.583 8.334,-9.583 11.25,-2.083c1.667,4.166 1.25,10.833 -1.25,14.583c-5.416,8.75 -17.916,11.25 -17.916,3.333Z" style="fill-rule:nonzero;"/><path d="M4000,1340.42c0,-12.084 23.75,-50 29.167,-46.667c10.833,6.667 -0.834,43.75 -16.25,52.083c-11.667,5.834 -12.917,5.417 -12.917,-5.416Z" style="fill-rule:nonzero;"/><path d="M3963.33,1261.67c-6.666,-6.667 -6.25,-13.75 0.834,-19.584c11.666,-9.583 28.333,7.084 18.75,18.75c-5.834,7.084 -12.917,7.5 -19.584,0.834Z" style="fill-rule:nonzero;"/><path d="M2947.92,1637.92c-2.5,-4.584 3.75,-9.584 7.916,-5.834c3.75,3.75 2.917,9.584 -1.25,9.584c-2.5,-0 -5,-1.667 -6.666,-3.75Z" style="fill-rule:nonzero;"/><path d="M2932.08,1476.67c-3.333,-3.334 0.417,-10 5.834,-10c2.083,-0 3.75,2.916 3.75,6.25c-0,6.25 -5,8.333 -9.584,3.75Z" style="fill-rule:nonzero;"/><path d="M2966.67,1476.25c-0,-2.917 4.583,-10.417 10.416,-16.667c5.417,-6.25 10.417,-9.583 10.417,-6.666c0,2.916 -4.583,10.416 -10.417,16.666c-5.416,6.25 -10.416,9.584 -10.416,6.667Z" style="fill-rule:nonzero;"/><path d="M4626.67,1389.58c-3.334,-8.333 5.416,-18.75 15.416,-18.75c9.584,0 10,3.75 1.25,15.834c-7.5,10.833 -13.333,11.666 -16.666,2.916Z" style="fill-rule:nonzero;"/><path d="M3935.42,2975c1.25,-2.083 9.166,-4.167 17.083,-4.167c8.75,0 13.75,1.667 12.083,4.167c-1.25,2.5 -9.166,4.167 -17.083,4.167c-8.75,-0 -13.75,-1.667 -12.083,-4.167Z" style="fill-rule:nonzero;"/><path d="M5211.67,2952.5c-25.417,-10.417 -54.167,-27.5 -46.667,-27.5c7.5,0 61.667,19.167 78.75,28.333l16.667,8.75l-12.5,0c-6.667,0 -23.334,-4.166 -36.25,-9.583Z" style="fill-rule:nonzero;"/><path d="M4337.5,2860.42c-10.417,-12.5 6.25,-29.167 18.75,-18.75c7.917,6.666 7.917,10.416 -0.417,18.333c-7.916,8.333 -11.666,8.333 -18.333,0.417Z" style="fill-rule:nonzero;"/><path d="M4647.92,2862.5c-3.334,-5 8.333,-10 14.583,-6.25c2.5,1.25 3.333,4.583 2.083,6.667c-3.333,5 -13.333,5 -16.666,-0.417Z" style="fill-rule:nonzero;"/><path d="M4446.67,2752.92c-8.334,-20 -14.584,-48.334 -11.667,-55c1.25,-3.334 5.833,-6.25 10.417,-6.25c10.833,-0 15,20.833 10,50.416c-4.167,22.084 -4.167,22.5 -8.75,10.834Z" style="fill-rule:nonzero;"/><path d="M4369.58,2755.83c-4.583,-4.583 -3.333,-60 1.25,-60c5.834,0 13.334,29.167 11.667,45.417c-1.25,13.75 -7.083,20.417 -12.917,14.583Z" style="fill-rule:nonzero;"/><path d="M3945.83,2745.83c0,-2.083 3.75,-4.166 7.917,-4.166c4.583,-0 9.583,2.083 10.833,4.166c1.667,2.5 -2.083,4.167 -7.916,4.167c-5.834,0 -10.834,-1.667 -10.834,-4.167Z" style="fill-rule:nonzero;"/><path d="M4010,2744.17c-4.167,-10.834 1.667,-20 11.667,-18.334c7.083,0.834 9.583,4.167 9.583,11.667c0,7.5 -2.5,10.833 -9.583,11.667c-5.417,0.833 -10.417,-1.25 -11.667,-5Z" style="fill-rule:nonzero;"/><path d="M4087.5,2737.92c0,-4.584 1.667,-9.167 3.75,-10.417c4.583,-2.917 9.583,9.167 6.25,14.583c-3.75,6.667 -10,4.167 -10,-4.166Z" style="fill-rule:nonzero;"/><path d="M4516.67,2737.92c-6.25,-11.667 -5,-43.334 1.666,-52.5c5.417,-7.5 6.25,-7.084 14.584,6.25c10.833,17.916 10.833,23.333 0.416,40.833c-9.583,15.417 -10.833,15.833 -16.666,5.417Z" style="fill-rule:nonzero;"/><path d="M4677.08,2727.5c-10.416,-24.583 -20.416,-97.5 -15,-109.167c6.25,-14.166 10.834,-12.5 18.75,7.084c13.334,33.333 17.084,107.5 5.834,114.583c-1.667,1.25 -6.25,-4.583 -9.584,-12.5Z" style="fill-rule:nonzero;"/><path d="M4300,2720.83c0,-5.416 2.083,-8.333 5.417,-7.083c2.5,0.833 5,4.167 5,7.083c-0,2.917 -2.5,6.25 -5,7.5c-3.334,0.834 -5.417,-2.083 -5.417,-7.5Z" style="fill-rule:nonzero;"/><path d="M4957.92,2647.08c-7.5,-20.416 -12.084,-51.25 -12.084,-84.166c0,-30.417 4.584,-47.5 10,-38.75c7.5,12.083 15,57.5 15,91.25c0,39.583 -5,52.083 -12.916,31.666Z" style="fill-rule:nonzero;"/><path d="M5105.42,2576.25c-5.417,-18.75 -4.167,-112.5 1.666,-118.333c13.334,-13.334 23.334,57.5 13.75,101.666c-5.416,27.5 -10.833,32.917 -15.416,16.667Z" style="fill-rule:nonzero;"/><path d="M3284.58,975.833c-17.916,-18.333 -54.583,-73.333 -57.916,-86.666c-3.334,-13.334 10.833,-35 36.666,-55.834c32.5,-25.833 33.75,-23.75 17.5,24.584c-10,30.416 -10.416,32.916 -4.583,47.083c8.333,20 32.917,35.833 62.917,40.833c23.333,3.75 35.833,9.584 35.833,17.084c0,5.833 -22.5,15.833 -50,22.083l-25.417,5.833l-15,-15Z" style="fill-rule:nonzero;"/><path d="M116.667,964.583c-0,-2.916 6.666,-6.666 15.416,-8.333c8.334,-1.25 20.417,-7.917 27.084,-14.583c19.583,-19.584 20.416,-15.417 -61.25,-347.917c-8.334,-34.167 -17.917,-67.5 -21.25,-73.75c-7.5,-14.583 -33.75,-22.5 -56.667,-16.667c-11.667,2.917 -15.833,2.917 -15.833,-0.833c-0,-4.167 82.916,-26.25 190.833,-51.25c16.667,-3.75 9.583,6.667 -7.5,11.25c-9.167,2.5 -21.667,8.75 -27.917,14.583c-10.416,8.334 -11.666,12.5 -10.833,32.084c0.417,17.916 35.417,172.916 39.583,176.25c1.25,0.833 221.25,-52.084 223.334,-54.167c1.666,-1.667 -40.417,-167.083 -45.417,-178.333c-7.917,-17.084 -30,-24.584 -57.5,-19.584c-11.667,2.084 -17.083,1.667 -17.083,-1.666c-0,-2.5 40,-14.167 90.833,-26.667c49.583,-12.083 95,-22.917 100.417,-24.583c16.666,-4.167 8.333,7.5 -10,13.333c-25.417,8.75 -37.5,23.75 -36.667,45c0.833,23.75 87.5,377.083 95,389.167c9.583,14.583 22.083,19.166 48.75,17.083c15.417,-1.25 23.75,-0.417 22.917,2.5c-1.25,4.167 -195,53.333 -198.334,50.417c-3.333,-3.75 5,-10 16.25,-12.5c7.084,-1.667 18.334,-7.5 25,-13.334c10.834,-9.166 12.5,-12.916 12.5,-31.666c0,-20 -35,-176.25 -41.25,-182.917c-4.583,-5 -219.166,49.167 -220.416,55.417c-1.25,7.5 35,158.75 42.916,177.083c8.75,21.25 22.917,28.333 52.084,25.417c27.916,-2.5 33.333,2.916 9.583,9.166c-88.333,23.75 -184.583,44.167 -184.583,40Z" style="fill-rule:nonzero;"/><path d="M3420.83,960.833c0,-5.833 2.084,-10.833 4.167,-10.833c2.5,0 4.167,3.75 4.167,7.917c-0,4.583 -1.667,9.583 -4.167,10.833c-2.5,1.667 -4.167,-2.083 -4.167,-7.917Z" style="fill-rule:nonzero;"/><path d="M7245.42,925c-10.834,-4.167 -29.167,-13.75 -40.834,-20.833c-15,-9.167 -25,-12.917 -34.583,-11.667c-11.667,0.833 -13.75,0 -12.5,-7.083c3.333,-20.834 30.833,-102.084 33.75,-100.417c2.083,1.25 4.583,16.25 5.417,33.75c1.666,25 4.583,35 14.166,50.833c40,65 126.667,61.25 126.667,-5c0,-24.166 -10,-39.583 -59.167,-91.666c-25,-26.667 -48.333,-55 -51.666,-62.5c-8.334,-20 -7.084,-42.5 2.916,-64.584c16.667,-37.083 44.584,-55.416 84.167,-55.416c20.833,-0 30,2.5 63.75,20c33.75,17.5 40.833,19.583 47.5,15.416c10.833,-6.666 12.5,-6.25 12.083,2.5c-0.416,14.167 -27.083,94.167 -32.083,95.834c-3.333,0.833 -5,-5.417 -5,-20.834c0,-43.333 -14.583,-70.833 -46.25,-86.666c-17.917,-9.584 -46.667,-10.834 -62.083,-2.917c-5.834,2.917 -13.75,12.083 -18.334,21.25c-13.333,27.083 -5.833,41.667 53.75,102.5c27.917,28.75 54.584,58.75 58.75,66.667c9.584,18.75 10.417,59.583 0.834,77.083c-9.584,18.333 -27.917,35.417 -47.084,44.167c-22.5,10.416 -68.333,10 -94.166,-0.417Z" style="fill-rule:nonzero;"/><path d="M3408.33,894.583c-21.666,-12.5 -22.083,-13.333 -11.25,-14.583c14.584,-1.667 42.084,11.25 43.75,21.25c2.084,10.417 -6.666,8.75 -32.5,-6.667Z" style="fill-rule:nonzero;"/><path d="M2818.33,885.417c-5,-12.917 37.5,-60.417 54.167,-60.417c9.583,0 12.083,15 4.583,29.167c-6.666,12.916 -40,37.5 -50.833,37.5c-3.333,-0 -6.667,-2.917 -7.917,-6.25Z" style="fill-rule:nonzero;"/><path d="M7017.92,850.833c-39.584,-10.416 -72.084,-20.833 -72.084,-22.5c0,-1.666 8.334,-3.333 18.334,-3.333c24.166,-0 30.833,-2.917 37.916,-16.667c10,-19.583 60.417,-211.25 60.417,-230c0,-13.75 -12.083,-24.166 -28.333,-24.166c-8.334,-0 -13.334,-2.084 -13.334,-5.417c0,-4.167 14.167,-7.5 51.25,-12.083c27.917,-3.334 53.75,-5 57.5,-3.75c5.417,2.083 0.834,22.5 -30,137.916c-20.416,74.584 -36.666,142.917 -36.666,152.5c-0.417,18.334 9.583,31.25 27.916,37.084c9.584,2.916 12.917,10.833 4.167,10c-2.917,-0 -37.917,-8.75 -77.083,-19.584Z" style="fill-rule:nonzero;"/><path d="M650,837.917c0,-2.084 4.583,-5 10.417,-6.25c18.75,-4.584 27.083,-17.084 27.083,-39.584c0,-25.416 -35,-192.916 -46.667,-222.5c-6.25,-16.25 -20.833,-21.25 -38.75,-13.333c-11.666,4.583 -14.583,4.583 -14.583,0.417c0,-7.5 91.25,-67.5 95.417,-62.5c2.083,2.083 16.25,63.75 31.666,137.083c15.417,73.333 30.834,140.417 34.167,149.167c7.5,18.75 15.833,23.75 38.333,23.75c33.334,-0 15.834,6.666 -56.666,22.083c-82.084,17.083 -80.417,17.083 -80.417,11.667Z" style="fill-rule:nonzero;"/><path d="M852.917,749.167c-10.834,-52.917 -11.25,-67.917 -1.25,-51.667c30.833,51.667 55,70 95.833,72.5c54.167,3.333 85,-32.083 65.833,-75.417c-9.583,-22.083 -31.25,-34.166 -92.5,-52.916c-57.916,-17.5 -81.25,-30.834 -94.166,-52.084c-20.834,-35.833 -17.084,-77.5 10,-107.083c22.916,-25.833 44.583,-33.333 90,-32.917c42.5,0.417 52.5,-1.666 52.5,-10.416c-0,-3.334 2.5,-5.834 5.833,-5.834c3.75,0 8.333,14.167 14.583,45c9.584,48.334 10.417,59.167 5.417,59.167c-1.667,0 -6.667,-7.083 -11.25,-15.417c-20.833,-39.166 -44.583,-55.416 -81.25,-55.416c-44.583,-0 -73.333,28.333 -63.333,62.083c7.083,22.5 24.583,36.25 60.416,46.667c16.667,4.583 45.417,13.333 64.167,18.75c40.833,12.083 66.25,30 79.583,55.833c24.584,48.75 0,105 -57.083,130.417c-15.417,7.083 -29.167,8.75 -68.75,9.583c-40,0.833 -50.417,2.5 -53.333,7.5c-2.084,3.75 -5.417,6.667 -7.084,6.667c-1.666,-0 -8.333,-24.584 -14.166,-55Z" style="fill-rule:nonzero;"/><path d="M6758.33,796.25c-36.25,-11.25 -66.666,-37.917 -85.833,-75.417c-30,-59.583 -9.583,-167.5 42.083,-218.75c26.667,-26.666 56.25,-40.416 92.084,-42.916c80.416,-5 139.166,46.666 139.166,122.5c0,16.666 -1.666,31.25 -3.333,32.5c-2.083,1.25 -52.083,-9.167 -111.25,-22.917c-84.167,-19.583 -108.333,-23.75 -110.833,-19.583c-1.667,2.916 -4.584,16.666 -5.834,30.833c-7.5,68.333 27.5,129.583 83.334,145.833c40,11.25 75.833,0.417 103.75,-32.083c16.666,-20 24.166,-19.167 14.166,1.667c-11.666,24.166 -44.166,55.833 -70.833,69.166c-20.417,10.417 -30.417,12.917 -50.833,12.5c-14.167,0 -30,-1.666 -35.834,-3.333Zm122.084,-230.417c4.583,-40.833 -17.084,-77.5 -51.667,-86.666c-38.75,-10.417 -83.75,15 -99.583,55.833c-2.5,6.667 -3.75,12.5 -2.917,13.333c1.667,2.084 137.083,34.167 145,34.584c5.417,0.416 7.5,-4.167 9.167,-17.084Z" style="fill-rule:nonzero;"/><path d="M1193.75,731.667c-29.583,-12.917 -32.917,-23.334 -58.75,-172.5l-20.417,-118.334l-18.75,2.917c-10.416,1.25 -22.083,3.333 -25.833,4.583c-12.5,3.75 -8.75,-4.166 12.5,-25.833c23.333,-24.167 43.75,-62.5 51.25,-95.417c8.333,-37.916 12.083,-32.5 22.917,35c5.833,36.667 8.75,46.25 14.166,46.25c7.5,0 52.5,-7.5 62.917,-10.833c5,-1.25 7.5,1.25 8.75,8.333c2.5,12.084 2.5,12.084 -41.25,19.584c-21.25,3.333 -30.417,7.083 -30.417,11.25c0,14.583 38.75,224.583 43.334,236.25c3.333,7.916 10.833,15.416 17.916,18.333c17.084,7.083 40,-2.5 49.167,-20c7.5,-15 16.667,-17.5 12.083,-3.333c-9.583,31.25 -27.083,52.5 -52.5,63.333c-18.75,7.5 -30.416,7.917 -47.083,0.417Z" style="fill-rule:nonzero;"/><path d="M6468.75,724.583c-32.083,-6.666 -68.333,-14.166 -80.417,-16.666c-25,-5 -25,-12.084 -0.416,-12.084c24.583,0 32.083,-5.833 38.75,-30.416c10.833,-37.917 40,-193.334 40,-212.5c-0,-22.5 -9.167,-32.084 -30.417,-32.084c-17.083,0 -20.833,-7.083 -5.833,-10c57.5,-12.5 100.416,-19.166 103.333,-16.25c2.083,2.084 0.833,17.5 -2.5,36.25c-3.333,17.917 -6.25,33.334 -6.25,34.584c0,0.833 10.417,-7.5 23.75,-19.167c28.75,-25.417 45,-33.75 67.917,-33.75c34.583,0 55.416,40 32.083,61.667c-14.167,13.333 -25.833,11.25 -46.25,-7.5c-24.167,-22.084 -33.75,-21.667 -60.833,3.333l-21.667,19.583l-18.333,91.667c-12.5,61.25 -17.5,96.667 -15.834,107.083c2.5,16.667 16.25,30.834 33.75,35c5,1.667 9.584,5 9.584,8.334c-0,3.333 -0.417,5.833 -0.834,5.416c-0.833,-0.416 -27.5,-5.833 -59.583,-12.5Z" style="fill-rule:nonzero;"/><path d="M1420.83,693.333c-50.833,-18.333 -90.833,-65 -106.666,-123.333c-16.25,-61.667 3.333,-133.75 47.916,-175.417c32.5,-30.416 52.5,-37.916 102.5,-38.333c35.417,0 44.584,1.25 61.25,9.583c32.917,16.25 59.584,43.75 77.084,78.75c13.75,27.917 15.833,35.834 17.083,69.584c3.75,83.333 -26.667,140.416 -90.417,170.416c-33.333,15.834 -79.166,19.584 -108.75,8.75Zm94.584,-22.916c14.583,-5.417 33.333,-22.5 42.083,-39.167c5.417,-9.583 7.083,-22.917 6.667,-56.25c-0.417,-135 -79.167,-230.833 -156.25,-190.417c-13.75,7.5 -21.25,15.417 -29.584,31.667c-10,19.167 -11.666,27.083 -11.666,58.75c-0,122.917 75.833,222.917 148.75,195.417Z" style="fill-rule:nonzero;"/><path d="M6274.17,687.917c-36.25,-6.25 -67.084,-12.917 -68.334,-14.167c-1.666,-1.667 0.834,-3.75 5,-5c15,-5 20.417,-9.167 21.667,-17.083c0.417,-4.167 -18.75,-44.584 -43.333,-89.167c-33.75,-62.5 -42.917,-82.083 -38.334,-84.583c2.917,-2.084 32.5,-21.667 65.834,-43.75c50.833,-33.75 60.833,-42.084 61.666,-51.667c1.25,-9.167 -0.833,-12.5 -9.166,-16.667c-14.167,-6.25 -13.75,-13.333 0.833,-10.416c6.25,1.25 37.083,6.25 68.75,11.666c59.167,9.584 73.333,16.25 34.583,16.25c-32.5,0 -50.833,7.917 -115.416,50.417l-57.917,37.917l15.417,27.916c45,81.25 74.166,132.917 82.5,146.25c15.416,24.167 34.583,41.25 50,44.167c15.416,2.917 15.833,10.417 0.833,9.583c-5,-0.416 -38.75,-5.416 -74.583,-11.666Z" style="fill-rule:nonzero;"/><path d="M6083.33,655.833c-30.833,-5 -62.5,-10.833 -69.583,-12.083c-20,-3.75 -16.667,-10.417 4.583,-10.417c24.167,0 30.834,-2.916 37.917,-17.083c6.25,-11.667 68.75,-376.667 68.75,-400.417c-0,-21.666 -6.25,-28.333 -27.5,-28.333c-33.75,0 -18.333,-9.167 35.833,-21.667c33.75,-7.916 52.917,-10.416 55.417,-7.916c2.917,2.916 -8.333,79.166 -32.083,223.333c-20,120.417 -36.667,227.5 -36.667,237.5c-0.417,22.5 7.917,33.333 28.333,37.083c17.084,3.334 19.167,10.834 2.917,10.417c-6.667,-0.417 -37.083,-5 -67.917,-10.417Z" style="fill-rule:nonzero;"/><path d="M1683.33,655c0,-1.667 9.167,-7.083 20.834,-12.083c15.416,-6.667 21.25,-11.667 23.333,-20c3.75,-14.167 -25,-227.084 -32.5,-242.5c-5.417,-10.834 -7.5,-11.667 -29.583,-11.25c-12.917,0.416 -23.75,-0.417 -23.75,-2.084c-0,-3.75 91.25,-54.583 97.916,-54.583c6.25,-0 8.75,9.167 12.917,45c2.917,26.667 7.083,32.917 11.667,16.667c4.166,-17.917 32.083,-57.084 45.833,-65.417c16.25,-10.417 35.833,-11.25 52.083,-2.5c19.167,9.583 23.75,37.083 8.75,52.083c-10.416,10.417 -20.833,10.417 -41.666,0c-31.25,-15.833 -43.334,-9.166 -61.667,33.75c-7.917,18.334 -7.917,19.167 3.333,104.584c6.25,47.083 13.75,92.916 16.667,101.25c5.833,17.916 25,31.25 45,31.25c7.083,-0 13.333,2.083 13.333,4.166c0,2.5 -1.25,4.167 -2.916,4.167c-2.084,-0 -37.917,4.583 -80,10.417c-88.334,12.083 -79.584,11.25 -79.584,7.083Z" style="fill-rule:nonzero;"/><path d="M5843.75,630.417c-4.583,-0.834 -22.083,-6.25 -38.75,-12.5c-21.667,-7.5 -34.167,-9.584 -45,-7.917l-14.583,2.917l2.083,-13.75c1.25,-7.5 4.167,-28.75 6.667,-47.084c5.833,-44.583 7.916,-52.083 12.5,-52.083c2.5,-0 4.166,4.583 4.166,9.583c0,5.417 2.5,18.75 5.834,29.584c14.166,46.666 48.333,75 90.416,75.416c28.75,0 44.584,-9.583 53.334,-32.5c7.083,-19.583 3.333,-40.416 -11.25,-57.916c-6.25,-7.084 -32.5,-28.75 -58.334,-47.917c-59.166,-43.75 -71.666,-60.417 -71.666,-93.75c-0,-78.75 64.166,-114.167 149.166,-82.917c30.417,11.25 33.75,11.667 42.084,5.834c5,-3.334 10.416,-5 11.666,-3.75c2.5,2.5 -4.166,67.916 -9.583,95.416c-3.333,16.667 -8.75,13.75 -12.083,-6.25c-3.75,-22.916 -16.667,-52.5 -27.917,-64.583c-13.75,-14.583 -41.667,-23.333 -66.667,-21.25c-17.916,2.083 -23.75,4.583 -33.75,15.833c-10.833,12.084 -12.083,15.834 -10.416,34.167c2.5,25.417 15,39.167 67.916,75c75,50.833 95,81.25 85,129.167c-10.833,50 -72.5,83.75 -130.833,71.25Z" style="fill-rule:nonzero;"/><path d="M1947.08,619.583c0.834,-2.5 7.084,-6.25 13.75,-7.916c30.834,-7.917 32.5,-20.834 18.334,-140.834c-17.084,-145.833 -18.334,-148.333 -63.334,-135c-4.166,1.25 -7.5,0.417 -7.5,-2.083c0,-5.417 87.084,-54.583 96.667,-54.583c8.333,-0 7.5,-5 26.25,156.25c8.333,68.75 16.667,131.25 19.167,138.75c5.416,15.833 14.583,21.666 35,21.666c10.416,0 14.583,1.667 13.75,5.417c-1.25,3.333 -22.917,7.5 -62.084,12.083c-32.916,3.75 -67.083,7.917 -75.833,8.75c-10.417,1.667 -15.417,0.834 -14.167,-2.5Z" style="fill-rule:nonzero;"/><path d="M2160.83,592.917c-0.833,-6.667 -2.916,-24.584 -4.583,-40.834c-1.25,-15.833 -3.333,-36.25 -4.583,-44.583c-3.334,-22.083 4.583,-20 15,4.167c18.333,41.666 55,67.083 96.25,67.5c48.75,-0 74.583,-36.667 55,-77.917c-8.334,-18.333 -27.084,-30.417 -74.167,-49.583c-55,-22.084 -74.167,-32.917 -88.75,-49.167c-18.333,-20.833 -24.167,-44.583 -17.917,-73.333c5.834,-28.75 21.667,-48.75 50.834,-63.75c22.083,-11.667 23.75,-12.084 67.916,-9.167c39.167,2.083 46.25,1.667 52.917,-4.583c4.583,-3.75 9.167,-6.25 10.417,-5c3.75,4.166 12.916,103.75 9.583,105.833c-2.083,1.25 -8.333,-8.333 -14.167,-20.833c-14.583,-31.25 -25.833,-43.75 -45.416,-52.917c-59.584,-27.083 -120.834,19.583 -90,68.75c9.583,16.25 27.916,26.25 77.083,44.167c50,18.333 73.333,30.416 89.583,46.666c34.167,34.167 33.75,87.084 -1.25,123.334c-28.75,30.416 -68.333,40.833 -126.25,33.75c-30.833,-3.75 -36.666,-3.75 -42.916,2.083c-10,9.167 -12.084,8.333 -14.584,-4.583Z" style="fill-rule:nonzero;"/><path d="M5606.25,592.083c-18.75,-9.583 -29.167,-24.166 -32.917,-46.25c-1.666,-7.916 3.75,-70 11.667,-137.5c7.917,-67.5 13.333,-123.75 12.5,-124.583c-0.833,-0.833 -12.083,-2.5 -24.583,-3.75c-28.334,-2.5 -29.167,-8.75 -3.75,-20.833c25.833,-12.5 61.25,-47.084 79.166,-76.667c15,-25 24.167,-31.25 20.834,-14.583c-4.584,20 -11.25,95 -9.167,98.333c1.25,2.083 18.333,5 37.917,6.667c33.75,2.5 35.416,3.333 35.416,12.916c0,8.75 -1.666,10 -15.416,9.584c-8.75,-0 -26.667,-1.667 -39.584,-3.334c-13.333,-1.666 -24.166,-1.25 -24.166,0.417c-0,2.083 -5.417,51.667 -12.5,110.417c-15,127.083 -15,134.166 -3.75,148.75c12.083,15.416 39.583,15.416 55,-0c16.666,-16.667 20.833,-10 5.833,9.583c-25.833,33.333 -62.917,45.833 -92.5,30.833Z" style="fill-rule:nonzero;"/><path d="M5412.5,570.417c-17.083,-1.667 -42.917,-4.584 -57.083,-5.834c-27.5,-2.916 -36.25,-10.416 -12.5,-10.416c17.5,-0 30.416,-9.167 35.833,-26.25c5.417,-17.084 21.25,-175.834 21.25,-214.167c-0,-16.667 -2.083,-30.833 -5,-33.75c-2.917,-2.917 -13.333,-5 -23.333,-5c-12.5,0 -17.5,-1.667 -16.667,-5c2.083,-5.833 86.25,-32.5 102.5,-32.5c9.583,0 10,1.25 7.5,20c-8.75,67.917 -26.667,271.667 -24.583,281.25c2.916,13.75 19.583,27.917 32.916,27.917c5.417,-0 10,2.083 10,4.166c0,4.584 -25.416,4.584 -70.833,-0.416Z" style="fill-rule:nonzero;"/><path d="M2536.25,566.667c-63.75,-15.834 -108.333,-78.334 -114.167,-160.417c-4.166,-55.833 9.584,-97.917 43.334,-135.417c57.916,-64.166 165.416,-65 204.166,-0.833c12.084,19.583 12.084,27.917 -0.833,40.417c-12.083,12.5 -34.583,13.75 -47.083,3.333c-4.584,-4.167 -11.667,-18.333 -15,-31.25c-8.334,-30 -20,-38.75 -50,-38.333c-44.584,0.833 -71.25,28.333 -81.25,83.333c-14.584,79.583 30.833,171.667 90.833,184.583c52.083,11.25 97.5,-16.666 117.5,-71.25c2.917,-8.75 7.5,-15.833 10.417,-15.833c6.666,0 -3.334,43.75 -15.417,67.5c-12.917,25.417 -43.333,55.417 -65.417,65c-24.166,10.417 -55.833,14.167 -77.083,9.167Z" style="fill-rule:nonzero;"/><path d="M5125,552.5c-29.583,-6.667 -43.75,-14.167 -66.25,-36.667c-45,-44.583 -57.917,-118.333 -34.167,-195c15.417,-48.75 52.5,-88.75 95.834,-103.333c20,-7.083 70.416,-6.25 92.916,1.667c42.5,14.166 73.334,56.25 77.5,104.583c2.084,25.417 1.667,26.25 -7.916,26.25c-5.417,0 -55,-3.75 -110,-8.333c-55,-4.584 -102.5,-8.334 -105,-8.334c-11.667,0 -2.917,71.667 12.083,102.084c18.333,36.666 53.75,62.916 90,67.5c40,4.583 74.167,-12.917 95.417,-48.334c10,-16.666 14.166,-20.833 16.25,-15.833c4.166,11.25 -17.084,51.25 -40,75.417c-32.917,35 -72.5,47.916 -116.667,38.333Zm95.833,-244.167c0,-38.333 -20,-65.833 -54.166,-75c-41.25,-11.25 -88.75,22.917 -98.334,70c-2.5,12.5 -2.083,13.334 9.167,13.75c6.667,0 38.333,2.917 70.417,5.834c32.083,2.916 61.666,5.416 65.833,5.833c5.833,0.417 7.083,-3.333 7.083,-20.417Z" style="fill-rule:nonzero;"/><path d="M2745.83,540.417c0,-3.75 6.25,-7.084 16.25,-8.75c24.167,-3.75 29.584,-14.167 29.584,-54.584c-0,-36.666 -19.167,-339.583 -23.334,-367.5c-3.333,-23.75 -13.333,-32.083 -35,-29.166c-9.166,1.25 -17.5,0.833 -18.333,-0.834c-2.083,-3.333 90.417,-50.416 99.167,-50.416c6.666,-0 8.75,17.916 15,133.333c2.5,44.583 5.416,87.5 6.666,95l2.084,14.167l25.416,-27.917c29.584,-32.083 57.084,-47.917 84.167,-47.917c32.917,0 54.583,12.917 69.583,42.5c12.084,23.75 15.834,46.25 22.5,145.834c3.334,50.833 8.334,99.166 10.834,106.666c5,15.417 14.583,21.667 32.5,21.667c13.75,0 17.5,6.667 5.833,10c-4.167,0.833 -32.917,2.917 -63.75,4.583c-30.833,1.25 -63.333,3.334 -72.5,4.584c-12.5,2.083 -15.417,1.25 -14.167,-2.917c1.25,-3.333 8.75,-7.083 17.084,-8.333c8.333,-1.25 19.583,-5.834 24.166,-10.417c8.75,-7.5 8.75,-10 6.25,-74.583c-3.333,-92.917 -10,-155.417 -17.916,-171.667c-19.167,-40.833 -86.25,-32.083 -121.667,15.833l-8.75,11.667l6.25,99.167c3.75,54.583 8.333,105 10.833,112.083c4.584,14.167 18.334,22.5 37.084,22.5c6.666,0 12.916,1.667 14.166,3.75c2.917,4.583 -21.666,7.917 -87.083,10.833c-27.5,1.667 -55,3.334 -61.25,4.584c-8.333,1.666 -11.667,0.833 -11.667,-3.75Z" style="fill-rule:nonzero;"/><path d="M4750,527.5c-23.75,-5 -60.417,-21.667 -79.167,-35.833l-10,-7.5l7.5,-141.25c11.25,-210 12.917,-272.917 7.084,-283.75c-4.167,-7.5 -8.75,-9.167 -25.417,-9.167c-11.667,0 -20.833,-1.667 -20.833,-3.75c-0,-4.167 107.083,-40.833 110.416,-37.5c1.25,1.25 -0.416,52.083 -4.166,112.5c-3.334,60.417 -6.25,114.583 -6.25,120c-0,8.75 2.916,7.083 26.666,-15.417c31.25,-29.166 59.167,-40.833 88.334,-36.666c58.75,7.916 102.916,62.916 108.333,134.166c7.5,99.167 -45.833,180.834 -133.75,203.334c-28.75,7.5 -37.5,7.916 -68.75,0.833Zm79.583,-25.833c31.667,-15.834 54.584,-55.417 62.084,-108.334c9.166,-63.75 -8.334,-118.75 -45.417,-145.416c-24.583,-17.084 -60,-17.917 -88.333,-1.25c-10.417,6.25 -21.667,14.166 -24.584,17.916c-4.166,5 -7.5,34.584 -11.25,105.417c-5,92.083 -5,98.75 1.667,106.25c28.333,31.25 72.917,42.083 105.833,25.417Z" style="fill-rule:nonzero;"/><path d="M3237.5,521.25c-60.417,-19.583 -99.583,-70 -108.333,-139.167c-14.584,-117.083 47.5,-202.916 147.083,-202.916c63.333,-0 112.917,42.5 121.667,104.583l2.916,19.167l-66.25,2.916c-36.25,1.25 -87.916,3.75 -114.583,5.417l-49.167,2.5l2.5,17.083c9.584,67.5 40.417,114.167 87.084,131.667c18.75,7.083 56.25,6.25 75,-1.667c22.916,-9.583 41.666,-28.75 52.083,-53.75c12.083,-27.916 20,-20.833 10.833,10.417c-12.083,41.667 -43.75,80.833 -77.5,96.25c-20,9.167 -66.25,13.333 -83.333,7.5Zm78.333,-232.083c12.917,-2.084 13.75,-2.917 11.25,-15.417c-5.416,-27.5 -10.833,-39.167 -24.166,-52.083c-47.084,-45.417 -117.917,-14.584 -130,56.666l-2.917,17.917l66.25,-2.5c36.25,-1.25 72.083,-3.333 79.583,-4.583Z" style="fill-rule:nonzero;"/><path d="M4450,507.917c-87.917,-3.334 -83.333,-2.917 -83.333,-7.5c-0,-1.667 7.916,-4.584 17.083,-5.834c30.833,-4.166 34.583,-11.666 37.5,-75c1.667,-30 3.333,-85.416 3.333,-122.5c0.417,-63.75 0,-68.333 -8.333,-76.666c-7.083,-7.084 -12.083,-8.334 -25.417,-6.25c-31.25,5 -14.583,-6.667 36.25,-25c27.084,-10 50.834,-18.334 52.917,-18.334c1.667,0 3.333,17.5 3.75,38.75l0,38.334l9.167,-12.084c29.583,-39.583 57.083,-60.833 78.75,-60.833c14.166,0 36.25,15 41.25,27.5c5,13.333 1.666,24.167 -10,35c-12.084,11.667 -23.75,10.417 -43.75,-4.167c-27.917,-20 -40,-15.833 -67.5,24.167c-8.75,12.917 -9.584,20 -12.5,101.667c-1.667,48.333 -2.5,90.833 -1.667,94.583c5,26.25 7.083,30.417 19.583,37.917c7.084,4.583 18.334,8.333 25,8.333c7.084,0 11.25,2.083 11.25,6.25c0,3.333 -2.5,5.833 -5,5.417c-2.916,-0.417 -38.333,-2.084 -78.333,-3.75Z" style="fill-rule:nonzero;"/><path d="M3441.67,504.583c-0,-2.083 8.333,-5.833 18.75,-8.333c32.916,-8.333 32.916,-8.75 30,-140.417c-3.334,-136.666 -3.334,-137.083 -35.417,-137.083c-12.5,0.417 -21.667,-1.667 -21.667,-4.167c0,-4.583 90,-43.75 101.25,-43.75c6.25,0 7.084,4.584 7.084,35.417c-0,19.583 1.25,35.417 3.333,35c1.667,0 10.417,-11.25 19.167,-25.417c21.25,-32.5 47.916,-50.833 70.416,-47.916c40.417,5.416 52.5,50.416 17.5,66.25c-8.333,3.75 -13.75,2.5 -32.916,-8.75c-12.917,-7.084 -25.834,-12.917 -28.75,-12.917c-6.667,-0 -23.75,17.917 -35.417,37.917c-8.333,14.166 -9.167,20.416 -9.167,87.5c0.417,100.416 4.584,132.083 18.75,144.166c5.834,5.417 18.334,10.834 27.5,12.084c30.834,5 16.25,8.75 -47.083,11.25c-83.75,3.75 -103.333,3.75 -103.333,-0.834Z" style="fill-rule:nonzero;"/><path d="M4190.83,501.25c-35,-1.667 -42.5,-7.083 -16.25,-11.25c10.834,-1.667 19.584,-6.25 25.417,-13.75c11.667,-14.583 9.583,-25.833 -15.833,-88.75l-19.584,-47.917l-195.416,0l-20.417,47.5c-30.833,72.084 -30.417,91.667 2.917,98.334c22.083,4.583 27.5,6.666 27.5,10.833c-0,2.083 -31.25,3.75 -75,3.75c-61.25,0 -75,-1.25 -75,-5.833c-0,-3.334 6.25,-7.084 14.166,-8.334c17.917,-3.333 32.5,-15 45,-35c5,-8.333 51.667,-112.083 103.334,-230c57.5,-130.416 96.25,-214.583 99.583,-214.583c3.75,-0 38.333,79.583 92.083,210.417c47.084,115.833 90.834,220 97.084,232.083c13.333,25.833 27.916,37.917 49.583,41.25c9.167,1.667 15.833,5 15.833,8.333c0,4.584 -11.666,5.834 -61.25,5c-34.166,-0.416 -76.25,-1.666 -93.75,-2.083Zm-38.333,-191.667c-10.833,-30.416 -80,-197.083 -81.667,-197.083c-1.666,0 -77.5,170 -85.833,192.5c-2.083,6.667 3.333,7.5 72.083,8.75c40.834,0.417 79.584,1.667 86.25,2.083c9.584,0.834 11.25,-0.416 9.167,-6.25Z" style="fill-rule:nonzero;"/><path d="M7128.33,422.917c-20,-11.25 -22.5,-39.584 -5,-55c30.834,-27.917 74.167,15.416 46.667,46.25c-12.083,13.333 -27.5,16.666 -41.667,8.75Z" style="fill-rule:nonzero;"/><path d="M606.667,387.083c-8.334,-6.666 -10.834,-12.083 -10.834,-24.166c0,-30.834 34.584,-45.417 56.25,-23.334c30.417,30 -11.666,74.167 -45.416,47.5Z" style="fill-rule:nonzero;"/><path d="M1955.83,175c-11.666,-4.583 -22.5,-20 -22.5,-32.5c0,-12.917 21.667,-34.167 34.584,-34.167c13.333,0 30.416,13.75 33.75,27.084c3.333,13.75 -7.5,34.583 -20.834,39.583c-12.083,5 -13.333,5 -25,0Z" style="fill-rule:nonzero;"/><path d="M5439.17,127.5c-17.5,-7.917 -26.25,-28.75 -17.917,-43.75c14.167,-25 41.667,-27.083 59.167,-4.167c11.25,15.417 6.666,35 -10.834,45.834c-15.416,9.166 -14.166,9.166 -30.416,2.083Z" style="fill-rule:nonzero;"/></g></svg>