<?xml version="1.0" encoding="UTF-8" standalone="no"?><!DOCTYPE svg PUBLIC "-//W3C//DTD SVG 1.1//EN" "http://www.w3.org/Graphics/SVG/1.1/DTD/svg11.dtd"><svg width="100%" height="100%" viewBox="0 0 8334 8334" version="1.1" xmlns="http://www.w3.org/2000/svg" xmlns:xlink="http://www.w3.org/1999/xlink" xml:space="preserve" xmlns:serif="http://www.serif.com/" style="fill-rule:evenodd;clip-rule:evenodd;stroke-linejoin:round;stroke-miterlimit:2;"><circle cx="4166.67" cy="4166.67" r="4166.67" style="fill:#063b37;"/><path d="M4165.89,6451.24c-23.9,-13.187 -57.69,-18.132 -173.071,-24.725c-192.028,-11.538 -227.466,-18.955 -261.256,-55.218c-14.835,-15.659 -27.197,-32.142 -27.197,-36.263c-0,-4.12 -3.297,-7.417 -8.242,-7.417c-4.12,-0 -8.241,21.428 -9.889,47.801c-1.649,37.086 -4.945,46.152 -14.835,43.68c-6.593,-1.649 -30.494,-8.242 -53.57,-14.835c-22.252,-6.593 -109.612,-14.835 -193.675,-19.78c-84.064,-4.945 -157.413,-9.889 -163.182,-11.538c-7.418,-3.296 -9.066,-14.834 -4.945,-44.504c4.945,-38.735 4.121,-41.207 -14.011,-45.328c-72.525,-13.187 -85.711,-18.132 -88.184,-32.142c-3.296,-16.483 118.678,-256.311 198.62,-388.999c29.67,-49.449 75.822,-119.502 102.195,-154.116c60.163,-79.119 119.502,-189.555 116.205,-214.28c-6.593,-46.152 -87.36,-11.538 -155.764,65.933c-47.801,55.218 -205.214,322.242 -298.343,508.5c-43.68,87.36 -57.69,102.195 -131.864,135.161c-45.328,20.604 -57.69,30.494 -67.58,53.57c-6.593,14.835 -18.131,30.494 -26.373,33.79c-8.241,3.297 -78.294,9.066 -155.764,12.362c-77.471,4.121 -164.006,11.539 -192.027,17.308c-50.274,10.714 -52.746,10.714 -92.305,-11.539c-32.966,-18.955 -51.098,-23.076 -103.843,-24.724c-56.867,-1.648 -64.284,-3.297 -66.756,-18.131c-7.418,-35.439 -14.835,-37.911 -120.326,-32.142c-70.877,3.296 -107.14,2.472 -124.447,-4.945c-13.187,-5.769 -67.581,-13.187 -120.326,-15.659c-97.25,-5.769 -126.095,-14.835 -117.03,-38.735c2.473,-6.593 15.659,-14.835 29.67,-18.131c14.01,-3.297 26.373,-10.714 28.845,-16.483c4.945,-14.835 -50.273,-12.363 -128.567,6.593c-72.526,17.307 -125.271,21.428 -125.271,9.065c-0,-7.417 62.635,-66.756 107.139,-101.37c28.021,-21.428 28.021,-22.252 8.242,-23.076c-11.538,-0 -51.922,5.769 -89.833,12.362c-108.788,18.955 -231.586,29.669 -246.421,21.428c-11.538,-6.593 -9.89,-10.714 13.187,-30.494c14.834,-13.186 26.373,-26.373 26.373,-29.669c-0,-13.187 -181.314,-4.121 -290.926,14.01c-18.131,3.297 -9.065,-7.417 49.449,-59.338c40.384,-33.791 73.35,-65.108 74.998,-68.405c0.824,-2.472 -58.515,-3.297 -132.688,-1.648c-93.953,2.472 -144.227,0.824 -165.654,-6.593c-38.736,-12.363 -36.263,-30.494 5.769,-53.57c16.483,-9.89 28.021,-19.78 25.548,-23.076c-2.472,-2.473 -50.273,-2.473 -105.491,-0l-100.546,4.944l-22.252,-37.086c-25.549,-44.504 -82.416,-98.074 -128.568,-121.15c-23.076,-12.363 -48.625,-17.308 -83.239,-17.308c-44.504,0 -50.273,-1.648 -46.153,-14.01c28.022,-93.129 22.252,-135.985 -25.548,-172.248c-32.966,-24.724 -71.701,-99.722 -84.888,-164.006c-14.01,-65.108 -19.779,-398.064 -9.065,-539.818c9.065,-133.513 14.834,-164.83 43.68,-237.356c30.493,-79.118 134.336,-153.292 270.321,-195.323c90.657,-28.022 293.398,-96.426 310.705,-104.668c10.714,-4.944 28.021,-28.021 39.559,-51.097c24.725,-50.273 27.197,-114.557 7.417,-238.179c-14.01,-90.657 -8.241,-196.972 18.132,-327.188c16.483,-78.295 30.493,-105.491 59.339,-112.085c61.811,-13.186 60.162,-9.065 26.372,-85.711c-13.186,-31.318 -24.724,-65.108 -24.724,-76.646c-0,-11.538 15.659,-58.515 34.614,-105.492l34.614,-85.711l4.945,-206.038c3.297,-122.798 9.066,-215.103 14.835,-228.29c4.945,-12.362 18.131,-28.021 29.669,-35.438c23.077,-15.659 39.56,-9.89 84.888,28.845l25.549,23.076l-24.725,35.439c-61.811,91.48 -70.053,136.809 -31.318,165.654c31.318,23.076 141.754,33.79 280.212,28.021c209.334,-9.065 342.022,-26.373 365.923,-46.976c4.12,-3.297 -9.89,-26.373 -31.318,-51.098l-37.911,-44.504l43.68,-9.89c23.9,-4.945 55.218,-16.483 70.053,-25.548c23.076,-14.011 25.548,-18.956 18.131,-32.966c-4.945,-9.066 -28.845,-31.318 -53.57,-49.449c-96.425,-70.877 -87.36,-127.744 25.549,-160.71c24.724,-6.593 44.504,-14.01 44.504,-15.659c0,-1.648 -28.845,-21.428 -63.46,-42.855c-35.438,-22.253 -81.591,-56.043 -103.018,-75.822c-37.911,-35.439 -39.56,-38.735 -39.56,-83.24c0,-46.976 -11.538,-72.525 -55.218,-131.04l-18.955,-24.724l43.68,-29.669c46.976,-32.142 103.019,-54.394 136.809,-54.394c30.493,-0 55.218,-19.78 60.987,-48.625c7.417,-36.263 87.36,-119.502 101.37,-105.492c1.649,1.649 -5.769,19.78 -16.483,39.56c-11.538,19.779 -31.317,74.997 -45.328,121.15c-24.724,87.36 -32.966,104.667 -39.559,85.711c-11.538,-32.141 -94.777,-45.328 -126.095,-19.779c-23.9,18.955 -16.483,48.625 14.01,56.042c20.604,5.769 20.604,5.769 15.659,70.053c-5.769,61.811 -4.945,65.932 14.835,85.712c11.538,11.538 28.021,20.603 37.087,20.603c23.076,0 61.811,-35.438 87.36,-80.766c30.493,-52.746 69.228,-92.305 90.656,-92.305c34.615,-0 135.161,89.832 148.347,131.864c3.297,9.89 0.825,28.845 -4.12,41.207c-13.187,32.142 5.769,65.108 65.108,113.733c70.877,57.691 87.36,37.911 45.328,-55.218c-29.67,-66.756 -27.197,-78.294 22.252,-98.898l42.032,-17.307l-83.24,-88.184l-82.415,-89.009l38.735,-4.12c56.043,-5.769 107.964,-39.56 145.875,-94.778l32.142,-46.976l16.483,56.042c13.186,46.152 23.9,62.635 56.866,93.129c43.68,41.208 124.447,156.589 163.182,232.41c21.428,42.856 22.252,48.625 10.714,60.163c-24.724,25.549 -71.701,11.539 -80.767,-23.076c-6.593,-26.373 -35.438,-36.262 -52.745,-18.131c-9.066,9.066 -14.835,32.966 -16.483,71.701l-3.297,58.515l64.284,-4.945c36.263,-3.297 150.819,-9.066 254.662,-13.187c104.668,-4.944 206.862,-10.714 227.466,-13.186l38.735,-4.945l5.769,-44.504c2.473,-23.9 8.242,-46.152 12.362,-48.625c3.297,-2.472 30.494,6.593 59.339,20.604c60.163,28.845 80.767,30.493 99.722,9.89c18.956,-21.428 17.308,-37.087 -6.593,-65.932l-20.603,-23.901l31.317,-5.769c16.483,-2.472 46.153,-4.945 65.932,-4.945c42.032,0 82.415,-15.659 103.843,-40.383c18.956,-20.604 34.615,-22.252 41.208,-4.121c2.472,7.418 9.065,48.625 14.01,92.305c15.659,144.226 32.966,176.368 70.053,128.568l19.78,-23.901l47.801,47.801c25.548,25.549 51.921,46.976 57.69,46.976c33.79,0 10.714,-58.514 -70.877,-182.961c-59.339,-89.008 -92.305,-147.523 -92.305,-162.358c0,-4.12 11.538,-18.955 24.725,-32.142c25.548,-26.372 31.317,-56.042 16.483,-84.887c-4.945,-8.242 -14.011,-15.659 -20.604,-15.659c-6.593,0 -18.131,-9.066 -25.549,-20.604c-10.714,-17.307 -12.362,-25.548 -4.945,-41.207c8.242,-18.132 13.187,-19.78 44.505,-15.659c48.624,6.593 76.646,-15.659 93.129,-74.174c15.658,-54.394 45.328,-73.349 65.932,-43.68c6.593,9.89 12.362,27.197 12.362,39.56c-0,33.79 -41.208,102.194 -82.415,135.984l-37.087,30.494l41.208,-5.769c23.076,-2.472 68.404,-7.417 100.546,-9.89l60.163,-5.769l11.538,28.021c13.186,31.318 40.383,59.339 97.25,96.426c43.68,29.669 65.932,61.811 89.008,130.216c36.263,104.667 75.822,134.336 206.862,155.764c82.415,13.187 290.925,18.131 331.309,8.242c32.966,-8.242 28.021,-30.494 -18.956,-82.415c-22.252,-24.725 -42.856,-55.218 -46.152,-67.581c-10.714,-51.097 -23.901,-83.239 -53.57,-140.929c-38.735,-73.35 -42.032,-116.206 -12.362,-145.875c10.714,-10.714 30.493,-22.252 43.68,-24.725c42.031,-9.065 75.821,-30.493 110.436,-72.525c35.438,-42.032 73.349,-63.46 111.26,-63.46c20.604,0 20.604,0.825 -16.483,42.032c-73.349,81.591 -68.404,149.996 14.835,189.555c31.317,14.835 50.273,42.031 70.877,99.722c26.373,74.998 34.614,177.192 20.603,256.311c-6.593,37.087 -9.889,68.404 -8.241,70.053c6.593,7.417 37.911,-67.581 50.273,-119.502c16.483,-70.053 18.131,-188.731 4.121,-222.521c-5.769,-14.01 -18.131,-28.021 -28.021,-30.493c-17.307,-4.121 -16.483,-6.594 13.186,-33.791c37.087,-33.79 62.636,-87.36 63.46,-129.391c-0,-17.307 4.945,-34.615 10.714,-39.559c4.945,-4.121 18.131,-14.835 28.845,-23.077c11.538,-8.241 20.604,-27.197 24.725,-49.449l5.769,-35.438l66.756,42.031c79.118,48.625 134.336,106.316 172.247,180.489l26.373,53.57l-29.669,61.812c-27.197,57.69 -29.67,68.404 -29.67,136.809c0,41.207 2.473,85.711 5.769,100.546l5.769,26.373l-60.987,13.186c-39.559,9.066 -86.536,13.187 -130.216,11.538l-67.58,-3.296l-2.472,23.076c-4.121,36.263 41.207,73.349 123.622,101.37c50.273,16.483 74.998,29.67 98.074,53.57c25.549,26.373 37.087,32.142 62.636,32.142c49.449,0.824 90.656,13.187 117.853,35.439c14.011,12.362 38.735,23.9 56.042,26.372c16.483,2.473 42.856,6.594 57.691,9.066c62.635,9.89 123.623,103.019 113.733,175.544c-7.418,59.339 -38.735,139.282 -66.756,171.423c-21.428,24.725 -29.67,28.846 -46.977,24.725c-31.318,-8.242 -32.966,-25.549 -6.593,-59.339c27.197,-34.614 37.911,-92.305 30.493,-169.775c-4.945,-58.515 -23.076,-89.832 -50.273,-89.832c-32.966,-0 -40.383,18.131 -33.79,85.711c9.066,100.547 -19.78,93.129 -74.998,-19.779c-34.614,-70.877 -65.108,-115.381 -80.767,-115.381c-17.307,-0 -37.086,27.197 -44.504,62.635l-7.417,32.142l-14.011,-32.966c-42.031,-97.25 -74.997,-160.709 -83.239,-160.709c-14.01,-0 -34.614,52.745 -46.152,120.326c-12.363,69.228 -4.945,150.819 19.779,219.224l18.956,51.921l85.712,-2.472c47.8,-0.824 94.777,-4.121 105.491,-5.769l18.955,-4.945l-23.076,43.68c-21.428,41.207 -23.076,49.449 -23.076,152.468c-0,97.249 1.648,110.436 17.307,131.864c10.714,14.01 24.724,23.076 37.087,23.076l19.779,-0l-2.472,-104.667c-2.473,-100.547 3.297,-138.458 23.076,-138.458c4.121,0 9.89,9.066 13.187,19.78c5.769,24.725 34.614,37.911 84.887,37.911l38.735,0l18.956,163.182c29.669,267.849 53.569,337.077 68.404,196.972c3.297,-32.966 5.769,-111.261 5.769,-174.72c1.648,-207.686 15.659,-280.211 86.536,-438.448c16.483,-37.087 32.142,-85.712 35.438,-107.964c3.297,-32.142 8.242,-42.856 22.253,-47.801c9.065,-3.296 106.315,-7.417 215.927,-9.065l198.62,-4.121l27.197,-149.171c27.197,-149.996 51.922,-248.07 68.405,-267.849c17.307,-21.428 22.252,9.889 21.428,131.04c-1.649,102.194 0.824,122.798 13.186,142.578c11.538,17.307 14.011,32.966 9.89,77.47c-5.769,74.998 5.769,99.722 88.184,179.665c81.591,79.942 148.347,176.368 166.478,240.652c12.363,40.383 12.363,53.569 4.121,92.305c-23.076,101.37 -25.548,128.567 -17.307,207.685c12.362,114.557 44.504,235.708 82.415,313.178c18.131,37.087 32.966,74.997 32.966,83.239c0,74.174 231.586,595.037 264.553,595.037c8.241,-0 12.362,-15.659 15.658,-53.57c4.945,-62.636 2.473,-61.811 107.14,-38.735c34.614,7.417 131.04,17.307 214.279,22.252c162.358,9.066 248.069,19.78 299.991,37.911c38.735,14.01 168.127,117.029 229.114,182.961c77.47,84.064 117.029,192.027 142.578,391.472c14.835,114.557 15.659,167.302 4.121,261.256c-10.714,82.415 -35.439,139.281 -68.405,154.94c-23.076,11.538 -23.9,12.362 -18.131,59.339c4.121,37.911 2.472,55.218 -10.714,84.887c-20.604,46.153 -53.57,70.053 -120.326,83.239c-62.636,13.187 -70.877,17.308 -70.877,37.087c-0,19.78 16.483,33.79 39.559,33.79c46.977,0 68.405,34.615 29.67,49.449c-46.153,18.132 -135.161,0 -179.665,-35.438l-23.901,-18.955l38.735,-23.077c63.46,-37.086 145.051,-163.182 145.051,-224.993c-0,-16.483 18.131,-63.459 44.504,-115.381c61.811,-121.15 89.008,-216.752 90.657,-311.529c0.824,-66.756 -1.649,-79.118 -24.725,-128.567c-28.845,-60.163 -77.47,-114.557 -102.195,-114.557c-20.603,-0 -20.603,-13.187 -0.824,-112.909c8.242,-42.032 11.538,-76.646 8.242,-76.646c-3.297,0 -23.901,22.252 -45.328,49.449c-21.428,27.197 -39.56,49.449 -40.384,49.449c-0.824,0 -15.659,-44.504 -32.966,-98.898c-34.614,-107.964 -44.504,-113.733 -45.328,-24.724c-0,80.766 -31.318,127.743 -47.801,72.525c-4.945,-14.835 -10.714,-51.098 -13.186,-80.767c-4.945,-69.229 -16.483,-98.898 -37.087,-98.898c-21.428,-0 -44.504,34.614 -63.46,92.305c-7.417,26.373 -15.659,46.152 -17.307,44.504c-2.472,-1.648 -9.066,-24.725 -16.483,-51.922c-14.835,-59.338 -40.383,-101.37 -60.163,-101.37c-17.307,-0 -32.966,23.076 -32.966,46.977c0,29.669 -17.307,76.646 -28.021,76.646c-18.955,-0 -30.494,-22.253 -35.438,-69.229c-2.473,-25.549 -7.418,-46.153 -9.89,-46.153c-3.297,0 -14.011,18.956 -23.077,41.208c-26.372,62.635 -52.745,51.097 -81.59,-37.087c-7.418,-22.252 -14.835,-42.856 -16.483,-44.504c-3.297,-3.297 -126.92,73.349 -126.92,79.119c0,2.472 36.263,75.821 81.591,162.357l80.767,157.413l-52.746,164.83l-5.769,-42.856c-6.593,-45.328 -27.197,-71.701 -48.625,-63.459c-27.197,9.889 -54.393,103.019 -68.404,234.058l-6.593,61.812l-5.769,-62.636c-7.418,-89.832 -19.78,-122.798 -45.329,-122.798c-46.152,-0 -138.457,85.712 -173.071,159.885c-18.132,38.735 -19.78,52.746 -19.78,167.303c0,132.688 -8.241,176.368 -28.021,159.061c-15.659,-12.363 -28.021,-70.877 -33.79,-158.237c-2.473,-37.087 -6.593,-84.064 -9.066,-103.019l-4.121,-35.438l-195.323,-0l-8.242,39.559c-23.076,105.491 -28.021,153.292 -24.724,235.707c1.648,59.339 -0.824,90.656 -6.593,93.129c-17.308,5.769 -29.67,-44.504 -36.263,-146.699c-7.417,-125.271 -14.011,-140.93 -56.042,-137.633c-45.329,3.296 -51.922,30.493 -46.153,180.489c5.769,129.392 -0.824,153.292 -26.373,99.722c-10.714,-23.076 -15.658,-59.339 -19.779,-145.875c-4.945,-117.853 -9.066,-135.984 -28.846,-135.984c-18.131,-0 -52.745,47.8 -57.69,80.766c-3.297,16.483 -8.242,43.68 -12.362,59.339c-4.945,23.076 -6.594,24.725 -7.418,8.242c-0.824,-11.538 -3.296,-28.846 -5.769,-37.911c-4.945,-17.307 -5.769,-17.307 -55.218,-6.593c-77.47,17.307 -161.533,52.745 -174.72,72.525c-18.955,28.845 -37.087,114.557 -43.68,204.389l-5.769,84.888l-25.548,-123.623l-24.725,-123.622l-41.208,1.648c-22.252,0.824 -131.039,9.065 -242.3,18.131c-111.26,9.066 -266.2,20.604 -345.319,25.549c-86.536,5.769 -168.951,16.483 -206.038,25.548c-34.614,9.066 -103.018,19.78 -153.292,24.725c-310.704,27.197 -336.253,32.966 -384.054,80.767c-28.845,28.845 -48.625,74.173 -48.625,112.908c0,39.56 -37.911,43.68 -57.69,6.594c-16.483,-29.67 -28.021,-19.78 -33.79,28.021c-5.769,46.152 -27.197,87.36 -42.856,81.591c-4.945,-1.649 -11.538,-14.835 -14.835,-28.846c-5.769,-30.493 -21.428,-51.097 -36.263,-51.097c-14.834,0 -35.438,58.515 -44.504,129.392c-7.417,59.339 -23.076,103.018 -37.086,104.667c-14.011,1.648 -44.505,-70.053 -65.933,-150.82c-11.538,-42.031 -23.076,-79.118 -25.548,-81.591c-2.473,-2.472 -57.691,-0.824 -123.623,4.945c-140.105,10.714 -168.951,21.428 -168.951,61.812c0,14.01 -3.296,31.317 -6.593,37.086c-9.066,14.011 -55.218,26.373 -98.898,26.373c-19.78,0 -46.152,5.769 -59.339,12.362l-24.724,13.187l-0,89.008c-0,99.722 2.472,106.315 55.218,112.909c69.228,9.89 99.722,35.438 58.514,49.449c-10.714,4.12 -64.283,5.769 -120.326,4.945c-113.732,-2.473 -163.181,6.593 -170.599,31.317c-2.472,9.066 -3.296,19.78 0,24.725c10.714,17.307 77.47,25.549 221.697,26.373c139.281,0.824 154.94,-0.824 187.906,-17.307c20.604,-9.89 42.032,-26.373 47.801,-37.911c13.186,-24.725 46.976,-47.801 61.811,-42.032c5.769,1.648 13.187,16.483 16.483,31.318c3.297,14.834 11.538,33.79 18.131,41.207c26.373,29.67 132.689,28.021 140.106,-2.472c4.121,-13.187 14.011,-17.307 43.68,-17.307c2.473,-0 37.911,2.472 78.294,4.944l74.174,5.77l-32.966,-27.197c-18.131,-14.835 -43.68,-37.087 -57.691,-49.449l-24.724,-23.077l60.987,20.604c33.79,11.538 77.47,29.669 97.25,42.032c48.625,28.021 117.853,32.966 266.2,16.483c65.933,-7.418 201.093,-20.604 300.815,-29.67c99.723,-9.889 216.752,-24.724 259.608,-32.966c98.898,-19.779 128.567,-23.076 304.936,-32.966c263.728,-15.659 391.471,-32.142 642.837,-82.415c270.322,-53.57 516.743,-84.887 771.405,-97.25c137.633,-6.593 159.885,-12.362 159.885,-42.855c0,-24.725 37.087,-46.977 86.536,-52.746c25.549,-2.472 69.229,-14.011 96.426,-25.549c68.404,-28.021 155.764,-44.504 261.256,-51.097c110.436,-5.769 179.664,5.769 243.948,42.856l48.625,27.197l-148.347,-1.649c-119.502,-0.824 -147.523,1.649 -147.523,10.714c-0,12.363 23.076,22.252 153.292,61.812c52.746,16.483 104.667,37.087 115.381,45.328l19.78,15.659l-23.077,5.769c-14.834,4.121 -44.504,-0 -82.415,-10.714c-32.966,-9.89 -83.239,-21.428 -112.908,-25.549c-75.822,-12.362 -285.981,-25.548 -383.23,-24.724l-82.415,0.824l131.864,42.856c145.05,47.8 204.389,74.997 199.444,89.832c-1.648,6.593 -19.779,9.89 -47.801,9.066c-33.79,-0.824 -63.459,-9.89 -122.798,-37.087c-74.174,-33.79 -83.239,-35.438 -167.303,-38.735c-115.381,-4.121 -277.738,18.131 -277.738,38.735c-0,3.297 17.307,14.835 39.559,24.725c21.428,9.889 46.152,24.724 56.042,32.966c16.483,13.186 41.208,50.273 32.966,50.273c-1.648,-0 -42.032,-14.835 -89.008,-32.966c-120.326,-46.977 -196.148,-60.987 -291.749,-53.57c-42.856,3.297 -75.822,8.241 -73.35,12.362c1.648,3.297 57.691,25.549 123.623,49.449c65.932,23.901 119.502,46.977 119.502,50.273c-0,23.077 -178.017,-4.944 -260.432,-40.383c-78.294,-33.79 -140.106,-45.328 -246.421,-44.504c-107.14,0.824 -154.94,13.186 -159.061,41.207c-3.297,22.253 18.955,51.098 39.559,51.098c7.417,-0 32.142,-9.89 54.394,-22.252c35.439,-19.78 48.625,-23.076 110.436,-22.252c76.646,0.824 151.644,18.955 182.138,43.68c18.131,14.834 18.955,16.483 4.944,22.252c-8.241,3.296 -47.8,-2.473 -87.36,-12.363c-72.525,-17.307 -137.633,-22.252 -154.116,-10.713c-4.945,3.296 -11.538,14.01 -14.834,23.9c-13.187,42.032 -126.095,45.328 -202.741,6.593c-85.712,-43.68 -173.072,-53.57 -173.072,-19.78c-0,18.132 43.68,32.142 100.546,32.142c44.504,0 53.57,8.242 31.318,28.846c-18.955,17.307 -49.449,14.01 -117.854,-12.363l-47.8,-18.955l-23.901,17.307c-32.966,24.725 -47.8,23.076 -118.677,-12.362l-61.812,-30.494l-37.086,39.559c-41.208,44.505 -41.208,44.505 -121.975,4.121c-26.373,-13.186 -49.449,-23.9 -51.921,-23.9c-2.473,-0 -4.121,15.659 -4.121,35.438c0,19.78 -4.945,42.032 -9.89,49.449c-9.89,13.187 -12.362,13.187 -35.438,0.825c-13.187,-6.594 -34.615,-22.253 -46.977,-33.791c-24.724,-23.076 -39.559,-19.779 -39.559,10.714c-0,25.549 -6.593,24.725 -66.756,-5.769c-28.021,-14.01 -51.922,-23.076 -53.57,-21.428c-1.648,1.649 1.648,18.132 8.241,36.263c15.659,44.504 6.594,56.042 -40.383,55.218c-32.142,-0.824 -42.032,-4.945 -65.108,-30.494c-27.197,-29.669 -29.669,-30.493 -87.36,-30.493l-59.339,-0l37.911,44.504c20.604,24.725 37.911,46.977 37.911,50.273c0,9.89 -79.118,-2.472 -106.315,-15.659c-13.187,-7.417 -26.373,-20.603 -29.67,-29.669c-7.417,-23.076 -22.252,-20.604 -50.273,9.066c-21.428,22.252 -28.021,24.724 -58.515,20.603c-29.669,-4.12 -35.438,-1.648 -47.8,16.483c-12.363,19.78 -15.659,20.604 -97.25,18.132c-79.943,-2.473 -84.063,-1.649 -92.305,16.483c-6.593,14.834 -12.362,17.307 -33.79,13.186c-23.076,-4.121 -26.373,-2.472 -31.318,18.131l-5.769,23.077l-20.604,-26.373c-11.538,-14.835 -23.9,-26.373 -27.197,-26.373c-3.296,0 -9.065,12.362 -13.186,27.197c-9.89,32.142 -29.669,36.263 -70.053,14.011Zm30.494,-2214.49c17.307,-43.68 -164.006,-241.476 -220.873,-241.476c-9.065,-0 -15.658,4.945 -15.658,10.714c-0,14.834 39.559,65.107 71.701,91.48c29.669,24.725 76.646,92.305 76.646,110.436c-0,36.263 75.821,60.988 88.184,28.846Zm1275.79,154.94c53.57,-30.494 56.042,-96.426 4.121,-147.523c-36.263,-36.263 -65.108,-41.207 -88.184,-14.01c-15.659,18.131 -18.956,31.317 -18.956,79.118c0,102.195 28.845,125.271 103.019,82.415Zm-1487.59,-255.487c0,-9.065 -11.538,-23.076 -28.021,-32.966c-43.68,-27.197 -48.625,-22.252 -21.428,22.252c18.131,29.67 49.449,37.087 49.449,10.714Zm2157.63,-98.074c2.473,-14.01 -1.648,-18.131 -14.01,-18.131c-11.538,0 -17.307,4.945 -17.307,14.835c-0,31.318 27.197,33.79 31.317,3.296Zm169.775,402.186c0,-42.032 -5.769,-64.284 -24.724,-102.195c-27.197,-55.218 -48.625,-74.173 -60.987,-54.394c-12.362,18.956 -9.89,56.867 8.241,122.799c23.077,83.239 29.67,93.129 56.043,89.832c21.427,-2.472 22.252,-4.121 21.427,-56.042Zm-4878.15,-177.192c-0,-9.066 -5.769,-17.308 -13.187,-18.956c-14.834,-2.472 -27.197,18.956 -18.955,32.142c8.241,14.011 32.142,4.121 32.142,-13.186Zm2572.17,249.717c-10.714,-52.745 -54.394,-89.832 -54.394,-45.328c0,25.549 29.669,71.701 46.152,71.701c10.714,0 12.363,-4.945 8.242,-26.373Zm-2864.75,-117.853c13.187,-15.659 2.473,-46.977 -14.834,-43.68c-14.835,2.472 -22.252,24.724 -14.835,44.504c5.769,14.835 16.483,14.835 29.669,-0.824Zm5327.31,62.635c8.242,-12.362 -19.78,-160.709 -37.087,-196.972c-20.603,-42.856 -42.856,-56.042 -70.052,-43.68c-38.736,17.307 -32.967,84.063 9.065,99.722c23.901,9.066 23.901,9.89 10.714,65.108c-8.241,35.439 -7.417,43.68 4.945,62.636c23.076,34.614 65.108,41.207 82.415,13.186Zm-2287.84,-60.987c3.296,-16.483 -20.604,-28.021 -32.966,-15.659c-12.362,12.362 -0.824,36.263 15.659,32.966c8.241,-1.648 15.659,-9.066 17.307,-17.307Zm2345.53,218.4c-0,-24.725 -6.594,-41.208 -19.78,-55.218c-32.142,-34.615 -43.68,-27.197 -39.559,23.9c4.121,51.098 18.131,72.525 42.856,69.229c14.834,-2.473 17.307,-8.242 16.483,-37.911Zm-35.439,-665.914c13.187,-15.659 12.362,-65.108 -0.824,-81.591c-33.79,-40.383 -75.822,28.846 -49.449,79.119c10.714,18.955 35.438,20.603 50.273,2.472Zm-95.601,773.878c16.483,-16.483 12.362,-53.57 -9.89,-98.898c-30.494,-60.988 -68.405,-55.219 -68.405,11.538c0,37.086 8.242,60.987 31.318,87.36c15.659,17.307 29.67,18.131 46.977,-0Zm134.336,320.594c3.297,-35.438 0.824,-42.856 -13.186,-50.273c-42.032,-22.252 -57.691,28.021 -25.549,80.767c21.428,34.614 32.966,25.548 38.735,-30.494Zm-5207.81,-145.05c24.725,-26.373 21.428,-65.932 -5.769,-69.229c-28.021,-4.121 -42.856,12.362 -42.856,47.801c0,46.976 17.308,54.394 48.625,21.428Zm79.119,-401.362c5.769,-23.9 -0.824,-77.47 -9.89,-92.305c-8.242,-14.01 -18.956,14.835 -18.956,53.57c0,63.46 18.132,88.184 28.846,38.735Zm2707.34,721.132c-0,-14.01 -14.835,-36.262 -46.977,-70.877c-51.921,-53.57 -62.635,-52.745 -34.614,3.297c39.559,79.118 81.591,114.557 81.591,67.58Zm-2905.13,-144.226c-0,-26.373 -3.297,-36.263 -12.363,-36.263c-14.01,0 -20.603,28.845 -12.362,59.339c8.242,32.966 24.725,17.307 24.725,-23.076Zm5155.06,8.241c-0,-48.625 -28.021,-152.468 -47.801,-173.895c-6.593,-8.242 -19.779,-14.835 -28.845,-14.835c-14.835,-0 -15.659,4.121 -11.538,47.801c6.593,74.997 54.394,182.961 80.767,182.961c4.12,-0 7.417,-18.955 7.417,-42.032Zm-4491.62,102.195c37.087,-51.921 47.801,-81.591 34.614,-94.777c-14.01,-14.011 -53.57,10.714 -69.228,42.856c-15.659,30.493 -20.604,98.898 -7.418,98.898c4.945,-0 23.076,-21.428 42.032,-46.977Zm-372.516,-239.004c-2.473,-43.68 -18.132,-56.042 -25.549,-20.603c-6.593,31.317 1.648,59.338 16.483,59.338c9.066,0 10.714,-9.065 9.066,-38.735Zm4958.09,-83.239c-1.648,-31.318 -24.724,-70.053 -38.735,-65.108c-13.186,4.121 -17.307,70.053 -4.945,84.888c5.769,6.593 18.131,11.538 27.197,9.89c14.011,-1.649 17.307,-8.242 16.483,-29.67Zm-3373.25,112.909c11.539,-22.252 -2.472,-58.515 -20.603,-51.922c-17.307,6.593 -39.56,43.68 -34.615,57.691c6.594,18.131 44.505,14.01 55.218,-5.769Zm1164.53,259.607c3.297,-8.241 -5.769,-35.438 -20.603,-64.284c-39.56,-75.821 -152.468,-251.366 -200.269,-309.88c-99.722,-123.623 -77.47,-35.439 37.911,147.523c65.932,104.667 162.358,239.828 170.599,239.828c4.121,-0 9.89,-5.769 12.362,-13.187Zm-2723.82,-51.921c17.308,-11.538 4.121,-33.79 -19.779,-33.79c-23.901,-0 -37.087,22.252 -19.78,33.79c6.593,4.12 15.659,7.417 19.78,7.417c4.945,0 13.186,-3.297 19.779,-7.417Zm-117.853,-20.604c5.769,-23.076 -0.824,-37.911 -17.307,-37.911c-14.011,-0 -20.604,18.131 -14.835,40.383c5.769,23.901 25.549,22.252 32.142,-2.472Zm679.1,53.57c0,-16.483 -4.121,-35.439 -8.241,-42.032c-18.132,-27.197 -32.142,32.966 -18.956,81.591c4.945,18.955 5.769,18.955 16.483,4.945c5.769,-9.066 10.714,-28.845 10.714,-44.504Zm910.687,-18.956c20.603,-18.131 37.086,-36.262 37.086,-41.207c0,-4.945 -26.373,-66.756 -58.514,-137.633l-57.691,-128.568l35.439,-31.318c19.779,-17.307 51.097,-42.855 69.228,-57.69l34.615,-26.373l-3.297,-61.811c-2.473,-33.791 -9.066,-202.741 -15.659,-374.989l-12.362,-313.177l-22.252,-19.78c-28.021,-24.724 -60.163,-20.604 -203.565,23.901c-57.691,18.131 -116.206,32.966 -129.392,32.966c-14.011,-0 -51.922,-14.835 -84.064,-32.966c-32.966,-18.132 -100.546,-47.801 -149.995,-65.932c-129.392,-47.801 -156.589,-65.932 -173.072,-112.909c-22.252,-63.46 -33.79,-80.767 -57.69,-83.239c-31.318,-4.121 -58.515,24.724 -70.877,73.349c-5.769,22.252 -14.011,40.384 -18.131,40.384c-14.835,-0 -117.854,-62.636 -148.347,-89.833c-17.308,-15.659 -36.263,-40.383 -42.856,-56.042c-6.594,-14.835 -23.901,-34.614 -39.56,-43.68c-14.834,-9.066 -32.141,-24.725 -37.086,-34.614c-4.945,-10.714 -9.89,-62.636 -11.538,-115.382c-1.649,-52.745 -4.945,-98.073 -7.418,-101.37c-3.296,-2.473 -73.349,-0 -156.588,5.769l-150.82,10.714l-19.78,74.173c-31.317,122.799 -14.01,181.314 32.966,111.261c27.197,-40.384 44.505,-41.208 55.219,-2.473c4.944,17.308 9.065,43.68 9.065,58.515c0,51.922 21.428,74.174 115.381,118.678c216.752,103.843 468.942,230.762 506.853,255.486c27.197,18.132 42.032,33.791 43.68,46.977c8.241,58.515 -27.197,118.678 -76.646,127.743c-15.659,3.297 -35.439,14.835 -45.328,27.197l-16.483,21.428l-0,-38.735c-0,-42.856 20.603,-70.877 51.921,-70.877c22.252,0 38.735,-14.01 38.735,-33.79c0,-29.669 -56.866,-61.811 -342.022,-192.027c-191.203,-88.184 -303.288,-151.644 -365.099,-206.862c-66.756,-60.163 -79.943,-82.415 -77.47,-133.512c1.648,-36.263 -0.824,-44.504 -15.659,-51.922c-14.835,-8.241 -16.483,-15.659 -14.011,-64.283l2.473,-55.219l-33.79,-2.472c-42.856,-3.297 -77.471,22.252 -77.471,56.042c0,12.362 18.132,127.744 41.208,255.487c46.977,267.849 51.097,234.883 -40.383,325.539c-28.022,27.197 -50.274,53.57 -50.274,58.515c0,14.011 65.932,60.987 84.064,60.987c9.065,0 25.548,-7.417 38.735,-17.307c21.428,-15.659 24.724,-16.483 52.745,-4.121c16.483,6.594 39.56,21.428 51.098,33.791c20.604,19.779 21.428,23.076 15.659,89.832c-3.297,44.504 -2.473,70.877 3.296,74.174c16.483,9.889 37.087,-6.594 68.405,-56.043c35.438,-55.218 35.438,-55.218 23.9,44.504c-4.945,38.735 -11.538,107.964 -15.659,154.941c-4.945,58.514 -10.714,89.008 -19.779,98.074c-22.252,22.252 -30.494,4.12 -30.494,-66.757c0,-56.866 -3.297,-72.525 -16.483,-88.184c-14.01,-17.307 -17.307,-18.131 -24.724,-7.417c-4.121,6.593 -8.242,31.318 -8.242,53.57c0,23.076 -4.121,55.218 -9.066,72.525c-9.889,37.087 -28.021,39.559 -71.701,9.89c-16.483,-11.538 -36.262,-20.604 -43.68,-20.604c-41.207,0 -85.711,124.447 -55.218,154.94c15.659,15.659 36.263,11.538 63.46,-10.714c23.9,-20.603 25.548,-20.603 49.449,-8.241c28.845,14.01 81.591,74.998 99.722,113.733c9.89,20.603 18.131,27.197 38.735,28.845c32.966,3.297 72.525,-16.483 90.657,-46.152c14.834,-23.077 27.197,-34.615 37.087,-34.615c10.713,0 30.493,81.591 47.8,203.565c18.132,121.151 26.373,150.82 42.032,150.82c19.78,-0 34.614,-60.163 56.042,-237.355c4.945,-37.911 11.538,-72.526 14.011,-77.471c11.538,-18.131 22.252,11.539 28.845,79.943c3.297,39.559 10.714,82.415 15.659,95.602c18.955,43.68 57.69,23.076 57.69,-31.318c0,-12.362 4.121,-28.845 8.242,-35.439c7.417,-10.714 9.89,-9.889 20.604,4.121c9.065,10.714 10.714,26.373 7.417,53.57c-3.297,26.373 -0.824,42.032 7.417,53.57c21.428,28.021 53.57,8.241 89.833,-52.746c60.987,-106.315 74.998,-100.546 78.294,33.79c1.648,51.098 4.945,93.953 6.593,95.602c9.066,9.889 32.142,-10.714 67.581,-59.339c43.68,-60.163 42.856,-60.163 69.228,17.307c9.066,28.845 20.604,54.394 25.549,56.866c4.121,3.297 31.318,-17.307 60.163,-46.152c43.68,-43.68 51.922,-48.625 56.866,-35.439c3.297,8.242 18.956,38.736 35.439,67.581l28.845,51.921l40.384,-39.559c23.9,-23.9 42.855,-36.263 46.976,-32.142c4.121,4.945 24.725,31.318 46.153,60.163l39.559,51.922l41.207,-35.439c76.646,-65.932 89.009,-69.228 89.009,-22.252l-0,25.549l90.656,-77.47l0,31.317c0.824,46.977 14.011,96.426 28.845,107.14c18.956,14.011 40.384,5.769 82.416,-31.318Zm-393.944,-309.056c-14.011,-80.767 -2.473,-178.841 22.252,-206.862c8.241,-8.242 13.186,-7.417 24.724,5.769c32.966,36.263 23.9,117.029 -22.252,197.796l-19.78,34.614l-4.944,-31.317Zm-354.385,-41.208c-18.132,-17.307 5.769,-126.095 27.197,-126.095c11.538,0 32.966,50.273 32.966,75.822c-0,37.911 -40.384,70.877 -60.163,50.273Zm-145.875,-128.567c0,-6.593 7.417,-20.604 15.659,-31.318c14.835,-18.955 16.483,-18.955 22.252,-4.121c3.297,8.242 2.472,21.428 -2.472,28.846c-10.714,17.307 -35.439,22.252 -35.439,6.593Zm-137.633,-38.735c6.593,-51.922 39.559,-78.295 51.097,-41.208c7.418,23.9 -18.955,74.174 -38.735,74.174c-14.835,-0 -16.483,-4.121 -12.362,-32.966Zm-304.112,-96.426c-28.845,-68.404 18.956,-158.237 60.987,-116.205c24.725,24.724 -4.944,146.699 -35.438,146.699c-7.417,-0 -18.955,-13.187 -25.549,-30.494Zm46.153,-253.838c-0,-6.594 4.121,-12.363 8.241,-12.363c4.945,0 8.242,5.769 8.242,12.363c-0,6.593 -3.297,12.362 -8.242,12.362c-4.12,-0 -8.241,-5.769 -8.241,-12.362Zm708.769,-65.932c0,-6.594 4.121,-12.363 8.242,-12.363c4.945,0 8.241,5.769 8.241,12.363c0,6.593 -3.296,12.362 -8.241,12.362c-4.121,-0 -8.242,-5.769 -8.242,-12.362Zm-470.59,32.141c-12.362,-14.834 -20.603,-99.722 -12.362,-131.04c6.593,-25.548 37.087,-28.021 58.515,-4.12c11.538,12.362 13.186,23.076 8.241,46.976c-3.296,17.307 -7.417,42.856 -9.89,56.043c-7.417,42.855 -24.724,55.218 -44.504,32.141Zm858.765,526.633l-0.824,-101.371l108.788,0c59.339,0 106.315,1.648 103.843,4.121c-2.472,2.472 -35.439,17.307 -72.525,32.966c-85.712,35.438 -103.843,52.746 -122.799,114.557l-15.659,50.273l-0.824,-100.546Zm-379.109,72.525c-19.78,-36.263 -6.593,-223.345 15.659,-223.345c22.252,0 32.966,137.633 16.483,199.445c-10.714,37.911 -21.428,45.328 -32.142,23.9Zm-503.556,-83.239c16.483,-10.714 46.977,-10.714 53.57,-0c3.296,4.945 -9.066,8.241 -30.494,8.241c-25.549,0 -32.142,-2.472 -23.076,-8.241Zm-346.143,-631.3c-0,-11.538 3.296,-18.955 8.241,-15.659c4.945,2.473 8.242,12.363 8.242,21.428c-0,8.242 -3.297,15.659 -8.242,15.659c-4.121,0 -8.241,-9.89 -8.241,-21.428Zm243.948,514.27c-16.483,-61.811 7.418,-217.575 41.208,-276.09c22.252,-38.735 38.735,-44.504 52.745,-18.131c12.363,21.427 4.121,55.218 -18.955,79.942c-15.659,16.483 -18.131,29.67 -18.131,86.536c-0.825,93.129 -41.208,184.61 -56.867,127.743Zm20.604,-507.676c-4.945,-9.066 -9.066,-26.373 -9.066,-38.736c0,-25.548 -18.955,-74.173 -32.142,-82.415c-15.658,-9.065 -32.966,11.539 -37.91,44.505c-8.242,50.273 -18.132,66.756 -41.208,66.756c-27.197,-0 -33.79,-28.021 -21.428,-88.184c4.945,-25.549 9.066,-51.098 9.066,-56.043c-0,-13.186 -94.778,-37.086 -144.227,-37.086c-32.141,-0 -42.031,4.12 -61.811,25.548c-28.845,32.142 -45.328,28.021 -57.69,-14.834c-12.363,-43.68 -19.78,-128.568 -13.187,-154.117c4.945,-18.955 7.417,-20.603 22.252,-12.362c9.066,4.945 30.494,20.604 46.977,36.263c39.559,34.614 84.887,57.69 150.819,74.173c28.846,7.418 83.24,28.021 121.15,46.153c57.691,28.021 72.526,39.559 93.13,71.701c20.603,31.318 23.9,45.328 20.603,70.877c-1.648,17.307 -10.714,39.559 -19.779,48.625c-16.483,15.659 -16.483,15.659 -25.549,-0.824Zm924.697,145.874c-26.373,-7.417 -37.911,-32.966 -19.78,-44.504c9.066,-4.945 115.382,32.966 127.744,45.328c10.714,10.714 -71.701,9.89 -107.964,-0.824Zm-154.94,-33.79c-7.418,-18.955 -0,-38.735 16.483,-45.328c25.548,-9.066 30.493,10.714 9.065,35.438c-18.131,21.428 -20.603,22.252 -25.548,9.89Zm-844.755,-550.533c0,-4.12 5.769,-8.241 12.363,-8.241c6.593,-0 12.362,4.121 12.362,8.241c-0,4.945 -5.769,8.242 -12.362,8.242c-6.594,-0 -12.363,-3.297 -12.363,-8.242Zm65.932,32.966c0,-4.12 5.769,-8.241 12.363,-8.241c6.593,-0 12.362,4.121 12.362,8.241c-0,4.945 -5.769,8.242 -12.362,8.242c-6.594,-0 -12.363,-3.297 -12.363,-8.242Zm562.071,388.175c-6.593,-4.12 -9.89,-14.01 -8.241,-22.252c2.472,-12.362 9.889,-15.659 39.559,-15.659c29.669,0 37.087,3.297 39.559,15.659c4.121,18.132 -11.538,29.67 -39.559,29.67c-11.538,-0 -25.549,-3.297 -31.318,-7.418Zm550.533,7.418c-14.011,-26.373 -19.78,-95.602 -9.066,-103.019c25.549,-15.659 57.691,58.515 42.032,98.074c-9.066,25.549 -20.604,27.197 -32.966,4.945Zm-1345.01,1042.55c2.472,-22.252 -11.538,-40.383 -24.725,-32.142c-8.241,4.945 -9.065,47.801 -0.824,56.043c10.714,10.714 23.076,-0.824 25.549,-23.901Zm4694.36,-1162.88c14.835,-5.769 17.307,-24.725 4.121,-32.142c-13.187,-9.066 -48.625,3.296 -48.625,15.659c-0,17.307 22.252,24.724 44.504,16.483Zm307.408,-140.106c2.473,-6.593 0.824,-16.483 -4.121,-21.428c-12.362,-12.362 -35.438,6.593 -28.845,23.076c5.769,15.659 26.373,14.835 32.966,-1.648Zm-1321.11,-226.641c8.241,-7.418 -6.594,-28.846 -28.846,-41.208c-23.076,-12.362 -56.866,4.945 -56.866,28.845c-0,12.363 5.769,21.428 14.835,23.901c17.307,4.945 60.987,-1.648 70.877,-11.538Zm-1323.59,576.081c-1.649,-10.714 -8.242,-18.955 -14.835,-18.955c-6.593,-0 -13.186,8.241 -14.835,18.955c-2.472,14.011 1.649,18.131 14.835,18.131c13.186,0 17.307,-4.12 14.835,-18.131Zm2515.31,-867.831c9.066,-10.714 5.77,-22.252 -16.483,-65.932c-40.383,-80.766 -49.449,-83.239 -49.449,-18.131c0,29.669 4.121,64.284 9.89,75.822c10.714,23.9 39.559,28.021 56.042,8.241Zm-1982.91,951.07c23.076,-18.131 27.197,-41.207 12.362,-79.118c-15.659,-42.856 -86.536,-101.371 -106.315,-89.008c-10.714,6.593 -10.714,38.735 0.824,67.58c7.417,21.428 4.945,19.779 -28.845,-13.187c-33.79,-32.966 -40.384,-36.262 -60.163,-28.845c-27.197,9.066 -60.163,55.218 -60.163,83.239c-0,18.132 2.472,18.956 28.845,14.011c25.549,-4.121 29.669,-2.473 38.735,17.307c14.011,31.318 44.504,44.504 102.195,45.328c38.735,0 55.218,-4.12 72.525,-17.307Zm-3276.82,-696.407c10.714,-19.78 2.473,-44.504 -15.659,-44.504c-11.538,-0 -15.659,5.769 -15.659,23.076c0,35.439 17.307,46.977 31.318,21.428Zm3000.73,941.18c13.186,-16.483 -4.121,-48.625 -48.625,-91.481c-18.956,-18.131 -47.801,-51.097 -63.46,-74.173c-59.339,-82.415 -93.129,-107.14 -93.129,-69.229c0,23.9 11.538,42.856 70.877,119.502c28.021,36.263 56.866,76.646 62.635,90.656c5.77,13.187 14.011,26.373 18.956,29.67c14.01,10.714 42.856,7.417 52.746,-4.945Zm-1098.59,-1061.51c8.241,-12.362 -18.956,-30.494 -37.911,-25.549c-9.066,2.473 -16.483,11.538 -16.483,19.78c-0,11.538 5.769,15.659 23.9,15.659c14.011,-0 27.197,-4.121 30.494,-9.89Zm3419.4,553.829c-0,-23.9 -3.297,-29.669 -18.956,-31.318c-23.9,-3.296 -42.856,11.539 -42.856,35.439c0,24.724 7.418,29.669 37.087,27.197c22.252,-2.473 24.725,-4.945 24.725,-31.318Zm-295.046,600.806c18.131,-15.659 9.89,-70.053 -26.373,-178.841c-76.646,-224.993 -145.05,-306.584 -206.038,-244.772c-33.79,32.966 -23.9,86.535 27.197,148.347c28.846,34.614 46.153,78.294 67.581,172.247c23.076,100.547 41.207,124.447 91.48,117.854c18.132,-2.473 38.735,-9.066 46.153,-14.835Zm-1349.13,-126.919c8.242,-10.714 9.066,-22.252 0.824,-56.867c-14.834,-67.58 -48.624,-93.953 -92.304,-70.877c-19.78,10.714 -21.428,54.394 -1.649,82.416c37.911,56.866 70.053,72.525 93.129,45.328Zm-771.405,-1385.4c13.187,-33.791 2.473,-77.471 -18.955,-77.471c-32.966,0 -44.504,39.56 -20.604,72.526c14.835,21.428 32.142,23.9 39.559,4.945Zm1173.59,1148.87c21.428,-21.428 1.648,-87.36 -32.142,-106.316c-13.187,-6.593 -20.604,-5.769 -32.966,5.769c-18.956,16.483 -19.78,42.856 -4.121,81.591c9.89,23.076 16.483,28.845 35.439,28.845c13.186,0 28.021,-4.12 33.79,-9.889Zm-1170.29,-25.549c3.296,-16.483 -20.604,-28.021 -32.966,-15.659c-12.362,12.362 -0.824,36.263 15.659,32.966c8.241,-1.648 15.659,-9.066 17.307,-17.307Zm2476.57,-51.922c10.713,-10.714 -5.77,-28.021 -27.197,-28.021c-24.725,0 -37.087,10.714 -28.846,24.725c5.769,9.065 47.801,11.538 56.043,3.296Zm-2896.89,-1044.2c3.297,-16.483 -20.604,-28.022 -32.966,-15.659c-12.362,12.362 -0.824,36.262 15.659,32.966c8.241,-1.649 15.659,-9.066 17.307,-17.307Zm3051.83,1626.05c20.604,-11.538 19.779,-25.549 -4.945,-73.35c-22.252,-44.504 -38.735,-55.218 -57.691,-37.086c-32.141,32.141 -21.428,86.535 20.604,107.963c24.725,12.363 22.252,12.363 42.032,2.473Zm-2572.17,-89.009c-0,-8.241 -13.187,-32.141 -28.021,-51.921c-33.791,-42.856 -109.612,-107.964 -101.371,-87.36c7.417,18.955 70.053,112.085 90.657,135.985c20.603,22.252 38.735,23.9 38.735,3.296Zm2035.65,-1377.98c-0,-10.714 -5.769,-16.483 -16.483,-16.483c-10.714,-0 -16.483,5.769 -16.483,16.483c-0,10.714 5.769,16.483 16.483,16.483c10.714,-0 16.483,-5.769 16.483,-16.483Zm-1107.66,81.591c79.943,-10.714 112.085,-26.373 108.788,-51.098c-3.296,-23.9 -41.207,-41.207 -73.349,-34.614c-26.373,5.769 -84.064,52.745 -98.898,79.942c-4.121,8.242 -6.593,14.835 -4.121,14.835c1.648,0 32.966,-4.121 67.58,-9.065Zm-1534.57,-151.644c42.856,-39.559 23.076,-84.064 -52.746,-118.678c-53.57,-24.724 -74.173,-23.076 -74.173,5.769c0.824,33.79 27.197,85.712 56.866,111.261c32.966,27.196 42.032,28.021 70.053,1.648Zm-1495.01,-16.483c37.086,-18.956 43.68,-61.812 9.065,-61.812c-21.428,0 -58.514,31.318 -58.514,48.625c-0,28.022 13.186,32.142 49.449,13.187Zm4102.62,925.521c-1.648,-10.714 -8.241,-18.955 -14.834,-18.955c-6.593,-0 -13.187,8.241 -14.835,18.955c-2.472,14.011 1.648,18.131 14.835,18.131c13.186,0 17.307,-4.12 14.834,-18.131Zm-347.791,37.911c22.252,-10.714 28.021,-18.131 28.021,-37.087c0,-50.273 -68.404,-46.152 -92.305,4.945c-6.593,15.659 -6.593,23.076 1.648,32.966c13.187,15.659 28.022,15.659 62.636,-0.824Zm1091.17,561.246c0,-23.076 -3.296,-29.669 -19.779,-33.79c-41.208,-9.889 -50.273,18.132 -17.307,51.098c25.548,25.548 37.086,19.779 37.086,-17.308Zm-885.962,-609.871c23.077,-23.076 25.549,-38.735 8.242,-53.57c-21.428,-18.131 -78.294,12.362 -78.294,42.032c-0,14.835 20.603,31.318 39.559,32.142c5.769,-0 19.779,-9.066 30.493,-20.604Zm-3920.48,-843.106c1.648,-18.956 -0.824,-28.021 -11.538,-32.142c-16.483,-6.593 -44.504,23.9 -44.504,48.625c-0,13.186 4.944,15.659 27.196,13.186c23.077,-2.472 26.373,-5.769 28.846,-29.669Zm373.34,553.829c9.066,-11.538 8.242,-18.131 -7.417,-45.328c-32.142,-56.042 -20.604,-110.436 30.493,-145.051c32.966,-22.252 77.47,-24.724 113.733,-6.593c14.011,6.593 46.977,14.835 74.174,17.307c95.601,9.89 173.071,-36.262 201.916,-121.15c21.428,-60.987 50.274,-194.499 45.329,-207.686c-2.473,-6.593 -19.78,-14.01 -37.911,-17.307l-33.79,-4.945l2.472,-56.866c1.648,-63.46 -7.417,-80.767 -60.163,-108.788l-28.845,-14.835l31.318,-0.824c48.624,-0 88.184,-19.78 88.184,-43.68c-0,-25.549 -17.307,-40.383 -84.064,-71.701c-68.404,-32.142 -114.557,-35.439 -138.457,-9.89c-19.78,20.604 -30.494,17.307 -84.887,-25.549l-30.494,-25.548l-35.439,33.79c-41.207,40.383 -88.184,64.284 -135.984,70.877c-42.032,4.945 -59.339,17.307 -59.339,43.68c-0,22.252 36.262,65.932 77.47,94.777l28.021,18.956l-20.604,54.394c-69.228,178.84 -84.063,256.31 -55.218,281.035c19.78,16.483 44.504,70.053 44.504,95.601c0,27.197 -23.076,78.295 -52.745,117.03c-11.538,15.659 -21.428,32.142 -21.428,35.438c-0,9.89 98.898,56.043 120.326,56.043c9.89,-0 23.076,-5.77 28.845,-13.187Zm52.746,-406.306c-4.945,-9.066 7.417,-18.956 15.659,-11.538c7.417,7.417 5.769,18.955 -2.473,18.955c-4.945,0 -9.89,-3.296 -13.186,-7.417Zm37.086,-319.771c0,-5.769 9.066,-20.603 20.604,-32.966c10.714,-12.362 20.604,-18.955 20.604,-13.186c-0,5.769 -9.066,20.604 -20.604,32.966c-10.714,12.362 -20.604,18.955 -20.604,13.186Zm-68.404,0.825c-6.593,-6.594 0.824,-19.78 11.538,-19.78c4.121,-0 7.417,5.769 7.417,12.362c0,12.362 -9.889,16.483 -18.955,7.418Zm-460.7,351.088c30.493,-18.956 33.79,-36.263 9.89,-49.449c-24.725,-13.187 -84.888,6.593 -94.778,31.317c-13.186,33.791 39.559,45.329 84.888,18.132Zm995.574,304.935c19.779,-14.01 49.449,-42.855 65.108,-63.459c56.042,-74.174 108.787,-206.038 89.008,-225.817c-7.417,-7.418 -12.362,-2.473 -22.252,19.779c-7.418,18.132 -22.252,34.615 -39.559,43.68c-57.691,28.845 -83.24,65.108 -118.678,171.424c-19.78,57.69 -23.9,79.118 -14.835,79.118c2.473,-0 20.604,-11.538 41.208,-24.725Zm1203.26,-581.85c11.538,-28.845 15.659,-83.239 6.593,-105.491c-2.473,-7.418 -11.538,-13.187 -19.78,-13.187c-19.779,0 -24.724,15.659 -24.724,78.295c-0,83.239 14.01,98.074 37.911,40.383Zm-1042.55,-12.362c6.593,-13.187 6.593,-33.79 0,-81.591c-13.186,-89.832 -0.824,-131.04 69.229,-222.521c18.955,-24.724 36.262,-49.449 39.559,-54.394c2.472,-4.945 -11.538,-42.031 -32.142,-82.415c-23.9,-46.152 -34.614,-74.173 -28.021,-75.822c4.945,-1.648 32.142,3.297 60.163,10.714c42.032,11.538 68.404,13.187 143.402,8.242l93.129,-4.945l43.68,41.208c24.725,23.076 51.098,42.031 59.339,42.031c12.362,0 14.011,-4.945 9.066,-38.735c-9.066,-65.932 -28.021,-94.777 -74.998,-112.084c-23.076,-9.066 -58.515,-32.142 -83.239,-55.218c-56.867,-53.57 -107.964,-69.229 -216.752,-64.284c-66.756,2.472 -84.887,6.593 -116.205,24.724c-47.801,28.021 -116.205,47.801 -165.654,47.801c-34.615,0 -40.384,-2.472 -50.274,-22.252c-16.483,-34.614 -48.624,-31.318 -61.811,5.769c-5.769,15.659 -9.89,42.856 -9.89,60.163c-0.824,36.263 -13.186,63.46 -28.021,63.46c-12.362,-0 -59.339,-47.801 -93.953,-97.25l-25.549,-35.439l-18.955,39.56l-19.78,39.559l-43.68,-0c-37.086,-0 -45.328,3.296 -61.811,23.076c-16.483,20.604 -26.373,24.725 -83.239,31.318c-84.888,9.065 -117.03,19.779 -160.71,53.57c-42.855,32.966 -57.69,34.614 -89.008,9.065c-59.339,-47.801 -54.394,-51.097 -50.273,27.197c4.121,88.184 18.955,115.381 83.239,153.292c26.373,15.659 51.097,28.021 54.394,28.021c4.121,0 0,-23.076 -9.066,-51.921c-12.362,-40.384 -14.01,-57.691 -6.593,-74.998c14.835,-40.383 33.79,-9.89 70.877,114.557c24.725,81.591 27.197,89.832 32.142,85.712c1.648,-2.473 13.186,-47.801 25.549,-102.195c11.538,-54.394 22.252,-99.722 23.076,-100.546c0.824,-0.824 21.428,3.296 46.152,9.889c68.405,18.132 86.536,16.483 107.14,-12.362c32.966,-46.152 116.205,-43.68 160.709,4.945c37.911,41.208 60.163,26.373 74.174,-49.449c8.241,-43.68 37.087,-67.58 89.008,-74.173c23.076,-3.297 64.284,-11.539 90.657,-18.956c43.68,-12.362 48.625,-11.538 62.635,0.824c8.242,7.418 18.956,28.021 24.725,46.153c5.769,20.603 20.603,40.383 37.911,54.394c25.548,19.779 28.845,25.548 28.845,61.811c-0,33.79 -4.121,44.504 -32.142,76.646c-20.604,23.9 -34.614,48.625 -37.911,70.053c-12.362,74.173 23.076,215.103 54.394,215.103c4.121,0 10.714,-8.241 16.483,-17.307Zm-546.412,634.596c12.362,-47.801 0.824,-74.998 -29.669,-71.701c-17.307,1.648 -23.076,7.417 -24.725,25.548c-2.472,22.252 25.549,79.943 39.559,79.943c3.297,0 9.89,-15.659 14.835,-33.79Zm1324.41,-1445.56c0,-23.077 -23.9,-20.604 -27.197,2.472c-2.472,15.659 0,18.956 12.363,16.483c8.241,-1.648 14.834,-9.89 14.834,-18.955Zm-934.587,611.519c14.011,-31.317 -24.724,-137.633 -50.273,-137.633c-20.604,0 -20.604,119.502 0.824,145.051c14.835,17.307 39.56,14.01 49.449,-7.418Zm970.026,-703c26.373,-18.131 23.076,-49.449 -9.89,-82.415c-51.097,-51.097 -112.085,-32.142 -112.085,34.614c0,51.098 75.822,80.767 121.975,47.801Zm-1425.78,-29.67c14.835,-14.834 11.538,-56.866 -6.593,-86.535c-14.011,-23.077 -21.428,-27.197 -47.801,-27.197c-70.053,-0 -66.756,57.69 6.593,109.612c23.901,16.483 34.615,17.307 47.801,4.12Zm-437.624,564.544c-25.549,-49.449 -51.921,-74.998 -65.108,-61.812c-14.834,14.835 0,49.449 40.384,90.657c46.152,46.152 56.042,34.614 24.724,-28.845Zm-5.769,-196.972c0,-39.56 -12.362,-60.163 -45.328,-74.174c-36.263,-14.835 -86.536,-15.659 -86.536,-0.824c-0,18.131 100.546,104.667 121.974,104.667c5.769,0 9.89,-11.538 9.89,-29.669Zm3862.79,492.842c80.767,-7.418 97.25,-18.956 135.161,-98.898c46.152,-98.074 41.207,-121.15 -18.956,-79.943c-16.483,11.538 -32.141,20.604 -34.614,20.604c-14.01,-0 -1.648,-32.966 23.076,-60.163c39.56,-44.504 46.153,-104.667 11.538,-104.667c-46.152,-0 -113.732,62.635 -113.732,105.491c-0,8.241 -6.594,21.428 -14.835,28.845c-24.725,22.252 -34.614,3.297 -28.845,-52.745c4.12,-42.032 2.472,-47.801 -12.363,-56.043c-17.307,-9.065 -134.336,-36.262 -138.457,-31.317c-5.769,5.769 -56.866,130.215 -74.173,182.137c-23.901,70.053 -24.725,104.667 -4.121,123.623c28.021,25.548 134.336,33.79 270.321,23.076Zm-150.819,-162.358c-6.594,-16.483 10.714,-37.087 30.493,-37.087c18.956,0 19.78,7.418 2.473,31.318c-14.835,21.428 -26.373,23.076 -32.966,5.769Zm-635.421,562.895c54.394,-27.197 50.274,-53.57 -9.065,-61.811c-62.636,-8.242 -117.03,23.9 -104.667,63.459c9.065,28.021 56.042,28.021 113.732,-1.648Zm-331.308,-822.502c21.428,-21.428 24.724,-29.67 22.252,-63.46c-2.472,-37.911 -3.297,-39.559 -25.549,-37.911c-29.669,1.648 -75.822,36.263 -92.305,68.405c-14.834,29.669 -14.834,28.845 0.825,44.504c21.427,22.252 66.756,16.483 94.777,-11.538Zm-1204.08,292.573c-0,-10.714 -5.769,-41.207 -12.362,-67.58c-6.594,-25.549 -12.363,-59.339 -12.363,-74.174c0,-22.252 -3.296,-27.197 -17.307,-27.197c-23.076,0 -43.68,51.098 -37.087,93.129c9.066,52.746 34.615,96.426 58.515,96.426c16.483,-0 20.604,-4.121 20.604,-20.604Zm151.644,-849.699c27.196,-10.714 9.065,-36.263 -24.725,-36.263c-16.483,0 -24.725,24.725 -10.714,33.79c14.011,8.242 18.956,9.066 35.439,2.473Zm1170.29,1371.39c10.714,-15.658 11.539,-20.603 1.649,-35.438c-21.428,-32.142 -62.636,-21.428 -62.636,15.659c0,37.911 39.56,51.097 60.987,19.779Zm1195.84,-340.374c0,-16.483 -4.945,-25.548 -14.011,-27.197c-12.362,-2.472 -14.834,3.297 -14.834,27.197c-0,23.901 2.472,29.67 14.834,27.197c9.066,-1.648 14.011,-10.714 14.011,-27.197Zm-704.649,194.5c0,-14.011 -14.834,-33.79 -25.548,-33.79c-10.714,-0 -14.835,35.438 -6.594,51.097c6.594,12.362 10.714,14.011 20.604,5.769c6.593,-4.945 11.538,-15.659 11.538,-23.076Zm-1681.27,-272.794c6.593,-11.538 6.593,-63.46 1.648,-172.248c-5.769,-125.27 -10.714,-161.533 -23.076,-187.082c-19.78,-39.559 -43.68,-42.856 -60.163,-7.417c-24.725,51.921 -4.945,313.177 28.021,363.45c15.659,23.901 41.208,25.549 53.57,3.297Zm-420.317,-262.904c10.714,-20.604 1.648,-43.68 -15.659,-40.384c-14.01,2.473 -21.428,25.549 -14.01,44.505c6.593,16.483 18.955,14.834 29.669,-4.121Zm-1322.76,242.3c0,-16.483 -4.945,-25.549 -14.01,-27.197c-12.363,-2.472 -14.835,3.297 -14.835,27.197c0,23.901 2.472,29.67 14.835,27.197c9.065,-1.648 14.01,-10.714 14.01,-27.197Zm362.627,-455.755c26.372,-15.659 37.086,-46.153 18.955,-52.746c-5.769,-2.472 -42.032,3.297 -80.767,13.187c-53.57,13.186 -70.877,20.603 -72.525,32.966c-1.648,8.241 1.648,18.955 8.242,23.076c15.658,10.714 96.425,-0 126.095,-16.483Zm867.006,412.899c5.769,-15.659 -23.9,-43.68 -46.977,-43.68c-18.955,0 -27.197,21.428 -16.483,42.032c11.539,19.78 56.043,21.428 63.46,1.648Zm-2100.76,789.537c4.121,-24.725 -4.945,-58.515 -14.835,-58.515c-11.538,-0 -18.955,37.911 -13.186,62.635c6.593,24.725 24.724,22.252 28.021,-4.12Zm5194.62,-58.515c13.186,-42.032 0.824,-74.174 -28.022,-74.174c-23.076,0 -38.735,28.022 -38.735,70.053c0,61.812 48.625,65.108 66.757,4.121Zm-1583.19,-1389.52c0,-26.373 -27.197,-107.964 -55.218,-163.182c-46.976,-93.129 -156.589,-187.906 -187.082,-162.358c-28.845,23.901 -14.011,79.119 39.559,148.348c19.78,25.548 38.735,55.218 42.032,66.756c8.241,29.669 33.79,55.218 89.832,91.481c52.746,34.614 70.877,39.559 70.877,18.955Zm-3174.63,940.356c66.756,-7.417 142.578,-17.307 169.775,-22.252c42.856,-8.242 49.449,-11.538 59.339,-37.087c11.538,-26.373 37.087,-164.83 48.625,-259.607l5.769,-47.801l-46.153,-0c-26.373,-0 -56.866,4.945 -70.053,11.538c-24.724,13.186 -75.821,66.756 -92.304,97.25l-10.714,18.955l-5.769,-20.604c-3.297,-11.538 -5.769,-37.086 -6.594,-56.866c-0.824,-42.856 -9.065,-37.911 -29.669,17.307c-7.417,20.604 -24.725,50.273 -37.087,65.932c-19.779,22.252 -25.548,25.549 -38.735,18.132c-8.241,-4.945 -17.307,-24.725 -21.428,-43.68c-3.296,-18.132 -9.89,-33.791 -13.186,-33.791c-3.297,0 -14.011,15.659 -22.252,34.615c-18.956,42.031 -50.273,80.766 -65.108,80.766c-16.483,0 -19.78,-18.131 -9.89,-65.107c6.593,-37.087 6.593,-45.329 -5.769,-56.867c-13.186,-13.186 -14.835,-13.186 -29.669,4.945c-8.242,10.714 -18.132,36.263 -20.604,57.691c-8.242,65.932 -14.835,79.118 -49.449,94.777c-30.494,14.011 -119.502,93.129 -119.502,105.491c-0,10.714 45.328,35.439 74.173,41.208c51.922,9.89 211.807,7.417 336.254,-4.945Zm3540.55,-1209.03c26.373,-52.746 28.021,-103.019 4.945,-132.688c-35.438,-44.505 -82.415,-32.142 -99.722,25.548c-7.418,25.549 -6.593,37.087 3.296,61.812c13.187,31.317 55.218,88.184 65.108,88.184c2.473,-0 14.835,-18.956 26.373,-42.856Zm-1264.25,360.978c-0,-20.604 -36.263,-62.636 -54.394,-62.636c-15.659,0 -14.835,41.208 1.648,64.284c17.308,25.549 52.746,24.725 52.746,-1.648Zm-395.592,378.285c4.945,-6.593 9.889,-24.725 9.889,-41.208c0,-16.483 -4.944,-34.614 -9.889,-41.207c-14.011,-17.307 -38.735,-15.659 -49.449,3.297c-26.373,51.097 15.659,119.501 49.449,79.118Zm2972.71,707.121c4.945,-45.328 -9.066,-65.108 -38.735,-56.042c-22.252,7.417 -22.252,48.625 0.824,85.712c21.428,34.614 32.966,25.548 37.911,-29.67Zm-2615.85,-9.89c10.714,-8.241 11.538,-14.834 4.945,-26.372c-11.538,-22.252 -55.218,-20.604 -144.227,4.945c-112.908,32.966 -111.26,37.91 14.011,35.438c79.118,-1.648 116.205,-5.769 125.271,-14.011Zm65.932,141.754c8.241,-8.241 -10.714,-27.197 -28.021,-27.197c-23.901,0 -58.515,15.659 -52.746,24.725c5.769,9.066 72.525,11.538 80.767,2.472Zm-843.106,-280.211c-0,-17.307 -7.418,-46.976 -16.483,-65.932c-23.901,-54.394 -28.021,-99.722 -12.362,-158.237c7.417,-28.845 11.538,-53.57 9.889,-55.218c-4.12,-4.121 -62.635,70.877 -87.36,112.085c-23.9,39.559 -21.428,53.569 10.714,72.525c19.78,11.538 32.142,28.021 42.032,56.042c26.373,70.877 53.57,89.832 53.57,38.735Zm1967.25,268.673c61.812,-20.604 77.471,-35.438 57.691,-55.218c-18.955,-18.131 -71.701,-14.835 -117.029,7.418c-103.843,51.921 -59.339,88.184 59.338,47.8Zm-52.745,-958.487c5.769,-14.011 -14.835,-32.966 -27.197,-25.549c-4.121,2.473 -8.242,12.363 -8.242,21.428c0,18.956 28.846,22.252 35.439,4.121Zm-2622.45,2634.81c13.187,-32.142 11.539,-135.985 -1.648,-164.006c-8.241,-16.483 -18.131,-23.901 -32.142,-23.901c-28.021,0 -43.68,35.439 -47.8,108.788c-3.297,54.394 -1.649,60.987 17.307,79.943c28.021,28.021 52.745,28.021 64.283,-0.824Zm2760.91,-2945.51c14.011,-14.01 16.483,-23.076 11.538,-46.976c-14.01,-76.646 -84.063,-145.875 -107.964,-107.14c-10.713,17.307 -5.769,83.239 8.242,117.854c23.076,54.394 56.042,68.404 88.184,36.262Zm2656.24,3119.41c25.548,-25.548 10.714,-60.987 -25.549,-60.987c-13.186,0 -22.252,7.418 -28.845,21.428c-9.066,18.956 -8.242,23.901 9.065,37.087c23.077,18.955 28.846,18.955 45.329,2.472Zm-5656.97,598.334c38.735,-34.615 47.8,-35.439 134.336,-21.428c140.106,23.9 289.277,37.911 401.362,37.911c99.722,-0 115.381,-2.473 154.116,-19.78c32.966,-15.659 42.856,-25.548 46.976,-43.68c3.297,-13.186 34.615,-76.646 70.877,-141.754c73.35,-135.16 100.547,-210.158 123.623,-349.44c25.549,-151.643 20.604,-269.497 -11.538,-269.497c-28.021,0 -33.79,24.725 -32.142,138.457l0.824,110.437l-25.549,-4.945c-63.459,-10.714 -360.154,-40.384 -364.274,-36.263c-2.473,2.473 -0.824,14.011 4.12,26.373c12.363,33.79 9.066,94.777 -7.417,136.809l-14.835,37.087l-4.12,-78.295c-4.121,-100.546 -17.307,-123.622 -85.712,-157.412c-30.494,-15.659 -60.163,-23.901 -74.174,-22.252l-23.9,2.472l2.473,64.284c1.648,42.856 -1.649,79.118 -11.539,111.26l-14.01,46.977l-14.011,-74.174c-20.603,-107.964 -34.614,-134.336 -80.766,-148.347c-26.373,-7.417 -59.339,14.835 -59.339,41.208c-0,10.714 -3.297,21.427 -6.594,23.9c-4.12,2.472 -13.186,-29.669 -20.603,-70.877c-7.418,-41.208 -14.835,-75.822 -16.483,-77.47c-3.297,-3.297 -136.809,-19.78 -159.886,-19.78c-18.131,0 -18.955,3.297 -18.955,56.042c0,54.394 -9.89,112.909 -20.604,123.623c-3.296,3.297 -10.714,-0.824 -16.483,-9.066c-11.538,-15.658 -15.659,-37.086 -24.724,-122.798c-3.297,-27.197 -11.538,-55.218 -20.604,-65.932c-14.011,-17.307 -16.483,-18.131 -29.669,-4.945c-8.242,8.242 -15.659,33.79 -18.956,65.932c-6.593,62.635 -14.01,77.47 -30.494,63.46c-18.955,-15.659 -14.01,-74.998 9.066,-109.612c34.614,-50.274 34.614,-65.932 0.824,-86.536c-31.317,-19.78 -164.006,-66.756 -187.906,-66.756c-11.538,-0 -14.835,6.593 -14.835,35.438c-0.824,56.866 -13.186,104.667 -32.966,126.095c-17.307,17.307 -26.373,19.78 -77.47,19.78c-99.722,-0 -136.809,-28.021 -148.347,-110.436c-4.945,-34.615 -24.725,-62.636 -45.328,-62.636c-7.418,0 -19.78,11.538 -27.197,24.725c-11.538,20.603 -18.956,24.724 -45.329,24.724c-41.207,0 -64.283,-16.483 -89.008,-65.108c-23.9,-46.976 -39.559,-53.57 -104.667,-41.207c-56.042,11.538 -84.888,5.769 -100.546,-19.78c-17.308,-26.373 -28.846,-125.271 -38.735,-331.308c-10.714,-207.686 -5.77,-356.858 13.186,-428.559c7.417,-27.197 12.362,-61.811 10.714,-78.294c-2.473,-25.549 -5.769,-28.845 -27.197,-31.318c-33.79,-2.472 -73.349,23.901 -101.371,68.405l-23.9,37.911l-21.428,-32.966c-23.076,-35.439 -46.976,-44.505 -46.976,-18.956c-0,23.9 -17.308,34.614 -54.394,34.614c-36.263,0 -60.988,19.78 -60.988,49.449c0,7.418 -7.417,21.428 -16.483,31.318c-23.076,24.725 -45.328,12.362 -58.514,-31.318c-18.132,-60.163 -27.197,-39.559 -35.439,79.943c-4.945,72.525 -16.483,95.602 -69.228,140.106c-31.318,26.373 -42.856,42.856 -50.274,71.701c-12.362,51.097 -11.538,131.04 4.121,234.883c37.911,260.431 95.602,426.086 179.665,518.39c75.822,82.416 253.014,186.259 496.963,290.926c113.733,48.625 154.116,60.987 389.823,122.798c189.555,49.449 285.156,80.767 416.196,138.457c41.208,18.132 87.36,35.439 103.019,37.911c60.987,12.363 60.163,11.538 55.218,49.449c-8.241,58.515 21.428,71.701 68.405,29.67Zm676.627,-478.008l0.824,-37.086l9.066,27.197c5.769,19.779 5.769,29.669 -0.824,36.262c-7.417,7.418 -9.89,0.824 -9.066,-26.373Zm-708.769,-88.184c-4.945,-17.307 -9.066,-46.152 -9.066,-64.283l0,-32.966l25.549,40.383c31.317,50.273 35.438,82.415 9.89,85.712c-14.835,2.472 -19.78,-3.297 -26.373,-28.846Zm-367.571,-112.908c-16.483,-24.725 -9.066,-54.394 13.186,-54.394c13.186,-0 15.659,5.769 15.659,32.142c-0,40.383 -11.538,49.449 -28.845,22.252Zm1204.91,294.221c-9.89,-9.065 -6.593,-83.239 4.121,-89.832c14.834,-9.066 49.449,35.439 40.383,52.746c-11.538,20.603 -38.735,43.68 -44.504,37.086Zm50.273,357.682c20.604,-24.725 158.237,-344.495 158.237,-368.396c-0,-37.91 -70.877,65.933 -145.875,212.631c-48.625,93.954 -62.635,144.227 -46.152,160.71c8.241,9.065 24.724,6.593 33.79,-4.945Zm1325.23,-1220.57c-8.241,-32.142 -29.669,-27.197 -29.669,5.769c-0,33.79 7.417,42.856 23.076,27.197c7.417,-7.418 9.89,-19.78 6.593,-32.966Zm-1624.4,553.829c28.846,-13.186 45.329,-46.977 45.329,-92.305c-0,-52.746 -14.835,-117.029 -32.966,-138.457c-14.835,-18.132 -15.659,-18.132 -31.318,-3.297c-24.725,21.428 -43.68,81.591 -48.625,153.292c-4.121,51.922 -2.473,65.108 9.066,76.646c17.307,16.483 29.669,17.307 58.514,4.121Zm536.522,201.093c26.373,-21.428 92.305,-105.492 110.437,-141.754c32.141,-62.636 17.307,-65.932 -42.856,-9.89c-46.977,42.856 -105.492,127.743 -105.492,151.644c0,18.955 15.659,18.955 37.911,-0Zm878.545,-88.184c-4.121,-27.197 -46.977,-90.657 -62.635,-93.129c-14.011,-3.297 -14.835,0.824 -10.714,26.372c7.417,45.329 37.086,89.009 58.514,85.712c12.362,-1.648 16.483,-7.417 14.835,-18.955Zm-552.181,245.596c30.494,-32.966 56.042,-77.47 56.042,-98.898c0,-10.714 -7.417,-22.252 -18.131,-28.021c-15.659,-8.241 -20.604,-6.593 -40.383,15.659c-34.615,38.735 -55.219,133.513 -29.67,133.513c5.769,-0 20.604,-9.89 32.142,-22.253Zm-1017.83,-394.768c4.121,-11.538 -9.066,-27.197 -23.076,-28.021c-12.363,0 -33.79,23.076 -28.846,31.318c9.066,14.835 46.153,11.538 51.922,-3.297Zm1655.72,78.295c-36.263,-70.053 -81.591,-133.513 -130.216,-182.138c-47.801,-47.8 -64.284,-56.866 -64.284,-37.086c0,15.658 120.326,191.203 167.303,242.3c50.273,54.394 61.811,43.68 27.197,-23.076Zm-2042.25,-3050.18c3.297,-18.955 -29.669,-28.021 -45.328,-12.362c-7.417,6.593 -9.89,16.483 -6.593,22.252c8.241,14.01 48.625,6.593 51.921,-9.89Zm-542.291,2903.48c16.483,-32.142 -18.131,-67.581 -49.449,-50.273c-18.131,9.889 -22.252,40.383 -6.593,56.042c14.835,14.835 46.152,11.538 56.042,-5.769Zm2711.46,963.432c-0,-10.714 -5.769,-16.483 -16.483,-16.483c-10.714,-0 -16.483,5.769 -16.483,16.483c-0,10.714 5.769,16.483 16.483,16.483c10.714,-0 16.483,-5.769 16.483,-16.483Zm-2048.01,-3720.22c19.78,-29.67 24.725,-73.349 9.89,-85.712c-32.142,-27.197 -77.47,43.68 -58.514,92.305c7.417,19.78 33.79,15.659 48.624,-6.593Zm1271.66,492.842c2.472,-19.78 -43.68,-148.347 -56.866,-155.764c-10.714,-7.418 -9.066,119.501 1.648,151.643c7.417,22.252 13.186,26.373 31.318,23.901c14.834,-1.649 22.252,-8.242 23.9,-19.78Zm314.001,2654.59c92.305,-18.955 107.964,-35.438 91.481,-92.305c-4.945,-17.307 -12.362,-135.16 -16.483,-262.08c-4.945,-171.423 -9.89,-241.476 -19.78,-271.969c-19.779,-63.46 -43.68,-242.301 -62.635,-478.008c-9.066,-117.853 -20.604,-241.476 -24.725,-274.442c-9.065,-65.108 -32.141,-119.502 -57.69,-135.16c-20.604,-13.187 -20.604,-19.78 -0,-25.549c28.845,-7.418 35.438,-43.68 36.263,-182.962c-0,-166.478 -5.77,-190.378 -60.163,-224.993c-21.428,-14.01 -97.25,-82.415 -166.479,-151.643c-149.171,-146.699 -180.489,-171.424 -219.224,-171.424c-37.087,0 -62.635,28.021 -98.898,107.14c-69.229,149.171 -90.657,188.73 -138.457,259.607c-79.943,116.205 -80.767,118.678 -70.877,187.907c13.186,94.777 16.483,138.457 37.911,508.501c37.911,642.013 65.932,926.345 95.601,944.476c18.131,10.714 99.722,-53.57 170.599,-134.336l41.208,-47.801l-19.78,-127.743c-10.714,-70.053 -19.779,-133.513 -19.779,-140.93c-0,-9.066 14.834,-17.307 47.8,-27.197c88.184,-24.725 176.369,-14.011 207.686,25.548c37.087,47.801 58.515,185.434 77.47,508.501c13.187,221.697 12.363,219.224 75.822,219.224c19.78,0 60.987,-5.769 93.129,-12.362Zm-279.387,-1112.6c-15.659,-16.483 -20.604,-32.966 -23.076,-74.174c-4.121,-58.514 6.593,-83.239 43.68,-107.963c39.559,-25.549 86.536,10.714 86.536,67.58c-0,46.152 -11.538,75.822 -43.68,108.788c-30.494,32.142 -37.911,32.142 -63.46,5.769Zm-275.266,-57.691c-8.242,-21.428 -5.769,-81.591 4.121,-110.436c24.724,-70.877 131.04,-48.625 131.04,27.197l-0,28.845l-41.208,-4.945c-31.318,-3.296 -42.032,-1.648 -43.68,6.594c-14.01,47.8 -19.78,60.987 -31.318,63.459c-7.417,1.649 -15.658,-3.296 -18.955,-10.714Zm28.845,-777.174c-18.955,-34.614 28.845,-140.929 59.339,-131.04c11.538,3.297 17.307,47.801 10.714,76.646c-5.769,20.604 -43.68,69.229 -55.218,69.229c-3.297,-0 -10.714,-6.593 -14.835,-14.835Zm199.445,393.12c-5.769,-5.769 -4.121,-22.252 5.769,-55.218c13.186,-42.856 16.483,-46.977 41.207,-49.449c16.483,-1.648 32.142,2.472 42.032,11.538c20.604,18.956 21.428,70.053 0.824,88.184c-17.307,15.659 -75.822,18.956 -89.832,4.945Zm-228.29,-9.066c-35.439,-50.273 3.297,-112.908 56.866,-92.304c15.659,6.593 37.087,45.328 37.087,68.404c0,38.735 -70.877,56.866 -93.953,23.9Zm-797.778,-1722.47c13.187,-13.187 12.362,-43.68 -2.472,-56.043c-15.659,-13.186 -37.087,-8.241 -50.274,12.363c-21.427,32.142 25.549,70.877 52.746,43.68Zm2191.42,2971.06c-5.769,-82.415 -17.308,-127.744 -36.263,-146.699c-28.021,-28.845 -51.097,9.89 -63.46,107.964l-8.241,67.58l-33.79,-104.667c-32.966,-101.371 -34.615,-103.019 -39.559,-70.877c-3.297,18.131 -5.77,74.998 -5.77,126.095l0,92.305l192.028,-0l-4.945,-71.701Zm-640.365,235.707c-0,-41.208 -61.812,-92.305 -78.295,-64.284c-15.659,24.725 26.373,89.832 58.515,89.832c16.483,0 19.78,-4.12 19.78,-25.548Zm74.997,-3121.88c28.846,-28.845 32.966,-70.877 8.242,-79.118c-18.956,-5.769 -56.042,1.648 -80.767,17.307c-32.142,20.604 -19.78,64.284 22.252,79.942c21.428,7.418 25.549,6.594 50.273,-18.131Zm710.418,2946.34c14.835,-5.769 45.328,-30.494 69.229,-55.218l42.856,-43.68l20.603,20.603c11.539,11.538 36.263,25.549 54.394,31.318c32.966,9.89 165.655,27.197 170.6,23.076c0.824,-1.648 -6.594,-25.548 -17.308,-52.745l-18.955,-49.449l91.481,18.955c50.273,10.714 93.953,18.956 98.074,19.78c3.296,-0 5.769,-27.197 5.769,-59.339l0.824,-60.163l14.01,25.549c30.494,54.393 76.646,93.953 109.612,93.953c18.956,-0 24.725,-17.307 32.142,-108.788c7.418,-77.47 17.307,-113.733 32.142,-113.733c12.362,0 18.956,26.373 26.373,111.26c8.241,98.898 18.955,127.744 44.504,127.744c40.383,-0 91.481,-67.581 71.701,-93.129c-19.779,-25.549 -28.021,-79.943 -34.614,-228.29c-9.066,-180.489 -20.604,-239.828 -59.339,-294.222c-19.78,-27.197 -25.549,-43.68 -24.725,-65.932c1.649,-20.604 -4.12,-39.559 -18.955,-60.987c-32.966,-50.273 -27.197,-60.163 18.131,-32.142c59.339,36.263 109.612,198.62 137.634,449.162c32.141,277.739 33.79,284.332 75.821,270.322c34.615,-11.538 44.505,-37.911 44.505,-117.854c-0,-145.05 -34.615,-342.022 -95.602,-544.763c-37.911,-126.92 -53.57,-203.566 -38.735,-194.5c4.945,3.297 23.9,37.087 42.856,74.998c37.911,77.47 64.284,103.843 102.194,103.843l24.725,-0l-4.945,-55.218c-8.241,-103.019 -63.46,-243.125 -103.019,-262.904c-32.966,-16.484 -48.625,-36.263 -66.756,-84.888c-9.066,-26.373 -24.724,-54.394 -34.614,-63.46c-21.428,-19.779 -71.701,-19.779 -100.547,-0.824c-18.955,12.363 -22.252,20.604 -22.252,51.098c0,19.779 7.418,55.218 16.483,78.294c23.901,61.811 22.252,70.877 -18.131,84.887c-49.449,17.308 -145.875,40.384 -175.544,41.208c-23.076,1.648 -24.725,-0 -30.494,-42.856c-9.89,-67.58 -29.669,-83.239 -61.811,-47.801c-32.142,35.439 -46.152,111.261 -26.373,147.523c10.714,19.78 5.769,26.373 -16.483,18.956c-27.197,-8.242 -46.976,-52.746 -61.811,-135.985c-8.242,-42.856 -19.78,-89.832 -26.373,-103.843c-23.076,-48.625 -79.943,-57.691 -90.657,-14.011c-3.296,11.539 -0.824,64.284 4.945,117.854c10.714,100.546 7.418,140.106 -11.538,140.106c-15.659,-0 -27.197,-35.439 -33.79,-98.899c-6.593,-69.228 -20.604,-90.656 -57.69,-90.656c-41.208,-0 -48.625,22.252 -32.966,109.612c6.593,37.087 12.362,71.701 12.362,76.646c-0,11.538 -142.578,85.712 -164.006,85.712c-23.076,-0 -30.494,-14.835 -46.153,-85.712c-16.483,-73.349 -42.031,-108.788 -83.239,-117.029c-31.318,-5.769 -52.745,12.362 -52.745,45.328c-0,32.142 -16.483,74.998 -28.022,74.998c-19.779,-0 -29.669,-20.604 -29.669,-63.46c-0,-23.9 -2.472,-43.68 -5.769,-43.68c-4.121,-0 -19.78,20.604 -35.439,45.328l-28.845,44.504l-27.197,-42.855c-14.835,-23.901 -30.493,-42.856 -34.614,-42.856c-8.242,-0 -69.229,78.294 -87.36,112.908c-22.252,42.856 -12.362,64.284 32.966,64.284c33.79,0 51.921,20.604 56.866,66.756c7.418,61.812 18.132,69.229 93.129,67.581l61.812,-1.649l-25.549,28.846c-32.142,37.086 -32.142,71.701 -0,131.864c25.549,48.625 24.724,56.042 -5.769,101.37c-9.89,14.835 -22.252,41.208 -27.197,57.691c-9.89,35.438 -10.714,140.93 -1.648,140.93c4.12,-0 24.724,-24.725 47.8,-55.219l40.384,-56.042l2.472,32.142c4.121,45.328 19.78,65.108 76.646,95.602c77.47,41.207 81.591,47.8 81.591,138.457c0,82.415 7.417,105.491 35.439,117.029c26.372,10.714 43.68,9.89 74.173,-3.296Zm429.383,-781.295c-6.594,-10.714 32.142,-47.801 51.097,-47.801c17.307,0 14.011,21.428 -6.593,41.208c-20.604,18.955 -35.439,21.428 -44.504,6.593Zm-467.294,685.693c-19.779,-52.745 -30.493,-163.182 -30.493,-323.891c-0,-117.029 1.648,-139.281 12.362,-143.402c7.417,-2.473 14.835,-3.297 16.483,-0.824c17.307,17.307 35.438,369.219 23.076,455.755l-7.417,49.449l-14.011,-37.087Zm366.747,-117.853c-4.945,-5.769 -20.603,-36.263 -34.614,-67.581c-31.318,-70.052 -45.328,-86.535 -74.174,-86.535c-12.362,-0 -24.724,-2.473 -27.197,-4.945c-9.065,-9.89 10.714,-36.263 28.022,-36.263c15.658,-0 22.252,-10.714 37.91,-61.811c9.066,-32.966 33.791,-32.142 53.57,0.824c21.428,36.262 39.56,127.743 39.56,198.62c-0,59.339 -7.418,77.47 -23.077,57.691Zm-130.216,7.417c-2.472,-6.593 -3.296,-23.9 -1.648,-39.559c1.648,-20.604 6.593,-28.021 20.604,-29.67c21.428,-3.296 32.142,25.549 23.9,60.163c-5.769,23.077 -35.438,28.846 -42.856,9.066Zm-384.878,-281.859c-10.714,-10.714 -5.769,-42.856 7.417,-47.801c18.132,-7.418 37.911,10.714 34.615,31.317c-2.473,17.308 -30.494,28.022 -42.032,16.484Zm258.783,219.224c-10.714,-51.098 -11.538,-257.135 -0.824,-239.004c9.066,15.659 32.966,175.544 32.966,220.872c0,69.229 -18.955,79.119 -32.142,18.132Zm332.133,-42.032c-22.252,-37.087 -3.296,-211.807 28.021,-254.663c34.615,-46.152 120.326,-48.625 140.106,-4.12c5.769,11.538 18.955,22.252 32.142,24.724c70.053,14.835 89.832,23.9 129.391,63.46c23.901,23.076 34.615,38.735 25.549,35.438c-9.066,-3.296 -39.559,-7.417 -67.58,-9.89l-51.098,-4.945l-60.987,59.339c-32.966,32.142 -65.108,58.515 -70.053,58.515c-4.944,0 -13.186,-7.417 -18.131,-16.483c-14.01,-26.373 -32.142,-18.955 -49.449,20.604c-15.659,37.087 -27.197,45.328 -37.911,28.021Zm-1058.21,-230.762c-0,-49.449 -253.839,-381.582 -255.487,-333.781c0,27.197 127.743,224.169 197.796,304.111c32.966,37.087 57.691,49.449 57.691,29.67Zm-2556.52,122.798c15.659,-15.659 11.539,-73.349 -9.065,-109.612c-32.966,-58.515 -70.877,-42.032 -71.701,30.494c-0,60.163 50.273,109.612 80.766,79.118Zm4468.55,-204.389c25.549,-25.549 19.78,-60.987 -19.779,-140.106c-20.604,-38.735 -46.153,-103.019 -56.867,-141.754c-23.9,-83.239 -43.68,-123.622 -83.239,-169.775c-28.021,-34.614 -31.318,-41.207 -41.208,-85.711c-8.241,-37.911 -62.635,-37.087 -62.635,0.824c0,26.373 112.084,341.198 159.885,449.162c46.153,103.843 68.405,122.798 103.843,87.36Zm-1466.99,-510.974c9.066,-9.065 16.483,-20.603 16.483,-25.548c0,-6.593 19.78,-8.242 68.405,-4.121c71.701,4.945 84.887,2.472 89.008,-23.9c3.296,-13.187 12.362,-17.308 54.394,-22.252c38.735,-4.121 79.942,-18.956 165.654,-59.339c117.854,-55.218 192.851,-79.119 256.311,-79.119c70.877,0 141.754,-17.307 168.127,-40.383c19.779,-18.956 25.548,-32.142 31.317,-74.998c7.418,-48.625 18.132,-74.173 32.142,-74.173c10.714,-0 24.725,41.207 24.725,73.349c-0,17.307 4.121,42.856 9.065,57.691c7.418,22.252 13.187,26.372 30.494,23.9c27.197,-3.297 51.921,-44.504 76.646,-125.271c18.955,-61.811 47.801,-98.898 85.712,-108.788c37.911,-9.89 49.449,10.714 51.921,99.722c4.121,91.481 9.066,94.778 57.691,42.032c39.559,-42.856 47.8,-57.691 63.459,-113.733c9.89,-37.911 12.363,-41.207 17.307,-23.9c3.297,10.714 15.659,37.911 27.197,61.811c41.208,81.591 63.46,41.208 50.274,-93.953c-4.945,-47.801 -10.714,-95.601 -13.187,-106.315c-3.296,-15.659 3.297,-10.714 28.021,20.603c40.384,51.098 55.218,62.636 73.35,59.339c18.955,-3.296 33.79,-54.394 34.614,-115.381c0.824,-40.383 -1.648,-48.625 -16.483,-56.866c-9.89,-4.945 -30.493,-7.418 -46.152,-4.945l-28.021,4.945l5.769,-42.856c8.241,-59.339 9.065,-276.915 0.824,-304.936c-11.538,-40.383 -88.184,-63.459 -258.784,-75.822l-68.404,-4.945l5.769,171.424l4.945,172.247l-29.67,30.494c-28.845,28.021 -30.493,32.966 -30.493,84.063c-0,29.67 2.472,53.57 6.593,53.57c3.297,-0 57.691,-13.187 120.326,-28.845c63.46,-15.659 117.029,-27.197 118.678,-24.725c5.769,5.769 -145.875,77.47 -192.027,90.657c-22.252,6.593 -55.218,14.01 -71.701,16.483c-17.308,2.472 -45.329,16.483 -64.284,32.966c-56.867,47.8 -107.14,35.438 -90.657,-21.428c12.363,-42.032 10.714,-46.977 -25.548,-84.064l-34.615,-32.966l4.945,-81.59c2.473,-44.505 2.473,-80.767 0.824,-80.767c-1.648,-0 -8.241,18.955 -15.659,42.856c-24.724,83.239 -75.821,131.04 -224.169,208.51c-79.118,40.383 -121.15,77.47 -122.798,107.963c-0.824,13.187 -2.472,27.197 -2.472,30.494c-1.649,14.011 -58.515,29.669 -167.303,46.152c-149.171,23.077 -138.457,24.725 -138.457,-23.076c-0,-35.438 -3.297,-42.856 -28.846,-65.932c-16.483,-14.01 -33.79,-25.549 -38.735,-25.549c-5.769,0 -25.548,-7.417 -44.504,-17.307c-28.021,-13.186 -37.911,-23.9 -49.449,-53.569c-13.186,-34.615 -32.142,-54.394 -109.612,-117.03c-18.131,-14.835 -33.79,-32.142 -33.79,-38.735c-0,-31.318 171.423,-42.856 296.694,-18.131l53.57,9.89l5.769,76.646c7.417,95.601 20.604,147.523 33.79,134.336c6.593,-6.593 10.714,-65.108 12.362,-173.896l3.297,-164.83l112.085,-100.546c114.556,-103.843 193.675,-190.379 203.565,-221.697c9.89,-30.493 -7.418,-36.262 -110.436,-36.262c-84.888,-0 -100.547,-2.473 -115.382,-15.659c-23.076,-20.604 -22.252,-32.142 7.418,-93.953c14.01,-28.846 24.724,-57.691 24.724,-64.284c0,-7.417 -46.976,-34.614 -117.029,-68.405c-158.237,-74.997 -158.237,-75.821 -159.885,-148.347c-0.824,-39.559 -5.769,-65.108 -14.835,-79.942c-17.307,-26.373 -122.798,-77.471 -159.061,-77.471c-22.252,0 -28.021,3.297 -32.142,23.077c-8.241,38.735 -18.955,59.339 -31.318,59.339c-16.483,-0 -27.197,-21.428 -41.207,-82.416c-6.593,-28.021 -14.011,-52.745 -15.659,-54.393c-1.648,-2.473 -11.538,18.955 -21.428,46.976c-26.373,70.053 -42.032,75.822 -175.544,65.108c-56.042,-4.945 -156.589,-9.89 -224.993,-10.714l-122.799,-1.648l-10.714,73.349c-5.769,40.384 -9.889,74.998 -8.241,76.646c1.648,0.824 30.493,-6.593 63.46,-18.131c32.966,-11.538 60.987,-20.604 61.811,-20.604c0.824,0 4.121,32.142 6.593,72.525c2.472,39.56 9.89,88.184 17.307,107.964c13.187,37.087 78.294,128.568 85.712,121.15c1.648,-2.472 -1.648,-54.394 -7.418,-115.381c-11.538,-120.326 -5.769,-157.413 23.901,-151.644c22.252,4.121 34.614,40.384 46.976,135.985c14.011,107.14 25.549,142.578 44.505,142.578c22.252,0 32.966,-33.79 42.855,-126.095c11.539,-116.205 18.956,-125.271 77.471,-101.37c38.735,16.483 53.569,49.449 53.569,120.326c0,31.318 0.825,57.69 2.473,57.69c0.824,0 22.252,-5.769 46.976,-12.362c56.867,-14.835 99.723,-15.659 119.502,-1.648c21.428,15.659 9.89,28.021 -32.142,33.79c-48.625,7.417 -62.635,19.78 -68.404,59.339c-4.945,40.383 8.241,90.656 34.614,130.216c23.076,33.79 22.252,33.79 -39.559,41.207c-83.239,9.89 -107.964,41.208 -125.271,158.237c-14.01,92.305 -22.252,107.14 -46.152,78.294c-12.363,-14.834 -15.659,-32.142 -15.659,-75.822c-0,-55.218 -0.824,-56.866 -22.252,-60.987c-88.184,-18.131 -104.667,-32.966 -126.095,-113.732c-5.769,-21.428 -13.187,-36.263 -16.483,-32.966c-3.297,3.296 -18.132,34.614 -32.966,68.404c-65.932,153.292 -86.536,112.085 -98.898,-202.741c-4.121,-103.843 -9.89,-196.972 -12.363,-206.862c-8.241,-25.549 -25.548,-23.9 -42.856,3.297c-12.362,18.955 -15.658,48.625 -18.955,210.158c-2.472,107.964 -7.417,190.379 -12.362,195.324c-11.538,11.538 -23.077,1.648 -32.966,-28.021c-17.307,-51.922 -77.47,-14.011 -90.657,56.866c-8.241,41.208 7.417,65.932 75.822,122.799c35.438,29.669 96.426,89.832 135.985,134.336c101.37,115.381 213.455,223.345 247.245,238.18c36.263,14.834 42.032,34.614 31.318,108.788c-13.187,94.777 -9.89,159.061 9.89,159.061c4.12,-0 23.9,-7.418 43.68,-16.483c37.086,-17.308 124.446,-28.021 279.387,-36.263l90.656,-4.945l-53.57,37.911c-28.845,20.604 -58.514,40.383 -65.108,44.504c-9.889,5.769 -0.824,18.956 42.032,63.46c52.746,54.394 80.767,93.129 67.581,93.129c-3.297,-0 -32.966,-28.021 -64.284,-61.811c-54.394,-58.515 -60.163,-61.812 -93.129,-61.812c-22.252,0 -37.087,4.121 -39.559,11.538c-2.473,5.769 13.186,52.746 34.614,103.019c55.218,132.688 101.37,174.72 143.402,132.688Zm-105.491,-1616.98c-13.187,-13.187 -12.362,-27.197 1.648,-38.735c23.076,-18.956 56.042,14.01 37.087,37.087c-11.538,14.01 -25.549,14.834 -38.735,1.648Zm-155.765,820.854c-2.472,-7.417 -0.824,-30.494 4.121,-50.273c10.714,-37.911 66.756,-134.337 79.119,-134.337c8.241,0 64.283,46.977 72.525,61.811c4.121,6.594 -5.769,9.066 -32.966,9.066l-38.735,-0.824l-29.67,61.811c-31.317,63.46 -44.504,77.47 -54.394,52.746Zm961.784,344.495c0,-12.362 51.097,-67.581 62.636,-67.581c14.01,0 14.834,9.066 2.472,35.439c-11.538,25.549 -65.108,51.921 -65.108,32.142Zm-723.604,-423.614c-15.659,-15.658 -11.538,-32.141 12.362,-57.69c18.131,-18.956 28.845,-23.076 59.339,-22.252c20.604,-0 51.097,4.945 66.756,10.714l28.845,10.714l-67.58,34.614c-73.349,36.263 -84.887,38.735 -99.722,23.9Zm-9.89,-585.971c0,-23.9 46.977,-98.898 57.691,-92.305c21.427,13.187 -1.649,86.536 -32.142,103.019c-23.077,11.538 -25.549,10.714 -25.549,-10.714Zm1302.16,538.995c0,-9.066 3.297,-18.131 7.417,-20.604c9.066,-5.769 18.956,18.131 12.363,28.845c-7.418,13.187 -19.78,8.242 -19.78,-8.241Zm-704.649,500.259c-7.417,-18.955 0,-38.735 16.483,-45.328c25.549,-9.066 30.494,10.714 9.066,35.438c-18.131,21.428 -20.604,22.253 -25.549,9.89Zm-635.42,-644.486c-15.659,-11.538 -15.659,-12.362 0.824,-42.855c18.956,-36.263 63.46,-85.712 77.47,-85.712c13.187,-0 11.539,70.877 -3.296,98.898c-11.538,23.076 -34.615,41.208 -51.098,41.208c-4.12,-0 -14.834,-4.945 -23.9,-11.539Zm454.107,-62.635c-6.593,-9.89 17.307,-49.449 28.845,-49.449c14.011,-0 9.066,46.977 -4.945,52.746c-17.307,6.593 -18.131,6.593 -23.9,-3.297Zm-111.26,12.362c-0,-11.538 4.121,-20.603 8.241,-20.603c4.945,-0 8.242,9.065 8.242,20.603c-0,11.538 -3.297,20.604 -8.242,20.604c-4.12,0 -8.241,-9.066 -8.241,-20.604Zm-148.347,-113.733c-0,-6.593 7.417,-20.603 15.659,-31.317c14.834,-18.956 16.483,-18.956 22.252,-4.121c3.296,8.242 2.472,21.428 -2.473,28.845c-10.714,17.307 -35.438,22.252 -35.438,6.593Zm1902.14,1879.89c17.308,-17.307 10.714,-45.328 -15.659,-67.58c-36.262,-30.494 -59.338,-27.197 -69.228,12.362c-10.714,43.68 54.394,85.712 84.887,55.218Zm-637.068,282.684c14.01,-8.242 46.152,-33.79 72.525,-57.691c27.197,-23.9 56.042,-42.031 65.932,-42.031c29.67,-0 55.218,-23.077 55.218,-48.625c0,-23.077 -12.362,-33.791 -39.559,-33.791c-19.78,0 -42.856,-24.724 -42.856,-46.976c0,-26.373 14.835,-30.494 57.691,-14.835c18.955,6.593 37.087,10.714 39.559,9.066c4.945,-5.769 -46.977,-93.953 -67.58,-112.909c-15.659,-14.835 -23.901,-15.659 -76.646,-10.714c-56.043,4.945 -60.987,4.121 -105.492,-21.428c-37.911,-22.252 -48.625,-24.724 -54.394,-15.659c-4.12,6.594 -7.417,16.483 -7.417,21.428c0,5.769 -10.714,37.911 -24.724,72.526c-13.187,34.614 -24.725,77.47 -24.725,95.601c0,59.339 32.966,98.898 72.525,86.536c22.252,-7.417 45.329,-51.922 60.163,-120.326l14.011,-61.811l13.186,30.493c32.142,74.998 6.593,192.851 -46.976,212.631c-42.032,15.659 -51.098,21.428 -53.57,36.263c-7.417,37.086 47.801,50.273 93.129,22.252Zm-2060.38,-260.432c0,-23.076 -23.9,-20.604 -27.197,2.473c-2.472,15.658 0,18.955 12.363,16.483c8.241,-1.649 14.834,-9.89 14.834,-18.956Zm2279.6,-210.158c20.604,-11.538 20.604,-46.153 -0.824,-57.691c-9.89,-4.945 -28.845,-8.241 -43.68,-6.593c-38.735,3.297 -41.208,33.79 -4.121,56.042c32.142,18.956 28.021,18.956 48.625,8.242Zm-4019.38,452.458c13.187,-55.218 -13.186,-122.798 -47.8,-122.798c-27.197,0 -39.56,26.373 -36.263,71.701c6.593,78.294 68.404,115.381 84.063,51.097Zm2126.31,-17.307c10.714,-17.307 -7.417,-94.777 -37.911,-159.061l-18.955,-41.207l-2.473,78.294c-3.297,95.601 8.242,142.578 32.966,138.457c9.89,-1.648 21.428,-9.065 26.373,-16.483Zm2214.49,-435.151c35.438,-18.956 9.065,-82.415 -33.79,-82.415c-46.977,-0 -53.57,54.394 -9.89,77.47c27.197,15.659 23.9,14.835 43.68,4.945Zm-3996.31,505.204c18.956,-17.307 18.956,-49.449 -1.648,-82.415c-13.186,-22.252 -21.428,-27.197 -44.504,-27.197c-32.966,0 -60.163,20.604 -67.581,51.097c-11.538,50.274 74.174,94.778 113.733,58.515Zm366.747,33.79c2.473,-6.593 0.824,-16.483 -4.945,-22.252c-11.538,-11.538 -38.735,12.362 -30.493,26.373c8.241,13.186 29.669,10.714 35.438,-4.121Zm4935.84,-61.811c2.472,-4.945 -0,-14.011 -5.77,-20.604c-14.834,-14.01 -36.262,-1.648 -29.669,16.483c5.769,14.835 27.197,17.307 35.439,4.121Zm-1965.6,-452.459c32.142,-18.131 12.362,-107.139 -24.724,-107.139c-32.142,-0 -56.867,56.042 -42.032,93.953c8.242,23.076 37.087,28.845 66.756,13.186Zm895.852,60.163c-1.648,-9.89 -10.714,-14.834 -27.197,-14.834c-16.483,-0 -25.549,4.944 -27.197,14.834c-2.472,11.538 3.297,14.011 27.197,14.011c23.9,-0 29.669,-2.473 27.197,-14.011Zm-2326.58,1225.51c2.472,-4.12 18.131,-8.241 33.79,-8.241c17.307,-0 27.197,3.296 23.9,8.241c-2.472,4.945 -18.131,8.242 -33.79,8.242c-17.307,-0 -27.197,-3.297 -23.9,-8.242Zm2524.37,-44.504c-50.273,-20.604 -107.139,-54.394 -92.305,-54.394c14.835,0 121.975,37.911 155.765,56.042l32.966,17.308l-24.725,-0c-13.186,-0 -46.152,-8.242 -71.701,-18.956Zm-1729.07,-182.137c-20.604,-24.725 12.362,-57.691 37.087,-37.087c15.659,13.186 15.659,20.604 -0.824,36.263c-15.659,16.483 -23.077,16.483 -36.263,0.824Zm613.992,4.121c-6.593,-9.89 16.483,-19.78 28.846,-12.363c4.944,2.473 6.593,9.066 4.12,13.187c-6.593,9.89 -26.373,9.89 -32.966,-0.824Zm-398.064,-216.752c-16.483,-39.559 -28.846,-95.601 -23.077,-108.788c2.473,-6.593 11.538,-12.362 20.604,-12.362c21.428,-0 29.67,41.207 19.78,99.722c-8.242,43.68 -8.242,44.504 -17.307,21.428Zm-152.468,5.769c-9.066,-9.066 -6.594,-118.678 2.472,-118.678c11.538,0 26.373,57.691 23.076,89.833c-2.472,27.197 -14.01,40.383 -25.548,28.845Zm-838.162,-19.78c0,-4.12 7.418,-8.241 15.659,-8.241c9.066,-0 18.956,4.121 21.428,8.241c3.297,4.945 -4.121,8.242 -15.659,8.242c-11.538,-0 -21.428,-3.297 -21.428,-8.242Zm126.92,-3.296c-8.242,-21.428 3.296,-39.559 23.076,-36.263c14.01,1.649 18.955,8.242 18.955,23.076c0,14.835 -4.945,21.428 -18.955,23.077c-10.714,1.648 -20.604,-2.473 -23.076,-9.89Zm153.292,-12.362c-0,-9.066 3.296,-18.132 7.417,-20.604c9.066,-5.769 18.955,18.131 12.362,28.845c-7.417,13.186 -19.779,8.242 -19.779,-8.241Zm848.875,-0c-12.362,-23.077 -9.89,-85.712 3.296,-103.843c10.714,-14.835 12.363,-14.011 28.846,12.362c21.428,35.438 21.428,46.152 0.824,80.767c-18.956,30.493 -21.428,31.317 -32.966,10.714Zm317.298,-20.604c-20.604,-48.625 -40.384,-192.851 -29.67,-215.928c12.363,-28.021 21.428,-24.724 37.087,14.011c26.373,65.932 33.79,212.631 11.538,226.641c-3.296,2.473 -12.362,-9.065 -18.955,-24.724Zm-745.856,-13.187c-0,-10.714 4.12,-16.483 10.713,-14.01c4.945,1.648 9.89,8.241 9.89,14.01c0,5.769 -4.945,12.363 -9.89,14.835c-6.593,1.648 -10.713,-4.121 -10.713,-14.835Zm1301.33,-145.874c-14.834,-40.384 -23.9,-101.371 -23.9,-166.479c0,-60.163 9.066,-93.953 19.78,-76.646c14.834,23.901 29.669,113.733 29.669,180.489c0,78.295 -9.89,103.019 -25.549,62.636Zm291.75,-140.106c-10.714,-37.087 -8.242,-222.521 3.296,-234.059c26.373,-26.372 46.153,113.733 27.197,201.093c-10.714,54.394 -21.428,65.108 -30.493,32.966Zm-3601.54,-3165.56c-35.438,-36.262 -107.963,-145.05 -114.557,-171.423c-6.593,-26.373 21.428,-69.229 72.526,-110.436c64.283,-51.097 66.756,-46.977 34.614,48.625c-19.78,60.163 -20.604,65.108 -9.066,93.129c16.483,39.559 65.108,70.877 124.447,80.767c46.153,7.417 70.877,18.955 70.877,33.79c0,11.538 -44.504,31.318 -98.898,43.68l-50.273,11.538l-29.67,-29.67Zm269.498,-29.669c-0,-11.538 4.12,-21.428 8.241,-21.428c4.945,0 8.242,7.418 8.242,15.659c-0,9.066 -3.297,18.955 -8.242,21.428c-4.945,3.297 -8.241,-4.121 -8.241,-15.659Zm-24.725,-131.04c-42.856,-24.724 -43.68,-26.373 -22.252,-28.845c28.845,-3.297 83.239,22.252 86.536,42.032c4.121,20.603 -13.187,17.307 -64.284,-13.187Zm-1167,-18.131c-9.89,-25.549 74.173,-119.502 107.139,-119.502c18.956,-0 23.901,29.669 9.066,57.69c-13.186,25.549 -79.118,74.174 -100.546,74.174c-6.594,0 -13.187,-5.769 -15.659,-12.362Z" style="fill:#fff;"/></svg>